G04 #@! TF.GenerationSoftware,KiCad,Pcbnew,(5.1.2)-1*
G04 #@! TF.CreationDate,2019-06-16T12:12:28+02:00*
G04 #@! TF.ProjectId,STM32CAN,53544d33-3243-4414-9e2e-6b696361645f,rev?*
G04 #@! TF.SameCoordinates,Original*
G04 #@! TF.FileFunction,Paste,Top*
G04 #@! TF.FilePolarity,Positive*
%FSLAX46Y46*%
G04 Gerber Fmt 4.6, Leading zero omitted, Abs format (unit mm)*
G04 Created by KiCad (PCBNEW (5.1.2)-1) date 2019-06-16 12:12:28*
%MOMM*%
%LPD*%
G04 APERTURE LIST*
%ADD10R,1.450000X0.450000*%
%ADD11R,0.750000X2.100000*%
%ADD12C,0.100000*%
%ADD13C,0.875000*%
%ADD14C,0.975000*%
%ADD15C,1.250000*%
%ADD16R,0.600000X0.450000*%
%ADD17R,0.450000X0.700000*%
%ADD18R,0.650000X0.300000*%
%ADD19R,0.700000X2.900000*%
%ADD20R,1.846667X3.480000*%
%ADD21R,0.740000X2.400000*%
%ADD22C,0.600000*%
%ADD23R,1.700000X2.400000*%
G04 APERTURE END LIST*
D10*
X23720000Y-72005000D03*
X23720000Y-72655000D03*
X23720000Y-73305000D03*
X23720000Y-73955000D03*
X23720000Y-74605000D03*
X23720000Y-75255000D03*
X23720000Y-75905000D03*
X23720000Y-76555000D03*
X23720000Y-77205000D03*
X23720000Y-77855000D03*
X29620000Y-77855000D03*
X29620000Y-77205000D03*
X29620000Y-76555000D03*
X29620000Y-75905000D03*
X29620000Y-75255000D03*
X29620000Y-74605000D03*
X29620000Y-73955000D03*
X29620000Y-73305000D03*
X29620000Y-72655000D03*
X29620000Y-72005000D03*
D11*
X31865000Y-58208000D03*
X31865000Y-61808000D03*
X33135000Y-58208000D03*
X33135000Y-61808000D03*
X34405000Y-58208000D03*
X34405000Y-61808000D03*
X35675000Y-58208000D03*
X35675000Y-61808000D03*
X36945000Y-58208000D03*
X36945000Y-61808000D03*
X38215000Y-58208000D03*
X38215000Y-61808000D03*
X39485000Y-58208000D03*
X39485000Y-61808000D03*
X40755000Y-58208000D03*
X40755000Y-61808000D03*
X42025000Y-58208000D03*
X42025000Y-61808000D03*
X43295000Y-58208000D03*
X43295000Y-61808000D03*
X44565000Y-58208000D03*
X44565000Y-61808000D03*
X45835000Y-58208000D03*
X45835000Y-61808000D03*
D12*
G36*
X19327691Y-74341053D02*
G01*
X19348926Y-74344203D01*
X19369750Y-74349419D01*
X19389962Y-74356651D01*
X19409368Y-74365830D01*
X19427781Y-74376866D01*
X19445024Y-74389654D01*
X19460930Y-74404070D01*
X19475346Y-74419976D01*
X19488134Y-74437219D01*
X19499170Y-74455632D01*
X19508349Y-74475038D01*
X19515581Y-74495250D01*
X19520797Y-74516074D01*
X19523947Y-74537309D01*
X19525000Y-74558750D01*
X19525000Y-74996250D01*
X19523947Y-75017691D01*
X19520797Y-75038926D01*
X19515581Y-75059750D01*
X19508349Y-75079962D01*
X19499170Y-75099368D01*
X19488134Y-75117781D01*
X19475346Y-75135024D01*
X19460930Y-75150930D01*
X19445024Y-75165346D01*
X19427781Y-75178134D01*
X19409368Y-75189170D01*
X19389962Y-75198349D01*
X19369750Y-75205581D01*
X19348926Y-75210797D01*
X19327691Y-75213947D01*
X19306250Y-75215000D01*
X18793750Y-75215000D01*
X18772309Y-75213947D01*
X18751074Y-75210797D01*
X18730250Y-75205581D01*
X18710038Y-75198349D01*
X18690632Y-75189170D01*
X18672219Y-75178134D01*
X18654976Y-75165346D01*
X18639070Y-75150930D01*
X18624654Y-75135024D01*
X18611866Y-75117781D01*
X18600830Y-75099368D01*
X18591651Y-75079962D01*
X18584419Y-75059750D01*
X18579203Y-75038926D01*
X18576053Y-75017691D01*
X18575000Y-74996250D01*
X18575000Y-74558750D01*
X18576053Y-74537309D01*
X18579203Y-74516074D01*
X18584419Y-74495250D01*
X18591651Y-74475038D01*
X18600830Y-74455632D01*
X18611866Y-74437219D01*
X18624654Y-74419976D01*
X18639070Y-74404070D01*
X18654976Y-74389654D01*
X18672219Y-74376866D01*
X18690632Y-74365830D01*
X18710038Y-74356651D01*
X18730250Y-74349419D01*
X18751074Y-74344203D01*
X18772309Y-74341053D01*
X18793750Y-74340000D01*
X19306250Y-74340000D01*
X19327691Y-74341053D01*
X19327691Y-74341053D01*
G37*
D13*
X19050000Y-74777500D03*
D12*
G36*
X19327691Y-75916053D02*
G01*
X19348926Y-75919203D01*
X19369750Y-75924419D01*
X19389962Y-75931651D01*
X19409368Y-75940830D01*
X19427781Y-75951866D01*
X19445024Y-75964654D01*
X19460930Y-75979070D01*
X19475346Y-75994976D01*
X19488134Y-76012219D01*
X19499170Y-76030632D01*
X19508349Y-76050038D01*
X19515581Y-76070250D01*
X19520797Y-76091074D01*
X19523947Y-76112309D01*
X19525000Y-76133750D01*
X19525000Y-76571250D01*
X19523947Y-76592691D01*
X19520797Y-76613926D01*
X19515581Y-76634750D01*
X19508349Y-76654962D01*
X19499170Y-76674368D01*
X19488134Y-76692781D01*
X19475346Y-76710024D01*
X19460930Y-76725930D01*
X19445024Y-76740346D01*
X19427781Y-76753134D01*
X19409368Y-76764170D01*
X19389962Y-76773349D01*
X19369750Y-76780581D01*
X19348926Y-76785797D01*
X19327691Y-76788947D01*
X19306250Y-76790000D01*
X18793750Y-76790000D01*
X18772309Y-76788947D01*
X18751074Y-76785797D01*
X18730250Y-76780581D01*
X18710038Y-76773349D01*
X18690632Y-76764170D01*
X18672219Y-76753134D01*
X18654976Y-76740346D01*
X18639070Y-76725930D01*
X18624654Y-76710024D01*
X18611866Y-76692781D01*
X18600830Y-76674368D01*
X18591651Y-76654962D01*
X18584419Y-76634750D01*
X18579203Y-76613926D01*
X18576053Y-76592691D01*
X18575000Y-76571250D01*
X18575000Y-76133750D01*
X18576053Y-76112309D01*
X18579203Y-76091074D01*
X18584419Y-76070250D01*
X18591651Y-76050038D01*
X18600830Y-76030632D01*
X18611866Y-76012219D01*
X18624654Y-75994976D01*
X18639070Y-75979070D01*
X18654976Y-75964654D01*
X18672219Y-75951866D01*
X18690632Y-75940830D01*
X18710038Y-75931651D01*
X18730250Y-75924419D01*
X18751074Y-75919203D01*
X18772309Y-75916053D01*
X18793750Y-75915000D01*
X19306250Y-75915000D01*
X19327691Y-75916053D01*
X19327691Y-75916053D01*
G37*
D13*
X19050000Y-76352500D03*
D12*
G36*
X21232691Y-75916053D02*
G01*
X21253926Y-75919203D01*
X21274750Y-75924419D01*
X21294962Y-75931651D01*
X21314368Y-75940830D01*
X21332781Y-75951866D01*
X21350024Y-75964654D01*
X21365930Y-75979070D01*
X21380346Y-75994976D01*
X21393134Y-76012219D01*
X21404170Y-76030632D01*
X21413349Y-76050038D01*
X21420581Y-76070250D01*
X21425797Y-76091074D01*
X21428947Y-76112309D01*
X21430000Y-76133750D01*
X21430000Y-76571250D01*
X21428947Y-76592691D01*
X21425797Y-76613926D01*
X21420581Y-76634750D01*
X21413349Y-76654962D01*
X21404170Y-76674368D01*
X21393134Y-76692781D01*
X21380346Y-76710024D01*
X21365930Y-76725930D01*
X21350024Y-76740346D01*
X21332781Y-76753134D01*
X21314368Y-76764170D01*
X21294962Y-76773349D01*
X21274750Y-76780581D01*
X21253926Y-76785797D01*
X21232691Y-76788947D01*
X21211250Y-76790000D01*
X20698750Y-76790000D01*
X20677309Y-76788947D01*
X20656074Y-76785797D01*
X20635250Y-76780581D01*
X20615038Y-76773349D01*
X20595632Y-76764170D01*
X20577219Y-76753134D01*
X20559976Y-76740346D01*
X20544070Y-76725930D01*
X20529654Y-76710024D01*
X20516866Y-76692781D01*
X20505830Y-76674368D01*
X20496651Y-76654962D01*
X20489419Y-76634750D01*
X20484203Y-76613926D01*
X20481053Y-76592691D01*
X20480000Y-76571250D01*
X20480000Y-76133750D01*
X20481053Y-76112309D01*
X20484203Y-76091074D01*
X20489419Y-76070250D01*
X20496651Y-76050038D01*
X20505830Y-76030632D01*
X20516866Y-76012219D01*
X20529654Y-75994976D01*
X20544070Y-75979070D01*
X20559976Y-75964654D01*
X20577219Y-75951866D01*
X20595632Y-75940830D01*
X20615038Y-75931651D01*
X20635250Y-75924419D01*
X20656074Y-75919203D01*
X20677309Y-75916053D01*
X20698750Y-75915000D01*
X21211250Y-75915000D01*
X21232691Y-75916053D01*
X21232691Y-75916053D01*
G37*
D13*
X20955000Y-76352500D03*
D12*
G36*
X21232691Y-74341053D02*
G01*
X21253926Y-74344203D01*
X21274750Y-74349419D01*
X21294962Y-74356651D01*
X21314368Y-74365830D01*
X21332781Y-74376866D01*
X21350024Y-74389654D01*
X21365930Y-74404070D01*
X21380346Y-74419976D01*
X21393134Y-74437219D01*
X21404170Y-74455632D01*
X21413349Y-74475038D01*
X21420581Y-74495250D01*
X21425797Y-74516074D01*
X21428947Y-74537309D01*
X21430000Y-74558750D01*
X21430000Y-74996250D01*
X21428947Y-75017691D01*
X21425797Y-75038926D01*
X21420581Y-75059750D01*
X21413349Y-75079962D01*
X21404170Y-75099368D01*
X21393134Y-75117781D01*
X21380346Y-75135024D01*
X21365930Y-75150930D01*
X21350024Y-75165346D01*
X21332781Y-75178134D01*
X21314368Y-75189170D01*
X21294962Y-75198349D01*
X21274750Y-75205581D01*
X21253926Y-75210797D01*
X21232691Y-75213947D01*
X21211250Y-75215000D01*
X20698750Y-75215000D01*
X20677309Y-75213947D01*
X20656074Y-75210797D01*
X20635250Y-75205581D01*
X20615038Y-75198349D01*
X20595632Y-75189170D01*
X20577219Y-75178134D01*
X20559976Y-75165346D01*
X20544070Y-75150930D01*
X20529654Y-75135024D01*
X20516866Y-75117781D01*
X20505830Y-75099368D01*
X20496651Y-75079962D01*
X20489419Y-75059750D01*
X20484203Y-75038926D01*
X20481053Y-75017691D01*
X20480000Y-74996250D01*
X20480000Y-74558750D01*
X20481053Y-74537309D01*
X20484203Y-74516074D01*
X20489419Y-74495250D01*
X20496651Y-74475038D01*
X20505830Y-74455632D01*
X20516866Y-74437219D01*
X20529654Y-74419976D01*
X20544070Y-74404070D01*
X20559976Y-74389654D01*
X20577219Y-74376866D01*
X20595632Y-74365830D01*
X20615038Y-74356651D01*
X20635250Y-74349419D01*
X20656074Y-74344203D01*
X20677309Y-74341053D01*
X20698750Y-74340000D01*
X21211250Y-74340000D01*
X21232691Y-74341053D01*
X21232691Y-74341053D01*
G37*
D13*
X20955000Y-74777500D03*
D12*
G36*
X32662691Y-73858553D02*
G01*
X32683926Y-73861703D01*
X32704750Y-73866919D01*
X32724962Y-73874151D01*
X32744368Y-73883330D01*
X32762781Y-73894366D01*
X32780024Y-73907154D01*
X32795930Y-73921570D01*
X32810346Y-73937476D01*
X32823134Y-73954719D01*
X32834170Y-73973132D01*
X32843349Y-73992538D01*
X32850581Y-74012750D01*
X32855797Y-74033574D01*
X32858947Y-74054809D01*
X32860000Y-74076250D01*
X32860000Y-74513750D01*
X32858947Y-74535191D01*
X32855797Y-74556426D01*
X32850581Y-74577250D01*
X32843349Y-74597462D01*
X32834170Y-74616868D01*
X32823134Y-74635281D01*
X32810346Y-74652524D01*
X32795930Y-74668430D01*
X32780024Y-74682846D01*
X32762781Y-74695634D01*
X32744368Y-74706670D01*
X32724962Y-74715849D01*
X32704750Y-74723081D01*
X32683926Y-74728297D01*
X32662691Y-74731447D01*
X32641250Y-74732500D01*
X32128750Y-74732500D01*
X32107309Y-74731447D01*
X32086074Y-74728297D01*
X32065250Y-74723081D01*
X32045038Y-74715849D01*
X32025632Y-74706670D01*
X32007219Y-74695634D01*
X31989976Y-74682846D01*
X31974070Y-74668430D01*
X31959654Y-74652524D01*
X31946866Y-74635281D01*
X31935830Y-74616868D01*
X31926651Y-74597462D01*
X31919419Y-74577250D01*
X31914203Y-74556426D01*
X31911053Y-74535191D01*
X31910000Y-74513750D01*
X31910000Y-74076250D01*
X31911053Y-74054809D01*
X31914203Y-74033574D01*
X31919419Y-74012750D01*
X31926651Y-73992538D01*
X31935830Y-73973132D01*
X31946866Y-73954719D01*
X31959654Y-73937476D01*
X31974070Y-73921570D01*
X31989976Y-73907154D01*
X32007219Y-73894366D01*
X32025632Y-73883330D01*
X32045038Y-73874151D01*
X32065250Y-73866919D01*
X32086074Y-73861703D01*
X32107309Y-73858553D01*
X32128750Y-73857500D01*
X32641250Y-73857500D01*
X32662691Y-73858553D01*
X32662691Y-73858553D01*
G37*
D13*
X32385000Y-74295000D03*
D12*
G36*
X32662691Y-75433553D02*
G01*
X32683926Y-75436703D01*
X32704750Y-75441919D01*
X32724962Y-75449151D01*
X32744368Y-75458330D01*
X32762781Y-75469366D01*
X32780024Y-75482154D01*
X32795930Y-75496570D01*
X32810346Y-75512476D01*
X32823134Y-75529719D01*
X32834170Y-75548132D01*
X32843349Y-75567538D01*
X32850581Y-75587750D01*
X32855797Y-75608574D01*
X32858947Y-75629809D01*
X32860000Y-75651250D01*
X32860000Y-76088750D01*
X32858947Y-76110191D01*
X32855797Y-76131426D01*
X32850581Y-76152250D01*
X32843349Y-76172462D01*
X32834170Y-76191868D01*
X32823134Y-76210281D01*
X32810346Y-76227524D01*
X32795930Y-76243430D01*
X32780024Y-76257846D01*
X32762781Y-76270634D01*
X32744368Y-76281670D01*
X32724962Y-76290849D01*
X32704750Y-76298081D01*
X32683926Y-76303297D01*
X32662691Y-76306447D01*
X32641250Y-76307500D01*
X32128750Y-76307500D01*
X32107309Y-76306447D01*
X32086074Y-76303297D01*
X32065250Y-76298081D01*
X32045038Y-76290849D01*
X32025632Y-76281670D01*
X32007219Y-76270634D01*
X31989976Y-76257846D01*
X31974070Y-76243430D01*
X31959654Y-76227524D01*
X31946866Y-76210281D01*
X31935830Y-76191868D01*
X31926651Y-76172462D01*
X31919419Y-76152250D01*
X31914203Y-76131426D01*
X31911053Y-76110191D01*
X31910000Y-76088750D01*
X31910000Y-75651250D01*
X31911053Y-75629809D01*
X31914203Y-75608574D01*
X31919419Y-75587750D01*
X31926651Y-75567538D01*
X31935830Y-75548132D01*
X31946866Y-75529719D01*
X31959654Y-75512476D01*
X31974070Y-75496570D01*
X31989976Y-75482154D01*
X32007219Y-75469366D01*
X32025632Y-75458330D01*
X32045038Y-75449151D01*
X32065250Y-75441919D01*
X32086074Y-75436703D01*
X32107309Y-75433553D01*
X32128750Y-75432500D01*
X32641250Y-75432500D01*
X32662691Y-75433553D01*
X32662691Y-75433553D01*
G37*
D13*
X32385000Y-75870000D03*
D12*
G36*
X34567691Y-75433553D02*
G01*
X34588926Y-75436703D01*
X34609750Y-75441919D01*
X34629962Y-75449151D01*
X34649368Y-75458330D01*
X34667781Y-75469366D01*
X34685024Y-75482154D01*
X34700930Y-75496570D01*
X34715346Y-75512476D01*
X34728134Y-75529719D01*
X34739170Y-75548132D01*
X34748349Y-75567538D01*
X34755581Y-75587750D01*
X34760797Y-75608574D01*
X34763947Y-75629809D01*
X34765000Y-75651250D01*
X34765000Y-76088750D01*
X34763947Y-76110191D01*
X34760797Y-76131426D01*
X34755581Y-76152250D01*
X34748349Y-76172462D01*
X34739170Y-76191868D01*
X34728134Y-76210281D01*
X34715346Y-76227524D01*
X34700930Y-76243430D01*
X34685024Y-76257846D01*
X34667781Y-76270634D01*
X34649368Y-76281670D01*
X34629962Y-76290849D01*
X34609750Y-76298081D01*
X34588926Y-76303297D01*
X34567691Y-76306447D01*
X34546250Y-76307500D01*
X34033750Y-76307500D01*
X34012309Y-76306447D01*
X33991074Y-76303297D01*
X33970250Y-76298081D01*
X33950038Y-76290849D01*
X33930632Y-76281670D01*
X33912219Y-76270634D01*
X33894976Y-76257846D01*
X33879070Y-76243430D01*
X33864654Y-76227524D01*
X33851866Y-76210281D01*
X33840830Y-76191868D01*
X33831651Y-76172462D01*
X33824419Y-76152250D01*
X33819203Y-76131426D01*
X33816053Y-76110191D01*
X33815000Y-76088750D01*
X33815000Y-75651250D01*
X33816053Y-75629809D01*
X33819203Y-75608574D01*
X33824419Y-75587750D01*
X33831651Y-75567538D01*
X33840830Y-75548132D01*
X33851866Y-75529719D01*
X33864654Y-75512476D01*
X33879070Y-75496570D01*
X33894976Y-75482154D01*
X33912219Y-75469366D01*
X33930632Y-75458330D01*
X33950038Y-75449151D01*
X33970250Y-75441919D01*
X33991074Y-75436703D01*
X34012309Y-75433553D01*
X34033750Y-75432500D01*
X34546250Y-75432500D01*
X34567691Y-75433553D01*
X34567691Y-75433553D01*
G37*
D13*
X34290000Y-75870000D03*
D12*
G36*
X34567691Y-73858553D02*
G01*
X34588926Y-73861703D01*
X34609750Y-73866919D01*
X34629962Y-73874151D01*
X34649368Y-73883330D01*
X34667781Y-73894366D01*
X34685024Y-73907154D01*
X34700930Y-73921570D01*
X34715346Y-73937476D01*
X34728134Y-73954719D01*
X34739170Y-73973132D01*
X34748349Y-73992538D01*
X34755581Y-74012750D01*
X34760797Y-74033574D01*
X34763947Y-74054809D01*
X34765000Y-74076250D01*
X34765000Y-74513750D01*
X34763947Y-74535191D01*
X34760797Y-74556426D01*
X34755581Y-74577250D01*
X34748349Y-74597462D01*
X34739170Y-74616868D01*
X34728134Y-74635281D01*
X34715346Y-74652524D01*
X34700930Y-74668430D01*
X34685024Y-74682846D01*
X34667781Y-74695634D01*
X34649368Y-74706670D01*
X34629962Y-74715849D01*
X34609750Y-74723081D01*
X34588926Y-74728297D01*
X34567691Y-74731447D01*
X34546250Y-74732500D01*
X34033750Y-74732500D01*
X34012309Y-74731447D01*
X33991074Y-74728297D01*
X33970250Y-74723081D01*
X33950038Y-74715849D01*
X33930632Y-74706670D01*
X33912219Y-74695634D01*
X33894976Y-74682846D01*
X33879070Y-74668430D01*
X33864654Y-74652524D01*
X33851866Y-74635281D01*
X33840830Y-74616868D01*
X33831651Y-74597462D01*
X33824419Y-74577250D01*
X33819203Y-74556426D01*
X33816053Y-74535191D01*
X33815000Y-74513750D01*
X33815000Y-74076250D01*
X33816053Y-74054809D01*
X33819203Y-74033574D01*
X33824419Y-74012750D01*
X33831651Y-73992538D01*
X33840830Y-73973132D01*
X33851866Y-73954719D01*
X33864654Y-73937476D01*
X33879070Y-73921570D01*
X33894976Y-73907154D01*
X33912219Y-73894366D01*
X33930632Y-73883330D01*
X33950038Y-73874151D01*
X33970250Y-73866919D01*
X33991074Y-73861703D01*
X34012309Y-73858553D01*
X34033750Y-73857500D01*
X34546250Y-73857500D01*
X34567691Y-73858553D01*
X34567691Y-73858553D01*
G37*
D13*
X34290000Y-74295000D03*
D12*
G36*
X36472691Y-73858553D02*
G01*
X36493926Y-73861703D01*
X36514750Y-73866919D01*
X36534962Y-73874151D01*
X36554368Y-73883330D01*
X36572781Y-73894366D01*
X36590024Y-73907154D01*
X36605930Y-73921570D01*
X36620346Y-73937476D01*
X36633134Y-73954719D01*
X36644170Y-73973132D01*
X36653349Y-73992538D01*
X36660581Y-74012750D01*
X36665797Y-74033574D01*
X36668947Y-74054809D01*
X36670000Y-74076250D01*
X36670000Y-74513750D01*
X36668947Y-74535191D01*
X36665797Y-74556426D01*
X36660581Y-74577250D01*
X36653349Y-74597462D01*
X36644170Y-74616868D01*
X36633134Y-74635281D01*
X36620346Y-74652524D01*
X36605930Y-74668430D01*
X36590024Y-74682846D01*
X36572781Y-74695634D01*
X36554368Y-74706670D01*
X36534962Y-74715849D01*
X36514750Y-74723081D01*
X36493926Y-74728297D01*
X36472691Y-74731447D01*
X36451250Y-74732500D01*
X35938750Y-74732500D01*
X35917309Y-74731447D01*
X35896074Y-74728297D01*
X35875250Y-74723081D01*
X35855038Y-74715849D01*
X35835632Y-74706670D01*
X35817219Y-74695634D01*
X35799976Y-74682846D01*
X35784070Y-74668430D01*
X35769654Y-74652524D01*
X35756866Y-74635281D01*
X35745830Y-74616868D01*
X35736651Y-74597462D01*
X35729419Y-74577250D01*
X35724203Y-74556426D01*
X35721053Y-74535191D01*
X35720000Y-74513750D01*
X35720000Y-74076250D01*
X35721053Y-74054809D01*
X35724203Y-74033574D01*
X35729419Y-74012750D01*
X35736651Y-73992538D01*
X35745830Y-73973132D01*
X35756866Y-73954719D01*
X35769654Y-73937476D01*
X35784070Y-73921570D01*
X35799976Y-73907154D01*
X35817219Y-73894366D01*
X35835632Y-73883330D01*
X35855038Y-73874151D01*
X35875250Y-73866919D01*
X35896074Y-73861703D01*
X35917309Y-73858553D01*
X35938750Y-73857500D01*
X36451250Y-73857500D01*
X36472691Y-73858553D01*
X36472691Y-73858553D01*
G37*
D13*
X36195000Y-74295000D03*
D12*
G36*
X36472691Y-75433553D02*
G01*
X36493926Y-75436703D01*
X36514750Y-75441919D01*
X36534962Y-75449151D01*
X36554368Y-75458330D01*
X36572781Y-75469366D01*
X36590024Y-75482154D01*
X36605930Y-75496570D01*
X36620346Y-75512476D01*
X36633134Y-75529719D01*
X36644170Y-75548132D01*
X36653349Y-75567538D01*
X36660581Y-75587750D01*
X36665797Y-75608574D01*
X36668947Y-75629809D01*
X36670000Y-75651250D01*
X36670000Y-76088750D01*
X36668947Y-76110191D01*
X36665797Y-76131426D01*
X36660581Y-76152250D01*
X36653349Y-76172462D01*
X36644170Y-76191868D01*
X36633134Y-76210281D01*
X36620346Y-76227524D01*
X36605930Y-76243430D01*
X36590024Y-76257846D01*
X36572781Y-76270634D01*
X36554368Y-76281670D01*
X36534962Y-76290849D01*
X36514750Y-76298081D01*
X36493926Y-76303297D01*
X36472691Y-76306447D01*
X36451250Y-76307500D01*
X35938750Y-76307500D01*
X35917309Y-76306447D01*
X35896074Y-76303297D01*
X35875250Y-76298081D01*
X35855038Y-76290849D01*
X35835632Y-76281670D01*
X35817219Y-76270634D01*
X35799976Y-76257846D01*
X35784070Y-76243430D01*
X35769654Y-76227524D01*
X35756866Y-76210281D01*
X35745830Y-76191868D01*
X35736651Y-76172462D01*
X35729419Y-76152250D01*
X35724203Y-76131426D01*
X35721053Y-76110191D01*
X35720000Y-76088750D01*
X35720000Y-75651250D01*
X35721053Y-75629809D01*
X35724203Y-75608574D01*
X35729419Y-75587750D01*
X35736651Y-75567538D01*
X35745830Y-75548132D01*
X35756866Y-75529719D01*
X35769654Y-75512476D01*
X35784070Y-75496570D01*
X35799976Y-75482154D01*
X35817219Y-75469366D01*
X35835632Y-75458330D01*
X35855038Y-75449151D01*
X35875250Y-75441919D01*
X35896074Y-75436703D01*
X35917309Y-75433553D01*
X35938750Y-75432500D01*
X36451250Y-75432500D01*
X36472691Y-75433553D01*
X36472691Y-75433553D01*
G37*
D13*
X36195000Y-75870000D03*
D12*
G36*
X27455691Y-67381553D02*
G01*
X27476926Y-67384703D01*
X27497750Y-67389919D01*
X27517962Y-67397151D01*
X27537368Y-67406330D01*
X27555781Y-67417366D01*
X27573024Y-67430154D01*
X27588930Y-67444570D01*
X27603346Y-67460476D01*
X27616134Y-67477719D01*
X27627170Y-67496132D01*
X27636349Y-67515538D01*
X27643581Y-67535750D01*
X27648797Y-67556574D01*
X27651947Y-67577809D01*
X27653000Y-67599250D01*
X27653000Y-68036750D01*
X27651947Y-68058191D01*
X27648797Y-68079426D01*
X27643581Y-68100250D01*
X27636349Y-68120462D01*
X27627170Y-68139868D01*
X27616134Y-68158281D01*
X27603346Y-68175524D01*
X27588930Y-68191430D01*
X27573024Y-68205846D01*
X27555781Y-68218634D01*
X27537368Y-68229670D01*
X27517962Y-68238849D01*
X27497750Y-68246081D01*
X27476926Y-68251297D01*
X27455691Y-68254447D01*
X27434250Y-68255500D01*
X26921750Y-68255500D01*
X26900309Y-68254447D01*
X26879074Y-68251297D01*
X26858250Y-68246081D01*
X26838038Y-68238849D01*
X26818632Y-68229670D01*
X26800219Y-68218634D01*
X26782976Y-68205846D01*
X26767070Y-68191430D01*
X26752654Y-68175524D01*
X26739866Y-68158281D01*
X26728830Y-68139868D01*
X26719651Y-68120462D01*
X26712419Y-68100250D01*
X26707203Y-68079426D01*
X26704053Y-68058191D01*
X26703000Y-68036750D01*
X26703000Y-67599250D01*
X26704053Y-67577809D01*
X26707203Y-67556574D01*
X26712419Y-67535750D01*
X26719651Y-67515538D01*
X26728830Y-67496132D01*
X26739866Y-67477719D01*
X26752654Y-67460476D01*
X26767070Y-67444570D01*
X26782976Y-67430154D01*
X26800219Y-67417366D01*
X26818632Y-67406330D01*
X26838038Y-67397151D01*
X26858250Y-67389919D01*
X26879074Y-67384703D01*
X26900309Y-67381553D01*
X26921750Y-67380500D01*
X27434250Y-67380500D01*
X27455691Y-67381553D01*
X27455691Y-67381553D01*
G37*
D13*
X27178000Y-67818000D03*
D12*
G36*
X27455691Y-68956553D02*
G01*
X27476926Y-68959703D01*
X27497750Y-68964919D01*
X27517962Y-68972151D01*
X27537368Y-68981330D01*
X27555781Y-68992366D01*
X27573024Y-69005154D01*
X27588930Y-69019570D01*
X27603346Y-69035476D01*
X27616134Y-69052719D01*
X27627170Y-69071132D01*
X27636349Y-69090538D01*
X27643581Y-69110750D01*
X27648797Y-69131574D01*
X27651947Y-69152809D01*
X27653000Y-69174250D01*
X27653000Y-69611750D01*
X27651947Y-69633191D01*
X27648797Y-69654426D01*
X27643581Y-69675250D01*
X27636349Y-69695462D01*
X27627170Y-69714868D01*
X27616134Y-69733281D01*
X27603346Y-69750524D01*
X27588930Y-69766430D01*
X27573024Y-69780846D01*
X27555781Y-69793634D01*
X27537368Y-69804670D01*
X27517962Y-69813849D01*
X27497750Y-69821081D01*
X27476926Y-69826297D01*
X27455691Y-69829447D01*
X27434250Y-69830500D01*
X26921750Y-69830500D01*
X26900309Y-69829447D01*
X26879074Y-69826297D01*
X26858250Y-69821081D01*
X26838038Y-69813849D01*
X26818632Y-69804670D01*
X26800219Y-69793634D01*
X26782976Y-69780846D01*
X26767070Y-69766430D01*
X26752654Y-69750524D01*
X26739866Y-69733281D01*
X26728830Y-69714868D01*
X26719651Y-69695462D01*
X26712419Y-69675250D01*
X26707203Y-69654426D01*
X26704053Y-69633191D01*
X26703000Y-69611750D01*
X26703000Y-69174250D01*
X26704053Y-69152809D01*
X26707203Y-69131574D01*
X26712419Y-69110750D01*
X26719651Y-69090538D01*
X26728830Y-69071132D01*
X26739866Y-69052719D01*
X26752654Y-69035476D01*
X26767070Y-69019570D01*
X26782976Y-69005154D01*
X26800219Y-68992366D01*
X26818632Y-68981330D01*
X26838038Y-68972151D01*
X26858250Y-68964919D01*
X26879074Y-68959703D01*
X26900309Y-68956553D01*
X26921750Y-68955500D01*
X27434250Y-68955500D01*
X27455691Y-68956553D01*
X27455691Y-68956553D01*
G37*
D13*
X27178000Y-69393000D03*
D12*
G36*
X23772691Y-67356053D02*
G01*
X23793926Y-67359203D01*
X23814750Y-67364419D01*
X23834962Y-67371651D01*
X23854368Y-67380830D01*
X23872781Y-67391866D01*
X23890024Y-67404654D01*
X23905930Y-67419070D01*
X23920346Y-67434976D01*
X23933134Y-67452219D01*
X23944170Y-67470632D01*
X23953349Y-67490038D01*
X23960581Y-67510250D01*
X23965797Y-67531074D01*
X23968947Y-67552309D01*
X23970000Y-67573750D01*
X23970000Y-68011250D01*
X23968947Y-68032691D01*
X23965797Y-68053926D01*
X23960581Y-68074750D01*
X23953349Y-68094962D01*
X23944170Y-68114368D01*
X23933134Y-68132781D01*
X23920346Y-68150024D01*
X23905930Y-68165930D01*
X23890024Y-68180346D01*
X23872781Y-68193134D01*
X23854368Y-68204170D01*
X23834962Y-68213349D01*
X23814750Y-68220581D01*
X23793926Y-68225797D01*
X23772691Y-68228947D01*
X23751250Y-68230000D01*
X23238750Y-68230000D01*
X23217309Y-68228947D01*
X23196074Y-68225797D01*
X23175250Y-68220581D01*
X23155038Y-68213349D01*
X23135632Y-68204170D01*
X23117219Y-68193134D01*
X23099976Y-68180346D01*
X23084070Y-68165930D01*
X23069654Y-68150024D01*
X23056866Y-68132781D01*
X23045830Y-68114368D01*
X23036651Y-68094962D01*
X23029419Y-68074750D01*
X23024203Y-68053926D01*
X23021053Y-68032691D01*
X23020000Y-68011250D01*
X23020000Y-67573750D01*
X23021053Y-67552309D01*
X23024203Y-67531074D01*
X23029419Y-67510250D01*
X23036651Y-67490038D01*
X23045830Y-67470632D01*
X23056866Y-67452219D01*
X23069654Y-67434976D01*
X23084070Y-67419070D01*
X23099976Y-67404654D01*
X23117219Y-67391866D01*
X23135632Y-67380830D01*
X23155038Y-67371651D01*
X23175250Y-67364419D01*
X23196074Y-67359203D01*
X23217309Y-67356053D01*
X23238750Y-67355000D01*
X23751250Y-67355000D01*
X23772691Y-67356053D01*
X23772691Y-67356053D01*
G37*
D13*
X23495000Y-67792500D03*
D12*
G36*
X23772691Y-68931053D02*
G01*
X23793926Y-68934203D01*
X23814750Y-68939419D01*
X23834962Y-68946651D01*
X23854368Y-68955830D01*
X23872781Y-68966866D01*
X23890024Y-68979654D01*
X23905930Y-68994070D01*
X23920346Y-69009976D01*
X23933134Y-69027219D01*
X23944170Y-69045632D01*
X23953349Y-69065038D01*
X23960581Y-69085250D01*
X23965797Y-69106074D01*
X23968947Y-69127309D01*
X23970000Y-69148750D01*
X23970000Y-69586250D01*
X23968947Y-69607691D01*
X23965797Y-69628926D01*
X23960581Y-69649750D01*
X23953349Y-69669962D01*
X23944170Y-69689368D01*
X23933134Y-69707781D01*
X23920346Y-69725024D01*
X23905930Y-69740930D01*
X23890024Y-69755346D01*
X23872781Y-69768134D01*
X23854368Y-69779170D01*
X23834962Y-69788349D01*
X23814750Y-69795581D01*
X23793926Y-69800797D01*
X23772691Y-69803947D01*
X23751250Y-69805000D01*
X23238750Y-69805000D01*
X23217309Y-69803947D01*
X23196074Y-69800797D01*
X23175250Y-69795581D01*
X23155038Y-69788349D01*
X23135632Y-69779170D01*
X23117219Y-69768134D01*
X23099976Y-69755346D01*
X23084070Y-69740930D01*
X23069654Y-69725024D01*
X23056866Y-69707781D01*
X23045830Y-69689368D01*
X23036651Y-69669962D01*
X23029419Y-69649750D01*
X23024203Y-69628926D01*
X23021053Y-69607691D01*
X23020000Y-69586250D01*
X23020000Y-69148750D01*
X23021053Y-69127309D01*
X23024203Y-69106074D01*
X23029419Y-69085250D01*
X23036651Y-69065038D01*
X23045830Y-69045632D01*
X23056866Y-69027219D01*
X23069654Y-69009976D01*
X23084070Y-68994070D01*
X23099976Y-68979654D01*
X23117219Y-68966866D01*
X23135632Y-68955830D01*
X23155038Y-68946651D01*
X23175250Y-68939419D01*
X23196074Y-68934203D01*
X23217309Y-68931053D01*
X23238750Y-68930000D01*
X23751250Y-68930000D01*
X23772691Y-68931053D01*
X23772691Y-68931053D01*
G37*
D13*
X23495000Y-69367500D03*
D12*
G36*
X45362691Y-82418553D02*
G01*
X45383926Y-82421703D01*
X45404750Y-82426919D01*
X45424962Y-82434151D01*
X45444368Y-82443330D01*
X45462781Y-82454366D01*
X45480024Y-82467154D01*
X45495930Y-82481570D01*
X45510346Y-82497476D01*
X45523134Y-82514719D01*
X45534170Y-82533132D01*
X45543349Y-82552538D01*
X45550581Y-82572750D01*
X45555797Y-82593574D01*
X45558947Y-82614809D01*
X45560000Y-82636250D01*
X45560000Y-83073750D01*
X45558947Y-83095191D01*
X45555797Y-83116426D01*
X45550581Y-83137250D01*
X45543349Y-83157462D01*
X45534170Y-83176868D01*
X45523134Y-83195281D01*
X45510346Y-83212524D01*
X45495930Y-83228430D01*
X45480024Y-83242846D01*
X45462781Y-83255634D01*
X45444368Y-83266670D01*
X45424962Y-83275849D01*
X45404750Y-83283081D01*
X45383926Y-83288297D01*
X45362691Y-83291447D01*
X45341250Y-83292500D01*
X44828750Y-83292500D01*
X44807309Y-83291447D01*
X44786074Y-83288297D01*
X44765250Y-83283081D01*
X44745038Y-83275849D01*
X44725632Y-83266670D01*
X44707219Y-83255634D01*
X44689976Y-83242846D01*
X44674070Y-83228430D01*
X44659654Y-83212524D01*
X44646866Y-83195281D01*
X44635830Y-83176868D01*
X44626651Y-83157462D01*
X44619419Y-83137250D01*
X44614203Y-83116426D01*
X44611053Y-83095191D01*
X44610000Y-83073750D01*
X44610000Y-82636250D01*
X44611053Y-82614809D01*
X44614203Y-82593574D01*
X44619419Y-82572750D01*
X44626651Y-82552538D01*
X44635830Y-82533132D01*
X44646866Y-82514719D01*
X44659654Y-82497476D01*
X44674070Y-82481570D01*
X44689976Y-82467154D01*
X44707219Y-82454366D01*
X44725632Y-82443330D01*
X44745038Y-82434151D01*
X44765250Y-82426919D01*
X44786074Y-82421703D01*
X44807309Y-82418553D01*
X44828750Y-82417500D01*
X45341250Y-82417500D01*
X45362691Y-82418553D01*
X45362691Y-82418553D01*
G37*
D13*
X45085000Y-82855000D03*
D12*
G36*
X45362691Y-80843553D02*
G01*
X45383926Y-80846703D01*
X45404750Y-80851919D01*
X45424962Y-80859151D01*
X45444368Y-80868330D01*
X45462781Y-80879366D01*
X45480024Y-80892154D01*
X45495930Y-80906570D01*
X45510346Y-80922476D01*
X45523134Y-80939719D01*
X45534170Y-80958132D01*
X45543349Y-80977538D01*
X45550581Y-80997750D01*
X45555797Y-81018574D01*
X45558947Y-81039809D01*
X45560000Y-81061250D01*
X45560000Y-81498750D01*
X45558947Y-81520191D01*
X45555797Y-81541426D01*
X45550581Y-81562250D01*
X45543349Y-81582462D01*
X45534170Y-81601868D01*
X45523134Y-81620281D01*
X45510346Y-81637524D01*
X45495930Y-81653430D01*
X45480024Y-81667846D01*
X45462781Y-81680634D01*
X45444368Y-81691670D01*
X45424962Y-81700849D01*
X45404750Y-81708081D01*
X45383926Y-81713297D01*
X45362691Y-81716447D01*
X45341250Y-81717500D01*
X44828750Y-81717500D01*
X44807309Y-81716447D01*
X44786074Y-81713297D01*
X44765250Y-81708081D01*
X44745038Y-81700849D01*
X44725632Y-81691670D01*
X44707219Y-81680634D01*
X44689976Y-81667846D01*
X44674070Y-81653430D01*
X44659654Y-81637524D01*
X44646866Y-81620281D01*
X44635830Y-81601868D01*
X44626651Y-81582462D01*
X44619419Y-81562250D01*
X44614203Y-81541426D01*
X44611053Y-81520191D01*
X44610000Y-81498750D01*
X44610000Y-81061250D01*
X44611053Y-81039809D01*
X44614203Y-81018574D01*
X44619419Y-80997750D01*
X44626651Y-80977538D01*
X44635830Y-80958132D01*
X44646866Y-80939719D01*
X44659654Y-80922476D01*
X44674070Y-80906570D01*
X44689976Y-80892154D01*
X44707219Y-80879366D01*
X44725632Y-80868330D01*
X44745038Y-80859151D01*
X44765250Y-80851919D01*
X44786074Y-80846703D01*
X44807309Y-80843553D01*
X44828750Y-80842500D01*
X45341250Y-80842500D01*
X45362691Y-80843553D01*
X45362691Y-80843553D01*
G37*
D13*
X45085000Y-81280000D03*
D12*
G36*
X48105142Y-69031174D02*
G01*
X48128803Y-69034684D01*
X48152007Y-69040496D01*
X48174529Y-69048554D01*
X48196153Y-69058782D01*
X48216670Y-69071079D01*
X48235883Y-69085329D01*
X48253607Y-69101393D01*
X48269671Y-69119117D01*
X48283921Y-69138330D01*
X48296218Y-69158847D01*
X48306446Y-69180471D01*
X48314504Y-69202993D01*
X48320316Y-69226197D01*
X48323826Y-69249858D01*
X48325000Y-69273750D01*
X48325000Y-69761250D01*
X48323826Y-69785142D01*
X48320316Y-69808803D01*
X48314504Y-69832007D01*
X48306446Y-69854529D01*
X48296218Y-69876153D01*
X48283921Y-69896670D01*
X48269671Y-69915883D01*
X48253607Y-69933607D01*
X48235883Y-69949671D01*
X48216670Y-69963921D01*
X48196153Y-69976218D01*
X48174529Y-69986446D01*
X48152007Y-69994504D01*
X48128803Y-70000316D01*
X48105142Y-70003826D01*
X48081250Y-70005000D01*
X47168750Y-70005000D01*
X47144858Y-70003826D01*
X47121197Y-70000316D01*
X47097993Y-69994504D01*
X47075471Y-69986446D01*
X47053847Y-69976218D01*
X47033330Y-69963921D01*
X47014117Y-69949671D01*
X46996393Y-69933607D01*
X46980329Y-69915883D01*
X46966079Y-69896670D01*
X46953782Y-69876153D01*
X46943554Y-69854529D01*
X46935496Y-69832007D01*
X46929684Y-69808803D01*
X46926174Y-69785142D01*
X46925000Y-69761250D01*
X46925000Y-69273750D01*
X46926174Y-69249858D01*
X46929684Y-69226197D01*
X46935496Y-69202993D01*
X46943554Y-69180471D01*
X46953782Y-69158847D01*
X46966079Y-69138330D01*
X46980329Y-69119117D01*
X46996393Y-69101393D01*
X47014117Y-69085329D01*
X47033330Y-69071079D01*
X47053847Y-69058782D01*
X47075471Y-69048554D01*
X47097993Y-69040496D01*
X47121197Y-69034684D01*
X47144858Y-69031174D01*
X47168750Y-69030000D01*
X48081250Y-69030000D01*
X48105142Y-69031174D01*
X48105142Y-69031174D01*
G37*
D14*
X47625000Y-69517500D03*
D12*
G36*
X48105142Y-67156174D02*
G01*
X48128803Y-67159684D01*
X48152007Y-67165496D01*
X48174529Y-67173554D01*
X48196153Y-67183782D01*
X48216670Y-67196079D01*
X48235883Y-67210329D01*
X48253607Y-67226393D01*
X48269671Y-67244117D01*
X48283921Y-67263330D01*
X48296218Y-67283847D01*
X48306446Y-67305471D01*
X48314504Y-67327993D01*
X48320316Y-67351197D01*
X48323826Y-67374858D01*
X48325000Y-67398750D01*
X48325000Y-67886250D01*
X48323826Y-67910142D01*
X48320316Y-67933803D01*
X48314504Y-67957007D01*
X48306446Y-67979529D01*
X48296218Y-68001153D01*
X48283921Y-68021670D01*
X48269671Y-68040883D01*
X48253607Y-68058607D01*
X48235883Y-68074671D01*
X48216670Y-68088921D01*
X48196153Y-68101218D01*
X48174529Y-68111446D01*
X48152007Y-68119504D01*
X48128803Y-68125316D01*
X48105142Y-68128826D01*
X48081250Y-68130000D01*
X47168750Y-68130000D01*
X47144858Y-68128826D01*
X47121197Y-68125316D01*
X47097993Y-68119504D01*
X47075471Y-68111446D01*
X47053847Y-68101218D01*
X47033330Y-68088921D01*
X47014117Y-68074671D01*
X46996393Y-68058607D01*
X46980329Y-68040883D01*
X46966079Y-68021670D01*
X46953782Y-68001153D01*
X46943554Y-67979529D01*
X46935496Y-67957007D01*
X46929684Y-67933803D01*
X46926174Y-67910142D01*
X46925000Y-67886250D01*
X46925000Y-67398750D01*
X46926174Y-67374858D01*
X46929684Y-67351197D01*
X46935496Y-67327993D01*
X46943554Y-67305471D01*
X46953782Y-67283847D01*
X46966079Y-67263330D01*
X46980329Y-67244117D01*
X46996393Y-67226393D01*
X47014117Y-67210329D01*
X47033330Y-67196079D01*
X47053847Y-67183782D01*
X47075471Y-67173554D01*
X47097993Y-67165496D01*
X47121197Y-67159684D01*
X47144858Y-67156174D01*
X47168750Y-67155000D01*
X48081250Y-67155000D01*
X48105142Y-67156174D01*
X48105142Y-67156174D01*
G37*
D14*
X47625000Y-67642500D03*
D12*
G36*
X58434504Y-70756204D02*
G01*
X58458773Y-70759804D01*
X58482571Y-70765765D01*
X58505671Y-70774030D01*
X58527849Y-70784520D01*
X58548893Y-70797133D01*
X58568598Y-70811747D01*
X58586777Y-70828223D01*
X58603253Y-70846402D01*
X58617867Y-70866107D01*
X58630480Y-70887151D01*
X58640970Y-70909329D01*
X58649235Y-70932429D01*
X58655196Y-70956227D01*
X58658796Y-70980496D01*
X58660000Y-71005000D01*
X58660000Y-71755000D01*
X58658796Y-71779504D01*
X58655196Y-71803773D01*
X58649235Y-71827571D01*
X58640970Y-71850671D01*
X58630480Y-71872849D01*
X58617867Y-71893893D01*
X58603253Y-71913598D01*
X58586777Y-71931777D01*
X58568598Y-71948253D01*
X58548893Y-71962867D01*
X58527849Y-71975480D01*
X58505671Y-71985970D01*
X58482571Y-71994235D01*
X58458773Y-72000196D01*
X58434504Y-72003796D01*
X58410000Y-72005000D01*
X57160000Y-72005000D01*
X57135496Y-72003796D01*
X57111227Y-72000196D01*
X57087429Y-71994235D01*
X57064329Y-71985970D01*
X57042151Y-71975480D01*
X57021107Y-71962867D01*
X57001402Y-71948253D01*
X56983223Y-71931777D01*
X56966747Y-71913598D01*
X56952133Y-71893893D01*
X56939520Y-71872849D01*
X56929030Y-71850671D01*
X56920765Y-71827571D01*
X56914804Y-71803773D01*
X56911204Y-71779504D01*
X56910000Y-71755000D01*
X56910000Y-71005000D01*
X56911204Y-70980496D01*
X56914804Y-70956227D01*
X56920765Y-70932429D01*
X56929030Y-70909329D01*
X56939520Y-70887151D01*
X56952133Y-70866107D01*
X56966747Y-70846402D01*
X56983223Y-70828223D01*
X57001402Y-70811747D01*
X57021107Y-70797133D01*
X57042151Y-70784520D01*
X57064329Y-70774030D01*
X57087429Y-70765765D01*
X57111227Y-70759804D01*
X57135496Y-70756204D01*
X57160000Y-70755000D01*
X58410000Y-70755000D01*
X58434504Y-70756204D01*
X58434504Y-70756204D01*
G37*
D15*
X57785000Y-71380000D03*
D12*
G36*
X58434504Y-67956204D02*
G01*
X58458773Y-67959804D01*
X58482571Y-67965765D01*
X58505671Y-67974030D01*
X58527849Y-67984520D01*
X58548893Y-67997133D01*
X58568598Y-68011747D01*
X58586777Y-68028223D01*
X58603253Y-68046402D01*
X58617867Y-68066107D01*
X58630480Y-68087151D01*
X58640970Y-68109329D01*
X58649235Y-68132429D01*
X58655196Y-68156227D01*
X58658796Y-68180496D01*
X58660000Y-68205000D01*
X58660000Y-68955000D01*
X58658796Y-68979504D01*
X58655196Y-69003773D01*
X58649235Y-69027571D01*
X58640970Y-69050671D01*
X58630480Y-69072849D01*
X58617867Y-69093893D01*
X58603253Y-69113598D01*
X58586777Y-69131777D01*
X58568598Y-69148253D01*
X58548893Y-69162867D01*
X58527849Y-69175480D01*
X58505671Y-69185970D01*
X58482571Y-69194235D01*
X58458773Y-69200196D01*
X58434504Y-69203796D01*
X58410000Y-69205000D01*
X57160000Y-69205000D01*
X57135496Y-69203796D01*
X57111227Y-69200196D01*
X57087429Y-69194235D01*
X57064329Y-69185970D01*
X57042151Y-69175480D01*
X57021107Y-69162867D01*
X57001402Y-69148253D01*
X56983223Y-69131777D01*
X56966747Y-69113598D01*
X56952133Y-69093893D01*
X56939520Y-69072849D01*
X56929030Y-69050671D01*
X56920765Y-69027571D01*
X56914804Y-69003773D01*
X56911204Y-68979504D01*
X56910000Y-68955000D01*
X56910000Y-68205000D01*
X56911204Y-68180496D01*
X56914804Y-68156227D01*
X56920765Y-68132429D01*
X56929030Y-68109329D01*
X56939520Y-68087151D01*
X56952133Y-68066107D01*
X56966747Y-68046402D01*
X56983223Y-68028223D01*
X57001402Y-68011747D01*
X57021107Y-67997133D01*
X57042151Y-67984520D01*
X57064329Y-67974030D01*
X57087429Y-67965765D01*
X57111227Y-67959804D01*
X57135496Y-67956204D01*
X57160000Y-67955000D01*
X58410000Y-67955000D01*
X58434504Y-67956204D01*
X58434504Y-67956204D01*
G37*
D15*
X57785000Y-68580000D03*
D12*
G36*
X42822691Y-80843553D02*
G01*
X42843926Y-80846703D01*
X42864750Y-80851919D01*
X42884962Y-80859151D01*
X42904368Y-80868330D01*
X42922781Y-80879366D01*
X42940024Y-80892154D01*
X42955930Y-80906570D01*
X42970346Y-80922476D01*
X42983134Y-80939719D01*
X42994170Y-80958132D01*
X43003349Y-80977538D01*
X43010581Y-80997750D01*
X43015797Y-81018574D01*
X43018947Y-81039809D01*
X43020000Y-81061250D01*
X43020000Y-81498750D01*
X43018947Y-81520191D01*
X43015797Y-81541426D01*
X43010581Y-81562250D01*
X43003349Y-81582462D01*
X42994170Y-81601868D01*
X42983134Y-81620281D01*
X42970346Y-81637524D01*
X42955930Y-81653430D01*
X42940024Y-81667846D01*
X42922781Y-81680634D01*
X42904368Y-81691670D01*
X42884962Y-81700849D01*
X42864750Y-81708081D01*
X42843926Y-81713297D01*
X42822691Y-81716447D01*
X42801250Y-81717500D01*
X42288750Y-81717500D01*
X42267309Y-81716447D01*
X42246074Y-81713297D01*
X42225250Y-81708081D01*
X42205038Y-81700849D01*
X42185632Y-81691670D01*
X42167219Y-81680634D01*
X42149976Y-81667846D01*
X42134070Y-81653430D01*
X42119654Y-81637524D01*
X42106866Y-81620281D01*
X42095830Y-81601868D01*
X42086651Y-81582462D01*
X42079419Y-81562250D01*
X42074203Y-81541426D01*
X42071053Y-81520191D01*
X42070000Y-81498750D01*
X42070000Y-81061250D01*
X42071053Y-81039809D01*
X42074203Y-81018574D01*
X42079419Y-80997750D01*
X42086651Y-80977538D01*
X42095830Y-80958132D01*
X42106866Y-80939719D01*
X42119654Y-80922476D01*
X42134070Y-80906570D01*
X42149976Y-80892154D01*
X42167219Y-80879366D01*
X42185632Y-80868330D01*
X42205038Y-80859151D01*
X42225250Y-80851919D01*
X42246074Y-80846703D01*
X42267309Y-80843553D01*
X42288750Y-80842500D01*
X42801250Y-80842500D01*
X42822691Y-80843553D01*
X42822691Y-80843553D01*
G37*
D13*
X42545000Y-81280000D03*
D12*
G36*
X42822691Y-82418553D02*
G01*
X42843926Y-82421703D01*
X42864750Y-82426919D01*
X42884962Y-82434151D01*
X42904368Y-82443330D01*
X42922781Y-82454366D01*
X42940024Y-82467154D01*
X42955930Y-82481570D01*
X42970346Y-82497476D01*
X42983134Y-82514719D01*
X42994170Y-82533132D01*
X43003349Y-82552538D01*
X43010581Y-82572750D01*
X43015797Y-82593574D01*
X43018947Y-82614809D01*
X43020000Y-82636250D01*
X43020000Y-83073750D01*
X43018947Y-83095191D01*
X43015797Y-83116426D01*
X43010581Y-83137250D01*
X43003349Y-83157462D01*
X42994170Y-83176868D01*
X42983134Y-83195281D01*
X42970346Y-83212524D01*
X42955930Y-83228430D01*
X42940024Y-83242846D01*
X42922781Y-83255634D01*
X42904368Y-83266670D01*
X42884962Y-83275849D01*
X42864750Y-83283081D01*
X42843926Y-83288297D01*
X42822691Y-83291447D01*
X42801250Y-83292500D01*
X42288750Y-83292500D01*
X42267309Y-83291447D01*
X42246074Y-83288297D01*
X42225250Y-83283081D01*
X42205038Y-83275849D01*
X42185632Y-83266670D01*
X42167219Y-83255634D01*
X42149976Y-83242846D01*
X42134070Y-83228430D01*
X42119654Y-83212524D01*
X42106866Y-83195281D01*
X42095830Y-83176868D01*
X42086651Y-83157462D01*
X42079419Y-83137250D01*
X42074203Y-83116426D01*
X42071053Y-83095191D01*
X42070000Y-83073750D01*
X42070000Y-82636250D01*
X42071053Y-82614809D01*
X42074203Y-82593574D01*
X42079419Y-82572750D01*
X42086651Y-82552538D01*
X42095830Y-82533132D01*
X42106866Y-82514719D01*
X42119654Y-82497476D01*
X42134070Y-82481570D01*
X42149976Y-82467154D01*
X42167219Y-82454366D01*
X42185632Y-82443330D01*
X42205038Y-82434151D01*
X42225250Y-82426919D01*
X42246074Y-82421703D01*
X42267309Y-82418553D01*
X42288750Y-82417500D01*
X42801250Y-82417500D01*
X42822691Y-82418553D01*
X42822691Y-82418553D01*
G37*
D13*
X42545000Y-82855000D03*
D16*
X48040000Y-71755000D03*
X45940000Y-71755000D03*
D12*
G36*
X53617691Y-73821053D02*
G01*
X53638926Y-73824203D01*
X53659750Y-73829419D01*
X53679962Y-73836651D01*
X53699368Y-73845830D01*
X53717781Y-73856866D01*
X53735024Y-73869654D01*
X53750930Y-73884070D01*
X53765346Y-73899976D01*
X53778134Y-73917219D01*
X53789170Y-73935632D01*
X53798349Y-73955038D01*
X53805581Y-73975250D01*
X53810797Y-73996074D01*
X53813947Y-74017309D01*
X53815000Y-74038750D01*
X53815000Y-74551250D01*
X53813947Y-74572691D01*
X53810797Y-74593926D01*
X53805581Y-74614750D01*
X53798349Y-74634962D01*
X53789170Y-74654368D01*
X53778134Y-74672781D01*
X53765346Y-74690024D01*
X53750930Y-74705930D01*
X53735024Y-74720346D01*
X53717781Y-74733134D01*
X53699368Y-74744170D01*
X53679962Y-74753349D01*
X53659750Y-74760581D01*
X53638926Y-74765797D01*
X53617691Y-74768947D01*
X53596250Y-74770000D01*
X53158750Y-74770000D01*
X53137309Y-74768947D01*
X53116074Y-74765797D01*
X53095250Y-74760581D01*
X53075038Y-74753349D01*
X53055632Y-74744170D01*
X53037219Y-74733134D01*
X53019976Y-74720346D01*
X53004070Y-74705930D01*
X52989654Y-74690024D01*
X52976866Y-74672781D01*
X52965830Y-74654368D01*
X52956651Y-74634962D01*
X52949419Y-74614750D01*
X52944203Y-74593926D01*
X52941053Y-74572691D01*
X52940000Y-74551250D01*
X52940000Y-74038750D01*
X52941053Y-74017309D01*
X52944203Y-73996074D01*
X52949419Y-73975250D01*
X52956651Y-73955038D01*
X52965830Y-73935632D01*
X52976866Y-73917219D01*
X52989654Y-73899976D01*
X53004070Y-73884070D01*
X53019976Y-73869654D01*
X53037219Y-73856866D01*
X53055632Y-73845830D01*
X53075038Y-73836651D01*
X53095250Y-73829419D01*
X53116074Y-73824203D01*
X53137309Y-73821053D01*
X53158750Y-73820000D01*
X53596250Y-73820000D01*
X53617691Y-73821053D01*
X53617691Y-73821053D01*
G37*
D13*
X53377500Y-74295000D03*
D12*
G36*
X55192691Y-73821053D02*
G01*
X55213926Y-73824203D01*
X55234750Y-73829419D01*
X55254962Y-73836651D01*
X55274368Y-73845830D01*
X55292781Y-73856866D01*
X55310024Y-73869654D01*
X55325930Y-73884070D01*
X55340346Y-73899976D01*
X55353134Y-73917219D01*
X55364170Y-73935632D01*
X55373349Y-73955038D01*
X55380581Y-73975250D01*
X55385797Y-73996074D01*
X55388947Y-74017309D01*
X55390000Y-74038750D01*
X55390000Y-74551250D01*
X55388947Y-74572691D01*
X55385797Y-74593926D01*
X55380581Y-74614750D01*
X55373349Y-74634962D01*
X55364170Y-74654368D01*
X55353134Y-74672781D01*
X55340346Y-74690024D01*
X55325930Y-74705930D01*
X55310024Y-74720346D01*
X55292781Y-74733134D01*
X55274368Y-74744170D01*
X55254962Y-74753349D01*
X55234750Y-74760581D01*
X55213926Y-74765797D01*
X55192691Y-74768947D01*
X55171250Y-74770000D01*
X54733750Y-74770000D01*
X54712309Y-74768947D01*
X54691074Y-74765797D01*
X54670250Y-74760581D01*
X54650038Y-74753349D01*
X54630632Y-74744170D01*
X54612219Y-74733134D01*
X54594976Y-74720346D01*
X54579070Y-74705930D01*
X54564654Y-74690024D01*
X54551866Y-74672781D01*
X54540830Y-74654368D01*
X54531651Y-74634962D01*
X54524419Y-74614750D01*
X54519203Y-74593926D01*
X54516053Y-74572691D01*
X54515000Y-74551250D01*
X54515000Y-74038750D01*
X54516053Y-74017309D01*
X54519203Y-73996074D01*
X54524419Y-73975250D01*
X54531651Y-73955038D01*
X54540830Y-73935632D01*
X54551866Y-73917219D01*
X54564654Y-73899976D01*
X54579070Y-73884070D01*
X54594976Y-73869654D01*
X54612219Y-73856866D01*
X54630632Y-73845830D01*
X54650038Y-73836651D01*
X54670250Y-73829419D01*
X54691074Y-73824203D01*
X54712309Y-73821053D01*
X54733750Y-73820000D01*
X55171250Y-73820000D01*
X55192691Y-73821053D01*
X55192691Y-73821053D01*
G37*
D13*
X54952500Y-74295000D03*
D17*
X56515000Y-80010000D03*
X57815000Y-80010000D03*
X57165000Y-78010000D03*
D18*
X51630000Y-68650000D03*
X51630000Y-69250000D03*
X51630000Y-69850000D03*
X51630000Y-70450000D03*
X51630000Y-71050000D03*
X54680000Y-71050000D03*
X54680000Y-70450000D03*
X54680000Y-69850000D03*
X54680000Y-69250000D03*
X54680000Y-68650000D03*
D19*
X53155000Y-69850000D03*
D20*
X32560000Y-89535000D03*
X35330000Y-89535000D03*
X38100000Y-89535000D03*
X40870000Y-89535000D03*
X43640000Y-89535000D03*
D21*
X29210000Y-80600000D03*
X29210000Y-84500000D03*
X27940000Y-80600000D03*
X27940000Y-84500000D03*
X26670000Y-80600000D03*
X26670000Y-84500000D03*
X25400000Y-80600000D03*
X25400000Y-84500000D03*
X24130000Y-80600000D03*
X24130000Y-84500000D03*
D12*
G36*
X58660191Y-73821053D02*
G01*
X58681426Y-73824203D01*
X58702250Y-73829419D01*
X58722462Y-73836651D01*
X58741868Y-73845830D01*
X58760281Y-73856866D01*
X58777524Y-73869654D01*
X58793430Y-73884070D01*
X58807846Y-73899976D01*
X58820634Y-73917219D01*
X58831670Y-73935632D01*
X58840849Y-73955038D01*
X58848081Y-73975250D01*
X58853297Y-73996074D01*
X58856447Y-74017309D01*
X58857500Y-74038750D01*
X58857500Y-74551250D01*
X58856447Y-74572691D01*
X58853297Y-74593926D01*
X58848081Y-74614750D01*
X58840849Y-74634962D01*
X58831670Y-74654368D01*
X58820634Y-74672781D01*
X58807846Y-74690024D01*
X58793430Y-74705930D01*
X58777524Y-74720346D01*
X58760281Y-74733134D01*
X58741868Y-74744170D01*
X58722462Y-74753349D01*
X58702250Y-74760581D01*
X58681426Y-74765797D01*
X58660191Y-74768947D01*
X58638750Y-74770000D01*
X58201250Y-74770000D01*
X58179809Y-74768947D01*
X58158574Y-74765797D01*
X58137750Y-74760581D01*
X58117538Y-74753349D01*
X58098132Y-74744170D01*
X58079719Y-74733134D01*
X58062476Y-74720346D01*
X58046570Y-74705930D01*
X58032154Y-74690024D01*
X58019366Y-74672781D01*
X58008330Y-74654368D01*
X57999151Y-74634962D01*
X57991919Y-74614750D01*
X57986703Y-74593926D01*
X57983553Y-74572691D01*
X57982500Y-74551250D01*
X57982500Y-74038750D01*
X57983553Y-74017309D01*
X57986703Y-73996074D01*
X57991919Y-73975250D01*
X57999151Y-73955038D01*
X58008330Y-73935632D01*
X58019366Y-73917219D01*
X58032154Y-73899976D01*
X58046570Y-73884070D01*
X58062476Y-73869654D01*
X58079719Y-73856866D01*
X58098132Y-73845830D01*
X58117538Y-73836651D01*
X58137750Y-73829419D01*
X58158574Y-73824203D01*
X58179809Y-73821053D01*
X58201250Y-73820000D01*
X58638750Y-73820000D01*
X58660191Y-73821053D01*
X58660191Y-73821053D01*
G37*
D13*
X58420000Y-74295000D03*
D12*
G36*
X57085191Y-73821053D02*
G01*
X57106426Y-73824203D01*
X57127250Y-73829419D01*
X57147462Y-73836651D01*
X57166868Y-73845830D01*
X57185281Y-73856866D01*
X57202524Y-73869654D01*
X57218430Y-73884070D01*
X57232846Y-73899976D01*
X57245634Y-73917219D01*
X57256670Y-73935632D01*
X57265849Y-73955038D01*
X57273081Y-73975250D01*
X57278297Y-73996074D01*
X57281447Y-74017309D01*
X57282500Y-74038750D01*
X57282500Y-74551250D01*
X57281447Y-74572691D01*
X57278297Y-74593926D01*
X57273081Y-74614750D01*
X57265849Y-74634962D01*
X57256670Y-74654368D01*
X57245634Y-74672781D01*
X57232846Y-74690024D01*
X57218430Y-74705930D01*
X57202524Y-74720346D01*
X57185281Y-74733134D01*
X57166868Y-74744170D01*
X57147462Y-74753349D01*
X57127250Y-74760581D01*
X57106426Y-74765797D01*
X57085191Y-74768947D01*
X57063750Y-74770000D01*
X56626250Y-74770000D01*
X56604809Y-74768947D01*
X56583574Y-74765797D01*
X56562750Y-74760581D01*
X56542538Y-74753349D01*
X56523132Y-74744170D01*
X56504719Y-74733134D01*
X56487476Y-74720346D01*
X56471570Y-74705930D01*
X56457154Y-74690024D01*
X56444366Y-74672781D01*
X56433330Y-74654368D01*
X56424151Y-74634962D01*
X56416919Y-74614750D01*
X56411703Y-74593926D01*
X56408553Y-74572691D01*
X56407500Y-74551250D01*
X56407500Y-74038750D01*
X56408553Y-74017309D01*
X56411703Y-73996074D01*
X56416919Y-73975250D01*
X56424151Y-73955038D01*
X56433330Y-73935632D01*
X56444366Y-73917219D01*
X56457154Y-73899976D01*
X56471570Y-73884070D01*
X56487476Y-73869654D01*
X56504719Y-73856866D01*
X56523132Y-73845830D01*
X56542538Y-73836651D01*
X56562750Y-73829419D01*
X56583574Y-73824203D01*
X56604809Y-73821053D01*
X56626250Y-73820000D01*
X57063750Y-73820000D01*
X57085191Y-73821053D01*
X57085191Y-73821053D01*
G37*
D13*
X56845000Y-74295000D03*
D12*
G36*
X19620191Y-70011053D02*
G01*
X19641426Y-70014203D01*
X19662250Y-70019419D01*
X19682462Y-70026651D01*
X19701868Y-70035830D01*
X19720281Y-70046866D01*
X19737524Y-70059654D01*
X19753430Y-70074070D01*
X19767846Y-70089976D01*
X19780634Y-70107219D01*
X19791670Y-70125632D01*
X19800849Y-70145038D01*
X19808081Y-70165250D01*
X19813297Y-70186074D01*
X19816447Y-70207309D01*
X19817500Y-70228750D01*
X19817500Y-70741250D01*
X19816447Y-70762691D01*
X19813297Y-70783926D01*
X19808081Y-70804750D01*
X19800849Y-70824962D01*
X19791670Y-70844368D01*
X19780634Y-70862781D01*
X19767846Y-70880024D01*
X19753430Y-70895930D01*
X19737524Y-70910346D01*
X19720281Y-70923134D01*
X19701868Y-70934170D01*
X19682462Y-70943349D01*
X19662250Y-70950581D01*
X19641426Y-70955797D01*
X19620191Y-70958947D01*
X19598750Y-70960000D01*
X19161250Y-70960000D01*
X19139809Y-70958947D01*
X19118574Y-70955797D01*
X19097750Y-70950581D01*
X19077538Y-70943349D01*
X19058132Y-70934170D01*
X19039719Y-70923134D01*
X19022476Y-70910346D01*
X19006570Y-70895930D01*
X18992154Y-70880024D01*
X18979366Y-70862781D01*
X18968330Y-70844368D01*
X18959151Y-70824962D01*
X18951919Y-70804750D01*
X18946703Y-70783926D01*
X18943553Y-70762691D01*
X18942500Y-70741250D01*
X18942500Y-70228750D01*
X18943553Y-70207309D01*
X18946703Y-70186074D01*
X18951919Y-70165250D01*
X18959151Y-70145038D01*
X18968330Y-70125632D01*
X18979366Y-70107219D01*
X18992154Y-70089976D01*
X19006570Y-70074070D01*
X19022476Y-70059654D01*
X19039719Y-70046866D01*
X19058132Y-70035830D01*
X19077538Y-70026651D01*
X19097750Y-70019419D01*
X19118574Y-70014203D01*
X19139809Y-70011053D01*
X19161250Y-70010000D01*
X19598750Y-70010000D01*
X19620191Y-70011053D01*
X19620191Y-70011053D01*
G37*
D13*
X19380000Y-70485000D03*
D12*
G36*
X21195191Y-70011053D02*
G01*
X21216426Y-70014203D01*
X21237250Y-70019419D01*
X21257462Y-70026651D01*
X21276868Y-70035830D01*
X21295281Y-70046866D01*
X21312524Y-70059654D01*
X21328430Y-70074070D01*
X21342846Y-70089976D01*
X21355634Y-70107219D01*
X21366670Y-70125632D01*
X21375849Y-70145038D01*
X21383081Y-70165250D01*
X21388297Y-70186074D01*
X21391447Y-70207309D01*
X21392500Y-70228750D01*
X21392500Y-70741250D01*
X21391447Y-70762691D01*
X21388297Y-70783926D01*
X21383081Y-70804750D01*
X21375849Y-70824962D01*
X21366670Y-70844368D01*
X21355634Y-70862781D01*
X21342846Y-70880024D01*
X21328430Y-70895930D01*
X21312524Y-70910346D01*
X21295281Y-70923134D01*
X21276868Y-70934170D01*
X21257462Y-70943349D01*
X21237250Y-70950581D01*
X21216426Y-70955797D01*
X21195191Y-70958947D01*
X21173750Y-70960000D01*
X20736250Y-70960000D01*
X20714809Y-70958947D01*
X20693574Y-70955797D01*
X20672750Y-70950581D01*
X20652538Y-70943349D01*
X20633132Y-70934170D01*
X20614719Y-70923134D01*
X20597476Y-70910346D01*
X20581570Y-70895930D01*
X20567154Y-70880024D01*
X20554366Y-70862781D01*
X20543330Y-70844368D01*
X20534151Y-70824962D01*
X20526919Y-70804750D01*
X20521703Y-70783926D01*
X20518553Y-70762691D01*
X20517500Y-70741250D01*
X20517500Y-70228750D01*
X20518553Y-70207309D01*
X20521703Y-70186074D01*
X20526919Y-70165250D01*
X20534151Y-70145038D01*
X20543330Y-70125632D01*
X20554366Y-70107219D01*
X20567154Y-70089976D01*
X20581570Y-70074070D01*
X20597476Y-70059654D01*
X20614719Y-70046866D01*
X20633132Y-70035830D01*
X20652538Y-70026651D01*
X20672750Y-70019419D01*
X20693574Y-70014203D01*
X20714809Y-70011053D01*
X20736250Y-70010000D01*
X21173750Y-70010000D01*
X21195191Y-70011053D01*
X21195191Y-70011053D01*
G37*
D13*
X20955000Y-70485000D03*
D12*
G36*
X49164703Y-79710722D02*
G01*
X49179264Y-79712882D01*
X49193543Y-79716459D01*
X49207403Y-79721418D01*
X49220710Y-79727712D01*
X49233336Y-79735280D01*
X49245159Y-79744048D01*
X49256066Y-79753934D01*
X49265952Y-79764841D01*
X49274720Y-79776664D01*
X49282288Y-79789290D01*
X49288582Y-79802597D01*
X49293541Y-79816457D01*
X49297118Y-79830736D01*
X49299278Y-79845297D01*
X49300000Y-79860000D01*
X49300000Y-80160000D01*
X49299278Y-80174703D01*
X49297118Y-80189264D01*
X49293541Y-80203543D01*
X49288582Y-80217403D01*
X49282288Y-80230710D01*
X49274720Y-80243336D01*
X49265952Y-80255159D01*
X49256066Y-80266066D01*
X49245159Y-80275952D01*
X49233336Y-80284720D01*
X49220710Y-80292288D01*
X49207403Y-80298582D01*
X49193543Y-80303541D01*
X49179264Y-80307118D01*
X49164703Y-80309278D01*
X49150000Y-80310000D01*
X47500000Y-80310000D01*
X47485297Y-80309278D01*
X47470736Y-80307118D01*
X47456457Y-80303541D01*
X47442597Y-80298582D01*
X47429290Y-80292288D01*
X47416664Y-80284720D01*
X47404841Y-80275952D01*
X47393934Y-80266066D01*
X47384048Y-80255159D01*
X47375280Y-80243336D01*
X47367712Y-80230710D01*
X47361418Y-80217403D01*
X47356459Y-80203543D01*
X47352882Y-80189264D01*
X47350722Y-80174703D01*
X47350000Y-80160000D01*
X47350000Y-79860000D01*
X47350722Y-79845297D01*
X47352882Y-79830736D01*
X47356459Y-79816457D01*
X47361418Y-79802597D01*
X47367712Y-79789290D01*
X47375280Y-79776664D01*
X47384048Y-79764841D01*
X47393934Y-79753934D01*
X47404841Y-79744048D01*
X47416664Y-79735280D01*
X47429290Y-79727712D01*
X47442597Y-79721418D01*
X47456457Y-79716459D01*
X47470736Y-79712882D01*
X47485297Y-79710722D01*
X47500000Y-79710000D01*
X49150000Y-79710000D01*
X49164703Y-79710722D01*
X49164703Y-79710722D01*
G37*
D22*
X48325000Y-80010000D03*
D12*
G36*
X49164703Y-80980722D02*
G01*
X49179264Y-80982882D01*
X49193543Y-80986459D01*
X49207403Y-80991418D01*
X49220710Y-80997712D01*
X49233336Y-81005280D01*
X49245159Y-81014048D01*
X49256066Y-81023934D01*
X49265952Y-81034841D01*
X49274720Y-81046664D01*
X49282288Y-81059290D01*
X49288582Y-81072597D01*
X49293541Y-81086457D01*
X49297118Y-81100736D01*
X49299278Y-81115297D01*
X49300000Y-81130000D01*
X49300000Y-81430000D01*
X49299278Y-81444703D01*
X49297118Y-81459264D01*
X49293541Y-81473543D01*
X49288582Y-81487403D01*
X49282288Y-81500710D01*
X49274720Y-81513336D01*
X49265952Y-81525159D01*
X49256066Y-81536066D01*
X49245159Y-81545952D01*
X49233336Y-81554720D01*
X49220710Y-81562288D01*
X49207403Y-81568582D01*
X49193543Y-81573541D01*
X49179264Y-81577118D01*
X49164703Y-81579278D01*
X49150000Y-81580000D01*
X47500000Y-81580000D01*
X47485297Y-81579278D01*
X47470736Y-81577118D01*
X47456457Y-81573541D01*
X47442597Y-81568582D01*
X47429290Y-81562288D01*
X47416664Y-81554720D01*
X47404841Y-81545952D01*
X47393934Y-81536066D01*
X47384048Y-81525159D01*
X47375280Y-81513336D01*
X47367712Y-81500710D01*
X47361418Y-81487403D01*
X47356459Y-81473543D01*
X47352882Y-81459264D01*
X47350722Y-81444703D01*
X47350000Y-81430000D01*
X47350000Y-81130000D01*
X47350722Y-81115297D01*
X47352882Y-81100736D01*
X47356459Y-81086457D01*
X47361418Y-81072597D01*
X47367712Y-81059290D01*
X47375280Y-81046664D01*
X47384048Y-81034841D01*
X47393934Y-81023934D01*
X47404841Y-81014048D01*
X47416664Y-81005280D01*
X47429290Y-80997712D01*
X47442597Y-80991418D01*
X47456457Y-80986459D01*
X47470736Y-80982882D01*
X47485297Y-80980722D01*
X47500000Y-80980000D01*
X49150000Y-80980000D01*
X49164703Y-80980722D01*
X49164703Y-80980722D01*
G37*
D22*
X48325000Y-81280000D03*
D12*
G36*
X49164703Y-82250722D02*
G01*
X49179264Y-82252882D01*
X49193543Y-82256459D01*
X49207403Y-82261418D01*
X49220710Y-82267712D01*
X49233336Y-82275280D01*
X49245159Y-82284048D01*
X49256066Y-82293934D01*
X49265952Y-82304841D01*
X49274720Y-82316664D01*
X49282288Y-82329290D01*
X49288582Y-82342597D01*
X49293541Y-82356457D01*
X49297118Y-82370736D01*
X49299278Y-82385297D01*
X49300000Y-82400000D01*
X49300000Y-82700000D01*
X49299278Y-82714703D01*
X49297118Y-82729264D01*
X49293541Y-82743543D01*
X49288582Y-82757403D01*
X49282288Y-82770710D01*
X49274720Y-82783336D01*
X49265952Y-82795159D01*
X49256066Y-82806066D01*
X49245159Y-82815952D01*
X49233336Y-82824720D01*
X49220710Y-82832288D01*
X49207403Y-82838582D01*
X49193543Y-82843541D01*
X49179264Y-82847118D01*
X49164703Y-82849278D01*
X49150000Y-82850000D01*
X47500000Y-82850000D01*
X47485297Y-82849278D01*
X47470736Y-82847118D01*
X47456457Y-82843541D01*
X47442597Y-82838582D01*
X47429290Y-82832288D01*
X47416664Y-82824720D01*
X47404841Y-82815952D01*
X47393934Y-82806066D01*
X47384048Y-82795159D01*
X47375280Y-82783336D01*
X47367712Y-82770710D01*
X47361418Y-82757403D01*
X47356459Y-82743543D01*
X47352882Y-82729264D01*
X47350722Y-82714703D01*
X47350000Y-82700000D01*
X47350000Y-82400000D01*
X47350722Y-82385297D01*
X47352882Y-82370736D01*
X47356459Y-82356457D01*
X47361418Y-82342597D01*
X47367712Y-82329290D01*
X47375280Y-82316664D01*
X47384048Y-82304841D01*
X47393934Y-82293934D01*
X47404841Y-82284048D01*
X47416664Y-82275280D01*
X47429290Y-82267712D01*
X47442597Y-82261418D01*
X47456457Y-82256459D01*
X47470736Y-82252882D01*
X47485297Y-82250722D01*
X47500000Y-82250000D01*
X49150000Y-82250000D01*
X49164703Y-82250722D01*
X49164703Y-82250722D01*
G37*
D22*
X48325000Y-82550000D03*
D12*
G36*
X49164703Y-83520722D02*
G01*
X49179264Y-83522882D01*
X49193543Y-83526459D01*
X49207403Y-83531418D01*
X49220710Y-83537712D01*
X49233336Y-83545280D01*
X49245159Y-83554048D01*
X49256066Y-83563934D01*
X49265952Y-83574841D01*
X49274720Y-83586664D01*
X49282288Y-83599290D01*
X49288582Y-83612597D01*
X49293541Y-83626457D01*
X49297118Y-83640736D01*
X49299278Y-83655297D01*
X49300000Y-83670000D01*
X49300000Y-83970000D01*
X49299278Y-83984703D01*
X49297118Y-83999264D01*
X49293541Y-84013543D01*
X49288582Y-84027403D01*
X49282288Y-84040710D01*
X49274720Y-84053336D01*
X49265952Y-84065159D01*
X49256066Y-84076066D01*
X49245159Y-84085952D01*
X49233336Y-84094720D01*
X49220710Y-84102288D01*
X49207403Y-84108582D01*
X49193543Y-84113541D01*
X49179264Y-84117118D01*
X49164703Y-84119278D01*
X49150000Y-84120000D01*
X47500000Y-84120000D01*
X47485297Y-84119278D01*
X47470736Y-84117118D01*
X47456457Y-84113541D01*
X47442597Y-84108582D01*
X47429290Y-84102288D01*
X47416664Y-84094720D01*
X47404841Y-84085952D01*
X47393934Y-84076066D01*
X47384048Y-84065159D01*
X47375280Y-84053336D01*
X47367712Y-84040710D01*
X47361418Y-84027403D01*
X47356459Y-84013543D01*
X47352882Y-83999264D01*
X47350722Y-83984703D01*
X47350000Y-83970000D01*
X47350000Y-83670000D01*
X47350722Y-83655297D01*
X47352882Y-83640736D01*
X47356459Y-83626457D01*
X47361418Y-83612597D01*
X47367712Y-83599290D01*
X47375280Y-83586664D01*
X47384048Y-83574841D01*
X47393934Y-83563934D01*
X47404841Y-83554048D01*
X47416664Y-83545280D01*
X47429290Y-83537712D01*
X47442597Y-83531418D01*
X47456457Y-83526459D01*
X47470736Y-83522882D01*
X47485297Y-83520722D01*
X47500000Y-83520000D01*
X49150000Y-83520000D01*
X49164703Y-83520722D01*
X49164703Y-83520722D01*
G37*
D22*
X48325000Y-83820000D03*
D12*
G36*
X54114703Y-83520722D02*
G01*
X54129264Y-83522882D01*
X54143543Y-83526459D01*
X54157403Y-83531418D01*
X54170710Y-83537712D01*
X54183336Y-83545280D01*
X54195159Y-83554048D01*
X54206066Y-83563934D01*
X54215952Y-83574841D01*
X54224720Y-83586664D01*
X54232288Y-83599290D01*
X54238582Y-83612597D01*
X54243541Y-83626457D01*
X54247118Y-83640736D01*
X54249278Y-83655297D01*
X54250000Y-83670000D01*
X54250000Y-83970000D01*
X54249278Y-83984703D01*
X54247118Y-83999264D01*
X54243541Y-84013543D01*
X54238582Y-84027403D01*
X54232288Y-84040710D01*
X54224720Y-84053336D01*
X54215952Y-84065159D01*
X54206066Y-84076066D01*
X54195159Y-84085952D01*
X54183336Y-84094720D01*
X54170710Y-84102288D01*
X54157403Y-84108582D01*
X54143543Y-84113541D01*
X54129264Y-84117118D01*
X54114703Y-84119278D01*
X54100000Y-84120000D01*
X52450000Y-84120000D01*
X52435297Y-84119278D01*
X52420736Y-84117118D01*
X52406457Y-84113541D01*
X52392597Y-84108582D01*
X52379290Y-84102288D01*
X52366664Y-84094720D01*
X52354841Y-84085952D01*
X52343934Y-84076066D01*
X52334048Y-84065159D01*
X52325280Y-84053336D01*
X52317712Y-84040710D01*
X52311418Y-84027403D01*
X52306459Y-84013543D01*
X52302882Y-83999264D01*
X52300722Y-83984703D01*
X52300000Y-83970000D01*
X52300000Y-83670000D01*
X52300722Y-83655297D01*
X52302882Y-83640736D01*
X52306459Y-83626457D01*
X52311418Y-83612597D01*
X52317712Y-83599290D01*
X52325280Y-83586664D01*
X52334048Y-83574841D01*
X52343934Y-83563934D01*
X52354841Y-83554048D01*
X52366664Y-83545280D01*
X52379290Y-83537712D01*
X52392597Y-83531418D01*
X52406457Y-83526459D01*
X52420736Y-83522882D01*
X52435297Y-83520722D01*
X52450000Y-83520000D01*
X54100000Y-83520000D01*
X54114703Y-83520722D01*
X54114703Y-83520722D01*
G37*
D22*
X53275000Y-83820000D03*
D12*
G36*
X54114703Y-82250722D02*
G01*
X54129264Y-82252882D01*
X54143543Y-82256459D01*
X54157403Y-82261418D01*
X54170710Y-82267712D01*
X54183336Y-82275280D01*
X54195159Y-82284048D01*
X54206066Y-82293934D01*
X54215952Y-82304841D01*
X54224720Y-82316664D01*
X54232288Y-82329290D01*
X54238582Y-82342597D01*
X54243541Y-82356457D01*
X54247118Y-82370736D01*
X54249278Y-82385297D01*
X54250000Y-82400000D01*
X54250000Y-82700000D01*
X54249278Y-82714703D01*
X54247118Y-82729264D01*
X54243541Y-82743543D01*
X54238582Y-82757403D01*
X54232288Y-82770710D01*
X54224720Y-82783336D01*
X54215952Y-82795159D01*
X54206066Y-82806066D01*
X54195159Y-82815952D01*
X54183336Y-82824720D01*
X54170710Y-82832288D01*
X54157403Y-82838582D01*
X54143543Y-82843541D01*
X54129264Y-82847118D01*
X54114703Y-82849278D01*
X54100000Y-82850000D01*
X52450000Y-82850000D01*
X52435297Y-82849278D01*
X52420736Y-82847118D01*
X52406457Y-82843541D01*
X52392597Y-82838582D01*
X52379290Y-82832288D01*
X52366664Y-82824720D01*
X52354841Y-82815952D01*
X52343934Y-82806066D01*
X52334048Y-82795159D01*
X52325280Y-82783336D01*
X52317712Y-82770710D01*
X52311418Y-82757403D01*
X52306459Y-82743543D01*
X52302882Y-82729264D01*
X52300722Y-82714703D01*
X52300000Y-82700000D01*
X52300000Y-82400000D01*
X52300722Y-82385297D01*
X52302882Y-82370736D01*
X52306459Y-82356457D01*
X52311418Y-82342597D01*
X52317712Y-82329290D01*
X52325280Y-82316664D01*
X52334048Y-82304841D01*
X52343934Y-82293934D01*
X52354841Y-82284048D01*
X52366664Y-82275280D01*
X52379290Y-82267712D01*
X52392597Y-82261418D01*
X52406457Y-82256459D01*
X52420736Y-82252882D01*
X52435297Y-82250722D01*
X52450000Y-82250000D01*
X54100000Y-82250000D01*
X54114703Y-82250722D01*
X54114703Y-82250722D01*
G37*
D22*
X53275000Y-82550000D03*
D12*
G36*
X54114703Y-80980722D02*
G01*
X54129264Y-80982882D01*
X54143543Y-80986459D01*
X54157403Y-80991418D01*
X54170710Y-80997712D01*
X54183336Y-81005280D01*
X54195159Y-81014048D01*
X54206066Y-81023934D01*
X54215952Y-81034841D01*
X54224720Y-81046664D01*
X54232288Y-81059290D01*
X54238582Y-81072597D01*
X54243541Y-81086457D01*
X54247118Y-81100736D01*
X54249278Y-81115297D01*
X54250000Y-81130000D01*
X54250000Y-81430000D01*
X54249278Y-81444703D01*
X54247118Y-81459264D01*
X54243541Y-81473543D01*
X54238582Y-81487403D01*
X54232288Y-81500710D01*
X54224720Y-81513336D01*
X54215952Y-81525159D01*
X54206066Y-81536066D01*
X54195159Y-81545952D01*
X54183336Y-81554720D01*
X54170710Y-81562288D01*
X54157403Y-81568582D01*
X54143543Y-81573541D01*
X54129264Y-81577118D01*
X54114703Y-81579278D01*
X54100000Y-81580000D01*
X52450000Y-81580000D01*
X52435297Y-81579278D01*
X52420736Y-81577118D01*
X52406457Y-81573541D01*
X52392597Y-81568582D01*
X52379290Y-81562288D01*
X52366664Y-81554720D01*
X52354841Y-81545952D01*
X52343934Y-81536066D01*
X52334048Y-81525159D01*
X52325280Y-81513336D01*
X52317712Y-81500710D01*
X52311418Y-81487403D01*
X52306459Y-81473543D01*
X52302882Y-81459264D01*
X52300722Y-81444703D01*
X52300000Y-81430000D01*
X52300000Y-81130000D01*
X52300722Y-81115297D01*
X52302882Y-81100736D01*
X52306459Y-81086457D01*
X52311418Y-81072597D01*
X52317712Y-81059290D01*
X52325280Y-81046664D01*
X52334048Y-81034841D01*
X52343934Y-81023934D01*
X52354841Y-81014048D01*
X52366664Y-81005280D01*
X52379290Y-80997712D01*
X52392597Y-80991418D01*
X52406457Y-80986459D01*
X52420736Y-80982882D01*
X52435297Y-80980722D01*
X52450000Y-80980000D01*
X54100000Y-80980000D01*
X54114703Y-80980722D01*
X54114703Y-80980722D01*
G37*
D22*
X53275000Y-81280000D03*
D12*
G36*
X54114703Y-79710722D02*
G01*
X54129264Y-79712882D01*
X54143543Y-79716459D01*
X54157403Y-79721418D01*
X54170710Y-79727712D01*
X54183336Y-79735280D01*
X54195159Y-79744048D01*
X54206066Y-79753934D01*
X54215952Y-79764841D01*
X54224720Y-79776664D01*
X54232288Y-79789290D01*
X54238582Y-79802597D01*
X54243541Y-79816457D01*
X54247118Y-79830736D01*
X54249278Y-79845297D01*
X54250000Y-79860000D01*
X54250000Y-80160000D01*
X54249278Y-80174703D01*
X54247118Y-80189264D01*
X54243541Y-80203543D01*
X54238582Y-80217403D01*
X54232288Y-80230710D01*
X54224720Y-80243336D01*
X54215952Y-80255159D01*
X54206066Y-80266066D01*
X54195159Y-80275952D01*
X54183336Y-80284720D01*
X54170710Y-80292288D01*
X54157403Y-80298582D01*
X54143543Y-80303541D01*
X54129264Y-80307118D01*
X54114703Y-80309278D01*
X54100000Y-80310000D01*
X52450000Y-80310000D01*
X52435297Y-80309278D01*
X52420736Y-80307118D01*
X52406457Y-80303541D01*
X52392597Y-80298582D01*
X52379290Y-80292288D01*
X52366664Y-80284720D01*
X52354841Y-80275952D01*
X52343934Y-80266066D01*
X52334048Y-80255159D01*
X52325280Y-80243336D01*
X52317712Y-80230710D01*
X52311418Y-80217403D01*
X52306459Y-80203543D01*
X52302882Y-80189264D01*
X52300722Y-80174703D01*
X52300000Y-80160000D01*
X52300000Y-79860000D01*
X52300722Y-79845297D01*
X52302882Y-79830736D01*
X52306459Y-79816457D01*
X52311418Y-79802597D01*
X52317712Y-79789290D01*
X52325280Y-79776664D01*
X52334048Y-79764841D01*
X52343934Y-79753934D01*
X52354841Y-79744048D01*
X52366664Y-79735280D01*
X52379290Y-79727712D01*
X52392597Y-79721418D01*
X52406457Y-79716459D01*
X52420736Y-79712882D01*
X52435297Y-79710722D01*
X52450000Y-79710000D01*
X54100000Y-79710000D01*
X54114703Y-79710722D01*
X54114703Y-79710722D01*
G37*
D22*
X53275000Y-80010000D03*
D23*
X35505000Y-68580000D03*
X31805000Y-68580000D03*
M02*
