G04 #@! TF.GenerationSoftware,KiCad,Pcbnew,(5.1.2)-1*
G04 #@! TF.CreationDate,2019-06-16T12:12:28+02:00*
G04 #@! TF.ProjectId,STM32CAN,53544d33-3243-4414-9e2e-6b696361645f,rev?*
G04 #@! TF.SameCoordinates,Original*
G04 #@! TF.FileFunction,Legend,Bot*
G04 #@! TF.FilePolarity,Positive*
%FSLAX46Y46*%
G04 Gerber Fmt 4.6, Leading zero omitted, Abs format (unit mm)*
G04 Created by KiCad (PCBNEW (5.1.2)-1) date 2019-06-16 12:12:28*
%MOMM*%
%LPD*%
G04 APERTURE LIST*
%ADD10C,0.300000*%
%ADD11C,0.100000*%
G04 APERTURE END LIST*
D10*
X41231428Y-83864666D02*
X42731428Y-83864666D01*
X42731428Y-84359904D01*
X42660000Y-84483714D01*
X42588571Y-84545619D01*
X42445714Y-84607523D01*
X42231428Y-84607523D01*
X42088571Y-84545619D01*
X42017142Y-84483714D01*
X41945714Y-84359904D01*
X41945714Y-83864666D01*
X42731428Y-85040857D02*
X41231428Y-85350380D01*
X42302857Y-85598000D01*
X41231428Y-85845619D01*
X42731428Y-86155142D01*
X41231428Y-87393238D02*
X41945714Y-86959904D01*
X41231428Y-86650380D02*
X42731428Y-86650380D01*
X42731428Y-87145619D01*
X42660000Y-87269428D01*
X42588571Y-87331333D01*
X42445714Y-87393238D01*
X42231428Y-87393238D01*
X42088571Y-87331333D01*
X42017142Y-87269428D01*
X41945714Y-87145619D01*
X41945714Y-86650380D01*
X37111714Y-80633428D02*
X37183142Y-80562000D01*
X37254571Y-80347714D01*
X37254571Y-80204857D01*
X37183142Y-79990571D01*
X37040285Y-79847714D01*
X36897428Y-79776285D01*
X36611714Y-79704857D01*
X36397428Y-79704857D01*
X36111714Y-79776285D01*
X35968857Y-79847714D01*
X35826000Y-79990571D01*
X35754571Y-80204857D01*
X35754571Y-80347714D01*
X35826000Y-80562000D01*
X35897428Y-80633428D01*
X36826000Y-81204857D02*
X36826000Y-81919142D01*
X37254571Y-81062000D02*
X35754571Y-81562000D01*
X37254571Y-82062000D01*
X37254571Y-82562000D02*
X35754571Y-82562000D01*
X37254571Y-83419142D01*
X35754571Y-83419142D01*
X36683142Y-84133428D02*
X36683142Y-85276285D01*
X37254571Y-85990571D02*
X35754571Y-85990571D01*
X36468857Y-85990571D02*
X36468857Y-86847714D01*
X37254571Y-86847714D02*
X35754571Y-86847714D01*
X33286000Y-83693142D02*
X33214571Y-83550285D01*
X33214571Y-83336000D01*
X33286000Y-83121714D01*
X33428857Y-82978857D01*
X33571714Y-82907428D01*
X33857428Y-82836000D01*
X34071714Y-82836000D01*
X34357428Y-82907428D01*
X34500285Y-82978857D01*
X34643142Y-83121714D01*
X34714571Y-83336000D01*
X34714571Y-83478857D01*
X34643142Y-83693142D01*
X34571714Y-83764571D01*
X34071714Y-83764571D01*
X34071714Y-83478857D01*
X34714571Y-84407428D02*
X33214571Y-84407428D01*
X34714571Y-85264571D01*
X33214571Y-85264571D01*
X34714571Y-85978857D02*
X33214571Y-85978857D01*
X33214571Y-86336000D01*
X33286000Y-86550285D01*
X33428857Y-86693142D01*
X33571714Y-86764571D01*
X33857428Y-86836000D01*
X34071714Y-86836000D01*
X34357428Y-86764571D01*
X34500285Y-86693142D01*
X34643142Y-86550285D01*
X34714571Y-86336000D01*
X34714571Y-85978857D01*
D11*
G36*
X46612000Y-24000000D02*
G01*
X46612000Y-23500000D01*
X47112000Y-23500000D01*
X47112000Y-24000000D01*
X46612000Y-24000000D01*
G37*
G36*
X46112000Y-24000000D02*
G01*
X46112000Y-23500000D01*
X46612000Y-23500000D01*
X46612000Y-24000000D01*
X46112000Y-24000000D01*
G37*
G36*
X45612000Y-24000000D02*
G01*
X45612000Y-23500000D01*
X46112000Y-23500000D01*
X46112000Y-24000000D01*
X45612000Y-24000000D01*
G37*
G36*
X45112000Y-24000000D02*
G01*
X45112000Y-23500000D01*
X45612000Y-23500000D01*
X45612000Y-24000000D01*
X45112000Y-24000000D01*
G37*
G36*
X44612000Y-24000000D02*
G01*
X44612000Y-23500000D01*
X45112000Y-23500000D01*
X45112000Y-24000000D01*
X44612000Y-24000000D01*
G37*
G36*
X44112000Y-24000000D02*
G01*
X44112000Y-23500000D01*
X44612000Y-23500000D01*
X44612000Y-24000000D01*
X44112000Y-24000000D01*
G37*
G36*
X43612000Y-24000000D02*
G01*
X43612000Y-23500000D01*
X44112000Y-23500000D01*
X44112000Y-24000000D01*
X43612000Y-24000000D01*
G37*
G36*
X42612000Y-24000000D02*
G01*
X42612000Y-23500000D01*
X43112000Y-23500000D01*
X43112000Y-24000000D01*
X42612000Y-24000000D01*
G37*
G36*
X42112000Y-24000000D02*
G01*
X42112000Y-23500000D01*
X42612000Y-23500000D01*
X42612000Y-24000000D01*
X42112000Y-24000000D01*
G37*
G36*
X41112000Y-24000000D02*
G01*
X41112000Y-23500000D01*
X41612000Y-23500000D01*
X41612000Y-24000000D01*
X41112000Y-24000000D01*
G37*
G36*
X40612000Y-24000000D02*
G01*
X40612000Y-23500000D01*
X41112000Y-23500000D01*
X41112000Y-24000000D01*
X40612000Y-24000000D01*
G37*
G36*
X40112000Y-24000000D02*
G01*
X40112000Y-23500000D01*
X40612000Y-23500000D01*
X40612000Y-24000000D01*
X40112000Y-24000000D01*
G37*
G36*
X39112000Y-24000000D02*
G01*
X39112000Y-23500000D01*
X39612000Y-23500000D01*
X39612000Y-24000000D01*
X39112000Y-24000000D01*
G37*
G36*
X38612000Y-24000000D02*
G01*
X38612000Y-23500000D01*
X39112000Y-23500000D01*
X39112000Y-24000000D01*
X38612000Y-24000000D01*
G37*
G36*
X38112000Y-24000000D02*
G01*
X38112000Y-23500000D01*
X38612000Y-23500000D01*
X38612000Y-24000000D01*
X38112000Y-24000000D01*
G37*
G36*
X37612000Y-24000000D02*
G01*
X37612000Y-23500000D01*
X38112000Y-23500000D01*
X38112000Y-24000000D01*
X37612000Y-24000000D01*
G37*
G36*
X37112000Y-24000000D02*
G01*
X37112000Y-23500000D01*
X37612000Y-23500000D01*
X37612000Y-24000000D01*
X37112000Y-24000000D01*
G37*
G36*
X36612000Y-24000000D02*
G01*
X36612000Y-23500000D01*
X37112000Y-23500000D01*
X37112000Y-24000000D01*
X36612000Y-24000000D01*
G37*
G36*
X35112000Y-24000000D02*
G01*
X35112000Y-23500000D01*
X35612000Y-23500000D01*
X35612000Y-24000000D01*
X35112000Y-24000000D01*
G37*
G36*
X33612000Y-24000000D02*
G01*
X33612000Y-23500000D01*
X34112000Y-23500000D01*
X34112000Y-24000000D01*
X33612000Y-24000000D01*
G37*
G36*
X33112000Y-24000000D02*
G01*
X33112000Y-23500000D01*
X33612000Y-23500000D01*
X33612000Y-24000000D01*
X33112000Y-24000000D01*
G37*
G36*
X32612000Y-24000000D02*
G01*
X32612000Y-23500000D01*
X33112000Y-23500000D01*
X33112000Y-24000000D01*
X32612000Y-24000000D01*
G37*
G36*
X32112000Y-24000000D02*
G01*
X32112000Y-23500000D01*
X32612000Y-23500000D01*
X32612000Y-24000000D01*
X32112000Y-24000000D01*
G37*
G36*
X31612000Y-24000000D02*
G01*
X31612000Y-23500000D01*
X32112000Y-23500000D01*
X32112000Y-24000000D01*
X31612000Y-24000000D01*
G37*
G36*
X31112000Y-24000000D02*
G01*
X31112000Y-23500000D01*
X31612000Y-23500000D01*
X31612000Y-24000000D01*
X31112000Y-24000000D01*
G37*
G36*
X30612000Y-24000000D02*
G01*
X30612000Y-23500000D01*
X31112000Y-23500000D01*
X31112000Y-24000000D01*
X30612000Y-24000000D01*
G37*
G36*
X46612000Y-24500000D02*
G01*
X46612000Y-24000000D01*
X47112000Y-24000000D01*
X47112000Y-24500000D01*
X46612000Y-24500000D01*
G37*
G36*
X43612000Y-24500000D02*
G01*
X43612000Y-24000000D01*
X44112000Y-24000000D01*
X44112000Y-24500000D01*
X43612000Y-24500000D01*
G37*
G36*
X42612000Y-24500000D02*
G01*
X42612000Y-24000000D01*
X43112000Y-24000000D01*
X43112000Y-24500000D01*
X42612000Y-24500000D01*
G37*
G36*
X41612000Y-24500000D02*
G01*
X41612000Y-24000000D01*
X42112000Y-24000000D01*
X42112000Y-24500000D01*
X41612000Y-24500000D01*
G37*
G36*
X41112000Y-24500000D02*
G01*
X41112000Y-24000000D01*
X41612000Y-24000000D01*
X41612000Y-24500000D01*
X41112000Y-24500000D01*
G37*
G36*
X40112000Y-24500000D02*
G01*
X40112000Y-24000000D01*
X40612000Y-24000000D01*
X40612000Y-24500000D01*
X40112000Y-24500000D01*
G37*
G36*
X38612000Y-24500000D02*
G01*
X38612000Y-24000000D01*
X39112000Y-24000000D01*
X39112000Y-24500000D01*
X38612000Y-24500000D01*
G37*
G36*
X37612000Y-24500000D02*
G01*
X37612000Y-24000000D01*
X38112000Y-24000000D01*
X38112000Y-24500000D01*
X37612000Y-24500000D01*
G37*
G36*
X36112000Y-24500000D02*
G01*
X36112000Y-24000000D01*
X36612000Y-24000000D01*
X36612000Y-24500000D01*
X36112000Y-24500000D01*
G37*
G36*
X35612000Y-24500000D02*
G01*
X35612000Y-24000000D01*
X36112000Y-24000000D01*
X36112000Y-24500000D01*
X35612000Y-24500000D01*
G37*
G36*
X35112000Y-24500000D02*
G01*
X35112000Y-24000000D01*
X35612000Y-24000000D01*
X35612000Y-24500000D01*
X35112000Y-24500000D01*
G37*
G36*
X34612000Y-24500000D02*
G01*
X34612000Y-24000000D01*
X35112000Y-24000000D01*
X35112000Y-24500000D01*
X34612000Y-24500000D01*
G37*
G36*
X33612000Y-24500000D02*
G01*
X33612000Y-24000000D01*
X34112000Y-24000000D01*
X34112000Y-24500000D01*
X33612000Y-24500000D01*
G37*
G36*
X30612000Y-24500000D02*
G01*
X30612000Y-24000000D01*
X31112000Y-24000000D01*
X31112000Y-24500000D01*
X30612000Y-24500000D01*
G37*
G36*
X46612000Y-25000000D02*
G01*
X46612000Y-24500000D01*
X47112000Y-24500000D01*
X47112000Y-25000000D01*
X46612000Y-25000000D01*
G37*
G36*
X45612000Y-25000000D02*
G01*
X45612000Y-24500000D01*
X46112000Y-24500000D01*
X46112000Y-25000000D01*
X45612000Y-25000000D01*
G37*
G36*
X45112000Y-25000000D02*
G01*
X45112000Y-24500000D01*
X45612000Y-24500000D01*
X45612000Y-25000000D01*
X45112000Y-25000000D01*
G37*
G36*
X44612000Y-25000000D02*
G01*
X44612000Y-24500000D01*
X45112000Y-24500000D01*
X45112000Y-25000000D01*
X44612000Y-25000000D01*
G37*
G36*
X43612000Y-25000000D02*
G01*
X43612000Y-24500000D01*
X44112000Y-24500000D01*
X44112000Y-25000000D01*
X43612000Y-25000000D01*
G37*
G36*
X41612000Y-25000000D02*
G01*
X41612000Y-24500000D01*
X42112000Y-24500000D01*
X42112000Y-25000000D01*
X41612000Y-25000000D01*
G37*
G36*
X40612000Y-25000000D02*
G01*
X40612000Y-24500000D01*
X41112000Y-24500000D01*
X41112000Y-25000000D01*
X40612000Y-25000000D01*
G37*
G36*
X39112000Y-25000000D02*
G01*
X39112000Y-24500000D01*
X39612000Y-24500000D01*
X39612000Y-25000000D01*
X39112000Y-25000000D01*
G37*
G36*
X38112000Y-25000000D02*
G01*
X38112000Y-24500000D01*
X38612000Y-24500000D01*
X38612000Y-25000000D01*
X38112000Y-25000000D01*
G37*
G36*
X36612000Y-25000000D02*
G01*
X36612000Y-24500000D01*
X37112000Y-24500000D01*
X37112000Y-25000000D01*
X36612000Y-25000000D01*
G37*
G36*
X36112000Y-25000000D02*
G01*
X36112000Y-24500000D01*
X36612000Y-24500000D01*
X36612000Y-25000000D01*
X36112000Y-25000000D01*
G37*
G36*
X35612000Y-25000000D02*
G01*
X35612000Y-24500000D01*
X36112000Y-24500000D01*
X36112000Y-25000000D01*
X35612000Y-25000000D01*
G37*
G36*
X34612000Y-25000000D02*
G01*
X34612000Y-24500000D01*
X35112000Y-24500000D01*
X35112000Y-25000000D01*
X34612000Y-25000000D01*
G37*
G36*
X33612000Y-25000000D02*
G01*
X33612000Y-24500000D01*
X34112000Y-24500000D01*
X34112000Y-25000000D01*
X33612000Y-25000000D01*
G37*
G36*
X32612000Y-25000000D02*
G01*
X32612000Y-24500000D01*
X33112000Y-24500000D01*
X33112000Y-25000000D01*
X32612000Y-25000000D01*
G37*
G36*
X32112000Y-25000000D02*
G01*
X32112000Y-24500000D01*
X32612000Y-24500000D01*
X32612000Y-25000000D01*
X32112000Y-25000000D01*
G37*
G36*
X31612000Y-25000000D02*
G01*
X31612000Y-24500000D01*
X32112000Y-24500000D01*
X32112000Y-25000000D01*
X31612000Y-25000000D01*
G37*
G36*
X30612000Y-25000000D02*
G01*
X30612000Y-24500000D01*
X31112000Y-24500000D01*
X31112000Y-25000000D01*
X30612000Y-25000000D01*
G37*
G36*
X46612000Y-25500000D02*
G01*
X46612000Y-25000000D01*
X47112000Y-25000000D01*
X47112000Y-25500000D01*
X46612000Y-25500000D01*
G37*
G36*
X45612000Y-25500000D02*
G01*
X45612000Y-25000000D01*
X46112000Y-25000000D01*
X46112000Y-25500000D01*
X45612000Y-25500000D01*
G37*
G36*
X45112000Y-25500000D02*
G01*
X45112000Y-25000000D01*
X45612000Y-25000000D01*
X45612000Y-25500000D01*
X45112000Y-25500000D01*
G37*
G36*
X44612000Y-25500000D02*
G01*
X44612000Y-25000000D01*
X45112000Y-25000000D01*
X45112000Y-25500000D01*
X44612000Y-25500000D01*
G37*
G36*
X43612000Y-25500000D02*
G01*
X43612000Y-25000000D01*
X44112000Y-25000000D01*
X44112000Y-25500000D01*
X43612000Y-25500000D01*
G37*
G36*
X42612000Y-25500000D02*
G01*
X42612000Y-25000000D01*
X43112000Y-25000000D01*
X43112000Y-25500000D01*
X42612000Y-25500000D01*
G37*
G36*
X42112000Y-25500000D02*
G01*
X42112000Y-25000000D01*
X42612000Y-25000000D01*
X42612000Y-25500000D01*
X42112000Y-25500000D01*
G37*
G36*
X39612000Y-25500000D02*
G01*
X39612000Y-25000000D01*
X40112000Y-25000000D01*
X40112000Y-25500000D01*
X39612000Y-25500000D01*
G37*
G36*
X38612000Y-25500000D02*
G01*
X38612000Y-25000000D01*
X39112000Y-25000000D01*
X39112000Y-25500000D01*
X38612000Y-25500000D01*
G37*
G36*
X37112000Y-25500000D02*
G01*
X37112000Y-25000000D01*
X37612000Y-25000000D01*
X37612000Y-25500000D01*
X37112000Y-25500000D01*
G37*
G36*
X36612000Y-25500000D02*
G01*
X36612000Y-25000000D01*
X37112000Y-25000000D01*
X37112000Y-25500000D01*
X36612000Y-25500000D01*
G37*
G36*
X36112000Y-25500000D02*
G01*
X36112000Y-25000000D01*
X36612000Y-25000000D01*
X36612000Y-25500000D01*
X36112000Y-25500000D01*
G37*
G36*
X35612000Y-25500000D02*
G01*
X35612000Y-25000000D01*
X36112000Y-25000000D01*
X36112000Y-25500000D01*
X35612000Y-25500000D01*
G37*
G36*
X33612000Y-25500000D02*
G01*
X33612000Y-25000000D01*
X34112000Y-25000000D01*
X34112000Y-25500000D01*
X33612000Y-25500000D01*
G37*
G36*
X32612000Y-25500000D02*
G01*
X32612000Y-25000000D01*
X33112000Y-25000000D01*
X33112000Y-25500000D01*
X32612000Y-25500000D01*
G37*
G36*
X32112000Y-25500000D02*
G01*
X32112000Y-25000000D01*
X32612000Y-25000000D01*
X32612000Y-25500000D01*
X32112000Y-25500000D01*
G37*
G36*
X31612000Y-25500000D02*
G01*
X31612000Y-25000000D01*
X32112000Y-25000000D01*
X32112000Y-25500000D01*
X31612000Y-25500000D01*
G37*
G36*
X30612000Y-25500000D02*
G01*
X30612000Y-25000000D01*
X31112000Y-25000000D01*
X31112000Y-25500000D01*
X30612000Y-25500000D01*
G37*
G36*
X46612000Y-26000000D02*
G01*
X46612000Y-25500000D01*
X47112000Y-25500000D01*
X47112000Y-26000000D01*
X46612000Y-26000000D01*
G37*
G36*
X45612000Y-26000000D02*
G01*
X45612000Y-25500000D01*
X46112000Y-25500000D01*
X46112000Y-26000000D01*
X45612000Y-26000000D01*
G37*
G36*
X45112000Y-26000000D02*
G01*
X45112000Y-25500000D01*
X45612000Y-25500000D01*
X45612000Y-26000000D01*
X45112000Y-26000000D01*
G37*
G36*
X44612000Y-26000000D02*
G01*
X44612000Y-25500000D01*
X45112000Y-25500000D01*
X45112000Y-26000000D01*
X44612000Y-26000000D01*
G37*
G36*
X43612000Y-26000000D02*
G01*
X43612000Y-25500000D01*
X44112000Y-25500000D01*
X44112000Y-26000000D01*
X43612000Y-26000000D01*
G37*
G36*
X41612000Y-26000000D02*
G01*
X41612000Y-25500000D01*
X42112000Y-25500000D01*
X42112000Y-26000000D01*
X41612000Y-26000000D01*
G37*
G36*
X41112000Y-26000000D02*
G01*
X41112000Y-25500000D01*
X41612000Y-25500000D01*
X41612000Y-26000000D01*
X41112000Y-26000000D01*
G37*
G36*
X39612000Y-26000000D02*
G01*
X39612000Y-25500000D01*
X40112000Y-25500000D01*
X40112000Y-26000000D01*
X39612000Y-26000000D01*
G37*
G36*
X36612000Y-26000000D02*
G01*
X36612000Y-25500000D01*
X37112000Y-25500000D01*
X37112000Y-26000000D01*
X36612000Y-26000000D01*
G37*
G36*
X35112000Y-26000000D02*
G01*
X35112000Y-25500000D01*
X35612000Y-25500000D01*
X35612000Y-26000000D01*
X35112000Y-26000000D01*
G37*
G36*
X33612000Y-26000000D02*
G01*
X33612000Y-25500000D01*
X34112000Y-25500000D01*
X34112000Y-26000000D01*
X33612000Y-26000000D01*
G37*
G36*
X32612000Y-26000000D02*
G01*
X32612000Y-25500000D01*
X33112000Y-25500000D01*
X33112000Y-26000000D01*
X32612000Y-26000000D01*
G37*
G36*
X32112000Y-26000000D02*
G01*
X32112000Y-25500000D01*
X32612000Y-25500000D01*
X32612000Y-26000000D01*
X32112000Y-26000000D01*
G37*
G36*
X31612000Y-26000000D02*
G01*
X31612000Y-25500000D01*
X32112000Y-25500000D01*
X32112000Y-26000000D01*
X31612000Y-26000000D01*
G37*
G36*
X30612000Y-26000000D02*
G01*
X30612000Y-25500000D01*
X31112000Y-25500000D01*
X31112000Y-26000000D01*
X30612000Y-26000000D01*
G37*
G36*
X46612000Y-26500000D02*
G01*
X46612000Y-26000000D01*
X47112000Y-26000000D01*
X47112000Y-26500000D01*
X46612000Y-26500000D01*
G37*
G36*
X43612000Y-26500000D02*
G01*
X43612000Y-26000000D01*
X44112000Y-26000000D01*
X44112000Y-26500000D01*
X43612000Y-26500000D01*
G37*
G36*
X37112000Y-26500000D02*
G01*
X37112000Y-26000000D01*
X37612000Y-26000000D01*
X37612000Y-26500000D01*
X37112000Y-26500000D01*
G37*
G36*
X36612000Y-26500000D02*
G01*
X36612000Y-26000000D01*
X37112000Y-26000000D01*
X37112000Y-26500000D01*
X36612000Y-26500000D01*
G37*
G36*
X36112000Y-26500000D02*
G01*
X36112000Y-26000000D01*
X36612000Y-26000000D01*
X36612000Y-26500000D01*
X36112000Y-26500000D01*
G37*
G36*
X35612000Y-26500000D02*
G01*
X35612000Y-26000000D01*
X36112000Y-26000000D01*
X36112000Y-26500000D01*
X35612000Y-26500000D01*
G37*
G36*
X34612000Y-26500000D02*
G01*
X34612000Y-26000000D01*
X35112000Y-26000000D01*
X35112000Y-26500000D01*
X34612000Y-26500000D01*
G37*
G36*
X33612000Y-26500000D02*
G01*
X33612000Y-26000000D01*
X34112000Y-26000000D01*
X34112000Y-26500000D01*
X33612000Y-26500000D01*
G37*
G36*
X30612000Y-26500000D02*
G01*
X30612000Y-26000000D01*
X31112000Y-26000000D01*
X31112000Y-26500000D01*
X30612000Y-26500000D01*
G37*
G36*
X46612000Y-27000000D02*
G01*
X46612000Y-26500000D01*
X47112000Y-26500000D01*
X47112000Y-27000000D01*
X46612000Y-27000000D01*
G37*
G36*
X46112000Y-27000000D02*
G01*
X46112000Y-26500000D01*
X46612000Y-26500000D01*
X46612000Y-27000000D01*
X46112000Y-27000000D01*
G37*
G36*
X45612000Y-27000000D02*
G01*
X45612000Y-26500000D01*
X46112000Y-26500000D01*
X46112000Y-27000000D01*
X45612000Y-27000000D01*
G37*
G36*
X45112000Y-27000000D02*
G01*
X45112000Y-26500000D01*
X45612000Y-26500000D01*
X45612000Y-27000000D01*
X45112000Y-27000000D01*
G37*
G36*
X44612000Y-27000000D02*
G01*
X44612000Y-26500000D01*
X45112000Y-26500000D01*
X45112000Y-27000000D01*
X44612000Y-27000000D01*
G37*
G36*
X44112000Y-27000000D02*
G01*
X44112000Y-26500000D01*
X44612000Y-26500000D01*
X44612000Y-27000000D01*
X44112000Y-27000000D01*
G37*
G36*
X43612000Y-27000000D02*
G01*
X43612000Y-26500000D01*
X44112000Y-26500000D01*
X44112000Y-27000000D01*
X43612000Y-27000000D01*
G37*
G36*
X42612000Y-27000000D02*
G01*
X42612000Y-26500000D01*
X43112000Y-26500000D01*
X43112000Y-27000000D01*
X42612000Y-27000000D01*
G37*
G36*
X41612000Y-27000000D02*
G01*
X41612000Y-26500000D01*
X42112000Y-26500000D01*
X42112000Y-27000000D01*
X41612000Y-27000000D01*
G37*
G36*
X40612000Y-27000000D02*
G01*
X40612000Y-26500000D01*
X41112000Y-26500000D01*
X41112000Y-27000000D01*
X40612000Y-27000000D01*
G37*
G36*
X39612000Y-27000000D02*
G01*
X39612000Y-26500000D01*
X40112000Y-26500000D01*
X40112000Y-27000000D01*
X39612000Y-27000000D01*
G37*
G36*
X38612000Y-27000000D02*
G01*
X38612000Y-26500000D01*
X39112000Y-26500000D01*
X39112000Y-27000000D01*
X38612000Y-27000000D01*
G37*
G36*
X37612000Y-27000000D02*
G01*
X37612000Y-26500000D01*
X38112000Y-26500000D01*
X38112000Y-27000000D01*
X37612000Y-27000000D01*
G37*
G36*
X36612000Y-27000000D02*
G01*
X36612000Y-26500000D01*
X37112000Y-26500000D01*
X37112000Y-27000000D01*
X36612000Y-27000000D01*
G37*
G36*
X35612000Y-27000000D02*
G01*
X35612000Y-26500000D01*
X36112000Y-26500000D01*
X36112000Y-27000000D01*
X35612000Y-27000000D01*
G37*
G36*
X34612000Y-27000000D02*
G01*
X34612000Y-26500000D01*
X35112000Y-26500000D01*
X35112000Y-27000000D01*
X34612000Y-27000000D01*
G37*
G36*
X33612000Y-27000000D02*
G01*
X33612000Y-26500000D01*
X34112000Y-26500000D01*
X34112000Y-27000000D01*
X33612000Y-27000000D01*
G37*
G36*
X33112000Y-27000000D02*
G01*
X33112000Y-26500000D01*
X33612000Y-26500000D01*
X33612000Y-27000000D01*
X33112000Y-27000000D01*
G37*
G36*
X32612000Y-27000000D02*
G01*
X32612000Y-26500000D01*
X33112000Y-26500000D01*
X33112000Y-27000000D01*
X32612000Y-27000000D01*
G37*
G36*
X32112000Y-27000000D02*
G01*
X32112000Y-26500000D01*
X32612000Y-26500000D01*
X32612000Y-27000000D01*
X32112000Y-27000000D01*
G37*
G36*
X31612000Y-27000000D02*
G01*
X31612000Y-26500000D01*
X32112000Y-26500000D01*
X32112000Y-27000000D01*
X31612000Y-27000000D01*
G37*
G36*
X31112000Y-27000000D02*
G01*
X31112000Y-26500000D01*
X31612000Y-26500000D01*
X31612000Y-27000000D01*
X31112000Y-27000000D01*
G37*
G36*
X30612000Y-27000000D02*
G01*
X30612000Y-26500000D01*
X31112000Y-26500000D01*
X31112000Y-27000000D01*
X30612000Y-27000000D01*
G37*
G36*
X42612000Y-27500000D02*
G01*
X42612000Y-27000000D01*
X43112000Y-27000000D01*
X43112000Y-27500000D01*
X42612000Y-27500000D01*
G37*
G36*
X41612000Y-27500000D02*
G01*
X41612000Y-27000000D01*
X42112000Y-27000000D01*
X42112000Y-27500000D01*
X41612000Y-27500000D01*
G37*
G36*
X41112000Y-27500000D02*
G01*
X41112000Y-27000000D01*
X41612000Y-27000000D01*
X41612000Y-27500000D01*
X41112000Y-27500000D01*
G37*
G36*
X38112000Y-27500000D02*
G01*
X38112000Y-27000000D01*
X38612000Y-27000000D01*
X38612000Y-27500000D01*
X38112000Y-27500000D01*
G37*
G36*
X36612000Y-27500000D02*
G01*
X36612000Y-27000000D01*
X37112000Y-27000000D01*
X37112000Y-27500000D01*
X36612000Y-27500000D01*
G37*
G36*
X35112000Y-27500000D02*
G01*
X35112000Y-27000000D01*
X35612000Y-27000000D01*
X35612000Y-27500000D01*
X35112000Y-27500000D01*
G37*
G36*
X46612000Y-28000000D02*
G01*
X46612000Y-27500000D01*
X47112000Y-27500000D01*
X47112000Y-28000000D01*
X46612000Y-28000000D01*
G37*
G36*
X45612000Y-28000000D02*
G01*
X45612000Y-27500000D01*
X46112000Y-27500000D01*
X46112000Y-28000000D01*
X45612000Y-28000000D01*
G37*
G36*
X45112000Y-28000000D02*
G01*
X45112000Y-27500000D01*
X45612000Y-27500000D01*
X45612000Y-28000000D01*
X45112000Y-28000000D01*
G37*
G36*
X44112000Y-28000000D02*
G01*
X44112000Y-27500000D01*
X44612000Y-27500000D01*
X44612000Y-28000000D01*
X44112000Y-28000000D01*
G37*
G36*
X43612000Y-28000000D02*
G01*
X43612000Y-27500000D01*
X44112000Y-27500000D01*
X44112000Y-28000000D01*
X43612000Y-28000000D01*
G37*
G36*
X43112000Y-28000000D02*
G01*
X43112000Y-27500000D01*
X43612000Y-27500000D01*
X43612000Y-28000000D01*
X43112000Y-28000000D01*
G37*
G36*
X41612000Y-28000000D02*
G01*
X41612000Y-27500000D01*
X42112000Y-27500000D01*
X42112000Y-28000000D01*
X41612000Y-28000000D01*
G37*
G36*
X41112000Y-28000000D02*
G01*
X41112000Y-27500000D01*
X41612000Y-27500000D01*
X41612000Y-28000000D01*
X41112000Y-28000000D01*
G37*
G36*
X40112000Y-28000000D02*
G01*
X40112000Y-27500000D01*
X40612000Y-27500000D01*
X40612000Y-28000000D01*
X40112000Y-28000000D01*
G37*
G36*
X39612000Y-28000000D02*
G01*
X39612000Y-27500000D01*
X40112000Y-27500000D01*
X40112000Y-28000000D01*
X39612000Y-28000000D01*
G37*
G36*
X38612000Y-28000000D02*
G01*
X38612000Y-27500000D01*
X39112000Y-27500000D01*
X39112000Y-28000000D01*
X38612000Y-28000000D01*
G37*
G36*
X38112000Y-28000000D02*
G01*
X38112000Y-27500000D01*
X38612000Y-27500000D01*
X38612000Y-28000000D01*
X38112000Y-28000000D01*
G37*
G36*
X37612000Y-28000000D02*
G01*
X37612000Y-27500000D01*
X38112000Y-27500000D01*
X38112000Y-28000000D01*
X37612000Y-28000000D01*
G37*
G36*
X37112000Y-28000000D02*
G01*
X37112000Y-27500000D01*
X37612000Y-27500000D01*
X37612000Y-28000000D01*
X37112000Y-28000000D01*
G37*
G36*
X36112000Y-28000000D02*
G01*
X36112000Y-27500000D01*
X36612000Y-27500000D01*
X36612000Y-28000000D01*
X36112000Y-28000000D01*
G37*
G36*
X35612000Y-28000000D02*
G01*
X35612000Y-27500000D01*
X36112000Y-27500000D01*
X36112000Y-28000000D01*
X35612000Y-28000000D01*
G37*
G36*
X34612000Y-28000000D02*
G01*
X34612000Y-27500000D01*
X35112000Y-27500000D01*
X35112000Y-28000000D01*
X34612000Y-28000000D01*
G37*
G36*
X33612000Y-28000000D02*
G01*
X33612000Y-27500000D01*
X34112000Y-27500000D01*
X34112000Y-28000000D01*
X33612000Y-28000000D01*
G37*
G36*
X32112000Y-28000000D02*
G01*
X32112000Y-27500000D01*
X32612000Y-27500000D01*
X32612000Y-28000000D01*
X32112000Y-28000000D01*
G37*
G36*
X31112000Y-28000000D02*
G01*
X31112000Y-27500000D01*
X31612000Y-27500000D01*
X31612000Y-28000000D01*
X31112000Y-28000000D01*
G37*
G36*
X30612000Y-28000000D02*
G01*
X30612000Y-27500000D01*
X31112000Y-27500000D01*
X31112000Y-28000000D01*
X30612000Y-28000000D01*
G37*
G36*
X46612000Y-28500000D02*
G01*
X46612000Y-28000000D01*
X47112000Y-28000000D01*
X47112000Y-28500000D01*
X46612000Y-28500000D01*
G37*
G36*
X45612000Y-28500000D02*
G01*
X45612000Y-28000000D01*
X46112000Y-28000000D01*
X46112000Y-28500000D01*
X45612000Y-28500000D01*
G37*
G36*
X44112000Y-28500000D02*
G01*
X44112000Y-28000000D01*
X44612000Y-28000000D01*
X44612000Y-28500000D01*
X44112000Y-28500000D01*
G37*
G36*
X43112000Y-28500000D02*
G01*
X43112000Y-28000000D01*
X43612000Y-28000000D01*
X43612000Y-28500000D01*
X43112000Y-28500000D01*
G37*
G36*
X42612000Y-28500000D02*
G01*
X42612000Y-28000000D01*
X43112000Y-28000000D01*
X43112000Y-28500000D01*
X42612000Y-28500000D01*
G37*
G36*
X42112000Y-28500000D02*
G01*
X42112000Y-28000000D01*
X42612000Y-28000000D01*
X42612000Y-28500000D01*
X42112000Y-28500000D01*
G37*
G36*
X40612000Y-28500000D02*
G01*
X40612000Y-28000000D01*
X41112000Y-28000000D01*
X41112000Y-28500000D01*
X40612000Y-28500000D01*
G37*
G36*
X37612000Y-28500000D02*
G01*
X37612000Y-28000000D01*
X38112000Y-28000000D01*
X38112000Y-28500000D01*
X37612000Y-28500000D01*
G37*
G36*
X37112000Y-28500000D02*
G01*
X37112000Y-28000000D01*
X37612000Y-28000000D01*
X37612000Y-28500000D01*
X37112000Y-28500000D01*
G37*
G36*
X36612000Y-28500000D02*
G01*
X36612000Y-28000000D01*
X37112000Y-28000000D01*
X37112000Y-28500000D01*
X36612000Y-28500000D01*
G37*
G36*
X36112000Y-28500000D02*
G01*
X36112000Y-28000000D01*
X36612000Y-28000000D01*
X36612000Y-28500000D01*
X36112000Y-28500000D01*
G37*
G36*
X35112000Y-28500000D02*
G01*
X35112000Y-28000000D01*
X35612000Y-28000000D01*
X35612000Y-28500000D01*
X35112000Y-28500000D01*
G37*
G36*
X33612000Y-28500000D02*
G01*
X33612000Y-28000000D01*
X34112000Y-28000000D01*
X34112000Y-28500000D01*
X33612000Y-28500000D01*
G37*
G36*
X33112000Y-28500000D02*
G01*
X33112000Y-28000000D01*
X33612000Y-28000000D01*
X33612000Y-28500000D01*
X33112000Y-28500000D01*
G37*
G36*
X32112000Y-28500000D02*
G01*
X32112000Y-28000000D01*
X32612000Y-28000000D01*
X32612000Y-28500000D01*
X32112000Y-28500000D01*
G37*
G36*
X31612000Y-28500000D02*
G01*
X31612000Y-28000000D01*
X32112000Y-28000000D01*
X32112000Y-28500000D01*
X31612000Y-28500000D01*
G37*
G36*
X30612000Y-28500000D02*
G01*
X30612000Y-28000000D01*
X31112000Y-28000000D01*
X31112000Y-28500000D01*
X30612000Y-28500000D01*
G37*
G36*
X46612000Y-29000000D02*
G01*
X46612000Y-28500000D01*
X47112000Y-28500000D01*
X47112000Y-29000000D01*
X46612000Y-29000000D01*
G37*
G36*
X46112000Y-29000000D02*
G01*
X46112000Y-28500000D01*
X46612000Y-28500000D01*
X46612000Y-29000000D01*
X46112000Y-29000000D01*
G37*
G36*
X45612000Y-29000000D02*
G01*
X45612000Y-28500000D01*
X46112000Y-28500000D01*
X46112000Y-29000000D01*
X45612000Y-29000000D01*
G37*
G36*
X44112000Y-29000000D02*
G01*
X44112000Y-28500000D01*
X44612000Y-28500000D01*
X44612000Y-29000000D01*
X44112000Y-29000000D01*
G37*
G36*
X43612000Y-29000000D02*
G01*
X43612000Y-28500000D01*
X44112000Y-28500000D01*
X44112000Y-29000000D01*
X43612000Y-29000000D01*
G37*
G36*
X42612000Y-29000000D02*
G01*
X42612000Y-28500000D01*
X43112000Y-28500000D01*
X43112000Y-29000000D01*
X42612000Y-29000000D01*
G37*
G36*
X42112000Y-29000000D02*
G01*
X42112000Y-28500000D01*
X42612000Y-28500000D01*
X42612000Y-29000000D01*
X42112000Y-29000000D01*
G37*
G36*
X41612000Y-29000000D02*
G01*
X41612000Y-28500000D01*
X42112000Y-28500000D01*
X42112000Y-29000000D01*
X41612000Y-29000000D01*
G37*
G36*
X40612000Y-29000000D02*
G01*
X40612000Y-28500000D01*
X41112000Y-28500000D01*
X41112000Y-29000000D01*
X40612000Y-29000000D01*
G37*
G36*
X39612000Y-29000000D02*
G01*
X39612000Y-28500000D01*
X40112000Y-28500000D01*
X40112000Y-29000000D01*
X39612000Y-29000000D01*
G37*
G36*
X38112000Y-29000000D02*
G01*
X38112000Y-28500000D01*
X38612000Y-28500000D01*
X38612000Y-29000000D01*
X38112000Y-29000000D01*
G37*
G36*
X36612000Y-29000000D02*
G01*
X36612000Y-28500000D01*
X37112000Y-28500000D01*
X37112000Y-29000000D01*
X36612000Y-29000000D01*
G37*
G36*
X35112000Y-29000000D02*
G01*
X35112000Y-28500000D01*
X35612000Y-28500000D01*
X35612000Y-29000000D01*
X35112000Y-29000000D01*
G37*
G36*
X34112000Y-29000000D02*
G01*
X34112000Y-28500000D01*
X34612000Y-28500000D01*
X34612000Y-29000000D01*
X34112000Y-29000000D01*
G37*
G36*
X33112000Y-29000000D02*
G01*
X33112000Y-28500000D01*
X33612000Y-28500000D01*
X33612000Y-29000000D01*
X33112000Y-29000000D01*
G37*
G36*
X32612000Y-29000000D02*
G01*
X32612000Y-28500000D01*
X33112000Y-28500000D01*
X33112000Y-29000000D01*
X32612000Y-29000000D01*
G37*
G36*
X32112000Y-29000000D02*
G01*
X32112000Y-28500000D01*
X32612000Y-28500000D01*
X32612000Y-29000000D01*
X32112000Y-29000000D01*
G37*
G36*
X31112000Y-29000000D02*
G01*
X31112000Y-28500000D01*
X31612000Y-28500000D01*
X31612000Y-29000000D01*
X31112000Y-29000000D01*
G37*
G36*
X30612000Y-29000000D02*
G01*
X30612000Y-28500000D01*
X31112000Y-28500000D01*
X31112000Y-29000000D01*
X30612000Y-29000000D01*
G37*
G36*
X46112000Y-29500000D02*
G01*
X46112000Y-29000000D01*
X46612000Y-29000000D01*
X46612000Y-29500000D01*
X46112000Y-29500000D01*
G37*
G36*
X44112000Y-29500000D02*
G01*
X44112000Y-29000000D01*
X44612000Y-29000000D01*
X44612000Y-29500000D01*
X44112000Y-29500000D01*
G37*
G36*
X43112000Y-29500000D02*
G01*
X43112000Y-29000000D01*
X43612000Y-29000000D01*
X43612000Y-29500000D01*
X43112000Y-29500000D01*
G37*
G36*
X42112000Y-29500000D02*
G01*
X42112000Y-29000000D01*
X42612000Y-29000000D01*
X42612000Y-29500000D01*
X42112000Y-29500000D01*
G37*
G36*
X40112000Y-29500000D02*
G01*
X40112000Y-29000000D01*
X40612000Y-29000000D01*
X40612000Y-29500000D01*
X40112000Y-29500000D01*
G37*
G36*
X39612000Y-29500000D02*
G01*
X39612000Y-29000000D01*
X40112000Y-29000000D01*
X40112000Y-29500000D01*
X39612000Y-29500000D01*
G37*
G36*
X37612000Y-29500000D02*
G01*
X37612000Y-29000000D01*
X38112000Y-29000000D01*
X38112000Y-29500000D01*
X37612000Y-29500000D01*
G37*
G36*
X34112000Y-29500000D02*
G01*
X34112000Y-29000000D01*
X34612000Y-29000000D01*
X34612000Y-29500000D01*
X34112000Y-29500000D01*
G37*
G36*
X33612000Y-29500000D02*
G01*
X33612000Y-29000000D01*
X34112000Y-29000000D01*
X34112000Y-29500000D01*
X33612000Y-29500000D01*
G37*
G36*
X33112000Y-29500000D02*
G01*
X33112000Y-29000000D01*
X33612000Y-29000000D01*
X33612000Y-29500000D01*
X33112000Y-29500000D01*
G37*
G36*
X32112000Y-29500000D02*
G01*
X32112000Y-29000000D01*
X32612000Y-29000000D01*
X32612000Y-29500000D01*
X32112000Y-29500000D01*
G37*
G36*
X31112000Y-29500000D02*
G01*
X31112000Y-29000000D01*
X31612000Y-29000000D01*
X31612000Y-29500000D01*
X31112000Y-29500000D01*
G37*
G36*
X46112000Y-30000000D02*
G01*
X46112000Y-29500000D01*
X46612000Y-29500000D01*
X46612000Y-30000000D01*
X46112000Y-30000000D01*
G37*
G36*
X45612000Y-30000000D02*
G01*
X45612000Y-29500000D01*
X46112000Y-29500000D01*
X46112000Y-30000000D01*
X45612000Y-30000000D01*
G37*
G36*
X43612000Y-30000000D02*
G01*
X43612000Y-29500000D01*
X44112000Y-29500000D01*
X44112000Y-30000000D01*
X43612000Y-30000000D01*
G37*
G36*
X43112000Y-30000000D02*
G01*
X43112000Y-29500000D01*
X43612000Y-29500000D01*
X43612000Y-30000000D01*
X43112000Y-30000000D01*
G37*
G36*
X42612000Y-30000000D02*
G01*
X42612000Y-29500000D01*
X43112000Y-29500000D01*
X43112000Y-30000000D01*
X42612000Y-30000000D01*
G37*
G36*
X42112000Y-30000000D02*
G01*
X42112000Y-29500000D01*
X42612000Y-29500000D01*
X42612000Y-30000000D01*
X42112000Y-30000000D01*
G37*
G36*
X41612000Y-30000000D02*
G01*
X41612000Y-29500000D01*
X42112000Y-29500000D01*
X42112000Y-30000000D01*
X41612000Y-30000000D01*
G37*
G36*
X41112000Y-30000000D02*
G01*
X41112000Y-29500000D01*
X41612000Y-29500000D01*
X41612000Y-30000000D01*
X41112000Y-30000000D01*
G37*
G36*
X40612000Y-30000000D02*
G01*
X40612000Y-29500000D01*
X41112000Y-29500000D01*
X41112000Y-30000000D01*
X40612000Y-30000000D01*
G37*
G36*
X39112000Y-30000000D02*
G01*
X39112000Y-29500000D01*
X39612000Y-29500000D01*
X39612000Y-30000000D01*
X39112000Y-30000000D01*
G37*
G36*
X37612000Y-30000000D02*
G01*
X37612000Y-29500000D01*
X38112000Y-29500000D01*
X38112000Y-30000000D01*
X37612000Y-30000000D01*
G37*
G36*
X37112000Y-30000000D02*
G01*
X37112000Y-29500000D01*
X37612000Y-29500000D01*
X37612000Y-30000000D01*
X37112000Y-30000000D01*
G37*
G36*
X36112000Y-30000000D02*
G01*
X36112000Y-29500000D01*
X36612000Y-29500000D01*
X36612000Y-30000000D01*
X36112000Y-30000000D01*
G37*
G36*
X35112000Y-30000000D02*
G01*
X35112000Y-29500000D01*
X35612000Y-29500000D01*
X35612000Y-30000000D01*
X35112000Y-30000000D01*
G37*
G36*
X34612000Y-30000000D02*
G01*
X34612000Y-29500000D01*
X35112000Y-29500000D01*
X35112000Y-30000000D01*
X34612000Y-30000000D01*
G37*
G36*
X34112000Y-30000000D02*
G01*
X34112000Y-29500000D01*
X34612000Y-29500000D01*
X34612000Y-30000000D01*
X34112000Y-30000000D01*
G37*
G36*
X33612000Y-30000000D02*
G01*
X33612000Y-29500000D01*
X34112000Y-29500000D01*
X34112000Y-30000000D01*
X33612000Y-30000000D01*
G37*
G36*
X32112000Y-30000000D02*
G01*
X32112000Y-29500000D01*
X32612000Y-29500000D01*
X32612000Y-30000000D01*
X32112000Y-30000000D01*
G37*
G36*
X31112000Y-30000000D02*
G01*
X31112000Y-29500000D01*
X31612000Y-29500000D01*
X31612000Y-30000000D01*
X31112000Y-30000000D01*
G37*
G36*
X46112000Y-30500000D02*
G01*
X46112000Y-30000000D01*
X46612000Y-30000000D01*
X46612000Y-30500000D01*
X46112000Y-30500000D01*
G37*
G36*
X44612000Y-30500000D02*
G01*
X44612000Y-30000000D01*
X45112000Y-30000000D01*
X45112000Y-30500000D01*
X44612000Y-30500000D01*
G37*
G36*
X44112000Y-30500000D02*
G01*
X44112000Y-30000000D01*
X44612000Y-30000000D01*
X44612000Y-30500000D01*
X44112000Y-30500000D01*
G37*
G36*
X42612000Y-30500000D02*
G01*
X42612000Y-30000000D01*
X43112000Y-30000000D01*
X43112000Y-30500000D01*
X42612000Y-30500000D01*
G37*
G36*
X41612000Y-30500000D02*
G01*
X41612000Y-30000000D01*
X42112000Y-30000000D01*
X42112000Y-30500000D01*
X41612000Y-30500000D01*
G37*
G36*
X40112000Y-30500000D02*
G01*
X40112000Y-30000000D01*
X40612000Y-30000000D01*
X40612000Y-30500000D01*
X40112000Y-30500000D01*
G37*
G36*
X38612000Y-30500000D02*
G01*
X38612000Y-30000000D01*
X39112000Y-30000000D01*
X39112000Y-30500000D01*
X38612000Y-30500000D01*
G37*
G36*
X37612000Y-30500000D02*
G01*
X37612000Y-30000000D01*
X38112000Y-30000000D01*
X38112000Y-30500000D01*
X37612000Y-30500000D01*
G37*
G36*
X36112000Y-30500000D02*
G01*
X36112000Y-30000000D01*
X36612000Y-30000000D01*
X36612000Y-30500000D01*
X36112000Y-30500000D01*
G37*
G36*
X35612000Y-30500000D02*
G01*
X35612000Y-30000000D01*
X36112000Y-30000000D01*
X36112000Y-30500000D01*
X35612000Y-30500000D01*
G37*
G36*
X35112000Y-30500000D02*
G01*
X35112000Y-30000000D01*
X35612000Y-30000000D01*
X35612000Y-30500000D01*
X35112000Y-30500000D01*
G37*
G36*
X34612000Y-30500000D02*
G01*
X34612000Y-30000000D01*
X35112000Y-30000000D01*
X35112000Y-30500000D01*
X34612000Y-30500000D01*
G37*
G36*
X33612000Y-30500000D02*
G01*
X33612000Y-30000000D01*
X34112000Y-30000000D01*
X34112000Y-30500000D01*
X33612000Y-30500000D01*
G37*
G36*
X31112000Y-30500000D02*
G01*
X31112000Y-30000000D01*
X31612000Y-30000000D01*
X31612000Y-30500000D01*
X31112000Y-30500000D01*
G37*
G36*
X46612000Y-31000000D02*
G01*
X46612000Y-30500000D01*
X47112000Y-30500000D01*
X47112000Y-31000000D01*
X46612000Y-31000000D01*
G37*
G36*
X46112000Y-31000000D02*
G01*
X46112000Y-30500000D01*
X46612000Y-30500000D01*
X46612000Y-31000000D01*
X46112000Y-31000000D01*
G37*
G36*
X45112000Y-31000000D02*
G01*
X45112000Y-30500000D01*
X45612000Y-30500000D01*
X45612000Y-31000000D01*
X45112000Y-31000000D01*
G37*
G36*
X44612000Y-31000000D02*
G01*
X44612000Y-30500000D01*
X45112000Y-30500000D01*
X45112000Y-31000000D01*
X44612000Y-31000000D01*
G37*
G36*
X43612000Y-31000000D02*
G01*
X43612000Y-30500000D01*
X44112000Y-30500000D01*
X44112000Y-31000000D01*
X43612000Y-31000000D01*
G37*
G36*
X43112000Y-31000000D02*
G01*
X43112000Y-30500000D01*
X43612000Y-30500000D01*
X43612000Y-31000000D01*
X43112000Y-31000000D01*
G37*
G36*
X42612000Y-31000000D02*
G01*
X42612000Y-30500000D01*
X43112000Y-30500000D01*
X43112000Y-31000000D01*
X42612000Y-31000000D01*
G37*
G36*
X41112000Y-31000000D02*
G01*
X41112000Y-30500000D01*
X41612000Y-30500000D01*
X41612000Y-31000000D01*
X41112000Y-31000000D01*
G37*
G36*
X39612000Y-31000000D02*
G01*
X39612000Y-30500000D01*
X40112000Y-30500000D01*
X40112000Y-31000000D01*
X39612000Y-31000000D01*
G37*
G36*
X39112000Y-31000000D02*
G01*
X39112000Y-30500000D01*
X39612000Y-30500000D01*
X39612000Y-31000000D01*
X39112000Y-31000000D01*
G37*
G36*
X38612000Y-31000000D02*
G01*
X38612000Y-30500000D01*
X39112000Y-30500000D01*
X39112000Y-31000000D01*
X38612000Y-31000000D01*
G37*
G36*
X38112000Y-31000000D02*
G01*
X38112000Y-30500000D01*
X38612000Y-30500000D01*
X38612000Y-31000000D01*
X38112000Y-31000000D01*
G37*
G36*
X37612000Y-31000000D02*
G01*
X37612000Y-30500000D01*
X38112000Y-30500000D01*
X38112000Y-31000000D01*
X37612000Y-31000000D01*
G37*
G36*
X36112000Y-31000000D02*
G01*
X36112000Y-30500000D01*
X36612000Y-30500000D01*
X36612000Y-31000000D01*
X36112000Y-31000000D01*
G37*
G36*
X35112000Y-31000000D02*
G01*
X35112000Y-30500000D01*
X35612000Y-30500000D01*
X35612000Y-31000000D01*
X35112000Y-31000000D01*
G37*
G36*
X33612000Y-31000000D02*
G01*
X33612000Y-30500000D01*
X34112000Y-30500000D01*
X34112000Y-31000000D01*
X33612000Y-31000000D01*
G37*
G36*
X33112000Y-31000000D02*
G01*
X33112000Y-30500000D01*
X33612000Y-30500000D01*
X33612000Y-31000000D01*
X33112000Y-31000000D01*
G37*
G36*
X32612000Y-31000000D02*
G01*
X32612000Y-30500000D01*
X33112000Y-30500000D01*
X33112000Y-31000000D01*
X32612000Y-31000000D01*
G37*
G36*
X32112000Y-31000000D02*
G01*
X32112000Y-30500000D01*
X32612000Y-30500000D01*
X32612000Y-31000000D01*
X32112000Y-31000000D01*
G37*
G36*
X46612000Y-31500000D02*
G01*
X46612000Y-31000000D01*
X47112000Y-31000000D01*
X47112000Y-31500000D01*
X46612000Y-31500000D01*
G37*
G36*
X44112000Y-31500000D02*
G01*
X44112000Y-31000000D01*
X44612000Y-31000000D01*
X44612000Y-31500000D01*
X44112000Y-31500000D01*
G37*
G36*
X42112000Y-31500000D02*
G01*
X42112000Y-31000000D01*
X42612000Y-31000000D01*
X42612000Y-31500000D01*
X42112000Y-31500000D01*
G37*
G36*
X41112000Y-31500000D02*
G01*
X41112000Y-31000000D01*
X41612000Y-31000000D01*
X41612000Y-31500000D01*
X41112000Y-31500000D01*
G37*
G36*
X40612000Y-31500000D02*
G01*
X40612000Y-31000000D01*
X41112000Y-31000000D01*
X41112000Y-31500000D01*
X40612000Y-31500000D01*
G37*
G36*
X40112000Y-31500000D02*
G01*
X40112000Y-31000000D01*
X40612000Y-31000000D01*
X40612000Y-31500000D01*
X40112000Y-31500000D01*
G37*
G36*
X38612000Y-31500000D02*
G01*
X38612000Y-31000000D01*
X39112000Y-31000000D01*
X39112000Y-31500000D01*
X38612000Y-31500000D01*
G37*
G36*
X37612000Y-31500000D02*
G01*
X37612000Y-31000000D01*
X38112000Y-31000000D01*
X38112000Y-31500000D01*
X37612000Y-31500000D01*
G37*
G36*
X37112000Y-31500000D02*
G01*
X37112000Y-31000000D01*
X37612000Y-31000000D01*
X37612000Y-31500000D01*
X37112000Y-31500000D01*
G37*
G36*
X36612000Y-31500000D02*
G01*
X36612000Y-31000000D01*
X37112000Y-31000000D01*
X37112000Y-31500000D01*
X36612000Y-31500000D01*
G37*
G36*
X36112000Y-31500000D02*
G01*
X36112000Y-31000000D01*
X36612000Y-31000000D01*
X36612000Y-31500000D01*
X36112000Y-31500000D01*
G37*
G36*
X35112000Y-31500000D02*
G01*
X35112000Y-31000000D01*
X35612000Y-31000000D01*
X35612000Y-31500000D01*
X35112000Y-31500000D01*
G37*
G36*
X34112000Y-31500000D02*
G01*
X34112000Y-31000000D01*
X34612000Y-31000000D01*
X34612000Y-31500000D01*
X34112000Y-31500000D01*
G37*
G36*
X33612000Y-31500000D02*
G01*
X33612000Y-31000000D01*
X34112000Y-31000000D01*
X34112000Y-31500000D01*
X33612000Y-31500000D01*
G37*
G36*
X33112000Y-31500000D02*
G01*
X33112000Y-31000000D01*
X33612000Y-31000000D01*
X33612000Y-31500000D01*
X33112000Y-31500000D01*
G37*
G36*
X32112000Y-31500000D02*
G01*
X32112000Y-31000000D01*
X32612000Y-31000000D01*
X32612000Y-31500000D01*
X32112000Y-31500000D01*
G37*
G36*
X31612000Y-31500000D02*
G01*
X31612000Y-31000000D01*
X32112000Y-31000000D01*
X32112000Y-31500000D01*
X31612000Y-31500000D01*
G37*
G36*
X45612000Y-32000000D02*
G01*
X45612000Y-31500000D01*
X46112000Y-31500000D01*
X46112000Y-32000000D01*
X45612000Y-32000000D01*
G37*
G36*
X44112000Y-32000000D02*
G01*
X44112000Y-31500000D01*
X44612000Y-31500000D01*
X44612000Y-32000000D01*
X44112000Y-32000000D01*
G37*
G36*
X43612000Y-32000000D02*
G01*
X43612000Y-31500000D01*
X44112000Y-31500000D01*
X44112000Y-32000000D01*
X43612000Y-32000000D01*
G37*
G36*
X42112000Y-32000000D02*
G01*
X42112000Y-31500000D01*
X42612000Y-31500000D01*
X42612000Y-32000000D01*
X42112000Y-32000000D01*
G37*
G36*
X41112000Y-32000000D02*
G01*
X41112000Y-31500000D01*
X41612000Y-31500000D01*
X41612000Y-32000000D01*
X41112000Y-32000000D01*
G37*
G36*
X40112000Y-32000000D02*
G01*
X40112000Y-31500000D01*
X40612000Y-31500000D01*
X40612000Y-32000000D01*
X40112000Y-32000000D01*
G37*
G36*
X39112000Y-32000000D02*
G01*
X39112000Y-31500000D01*
X39612000Y-31500000D01*
X39612000Y-32000000D01*
X39112000Y-32000000D01*
G37*
G36*
X38112000Y-32000000D02*
G01*
X38112000Y-31500000D01*
X38612000Y-31500000D01*
X38612000Y-32000000D01*
X38112000Y-32000000D01*
G37*
G36*
X37612000Y-32000000D02*
G01*
X37612000Y-31500000D01*
X38112000Y-31500000D01*
X38112000Y-32000000D01*
X37612000Y-32000000D01*
G37*
G36*
X37112000Y-32000000D02*
G01*
X37112000Y-31500000D01*
X37612000Y-31500000D01*
X37612000Y-32000000D01*
X37112000Y-32000000D01*
G37*
G36*
X36612000Y-32000000D02*
G01*
X36612000Y-31500000D01*
X37112000Y-31500000D01*
X37112000Y-32000000D01*
X36612000Y-32000000D01*
G37*
G36*
X36112000Y-32000000D02*
G01*
X36112000Y-31500000D01*
X36612000Y-31500000D01*
X36612000Y-32000000D01*
X36112000Y-32000000D01*
G37*
G36*
X35612000Y-32000000D02*
G01*
X35612000Y-31500000D01*
X36112000Y-31500000D01*
X36112000Y-32000000D01*
X35612000Y-32000000D01*
G37*
G36*
X34112000Y-32000000D02*
G01*
X34112000Y-31500000D01*
X34612000Y-31500000D01*
X34612000Y-32000000D01*
X34112000Y-32000000D01*
G37*
G36*
X33612000Y-32000000D02*
G01*
X33612000Y-31500000D01*
X34112000Y-31500000D01*
X34112000Y-32000000D01*
X33612000Y-32000000D01*
G37*
G36*
X32612000Y-32000000D02*
G01*
X32612000Y-31500000D01*
X33112000Y-31500000D01*
X33112000Y-32000000D01*
X32612000Y-32000000D01*
G37*
G36*
X31612000Y-32000000D02*
G01*
X31612000Y-31500000D01*
X32112000Y-31500000D01*
X32112000Y-32000000D01*
X31612000Y-32000000D01*
G37*
G36*
X45612000Y-32500000D02*
G01*
X45612000Y-32000000D01*
X46112000Y-32000000D01*
X46112000Y-32500000D01*
X45612000Y-32500000D01*
G37*
G36*
X45112000Y-32500000D02*
G01*
X45112000Y-32000000D01*
X45612000Y-32000000D01*
X45612000Y-32500000D01*
X45112000Y-32500000D01*
G37*
G36*
X44612000Y-32500000D02*
G01*
X44612000Y-32000000D01*
X45112000Y-32000000D01*
X45112000Y-32500000D01*
X44612000Y-32500000D01*
G37*
G36*
X43112000Y-32500000D02*
G01*
X43112000Y-32000000D01*
X43612000Y-32000000D01*
X43612000Y-32500000D01*
X43112000Y-32500000D01*
G37*
G36*
X42612000Y-32500000D02*
G01*
X42612000Y-32000000D01*
X43112000Y-32000000D01*
X43112000Y-32500000D01*
X42612000Y-32500000D01*
G37*
G36*
X42112000Y-32500000D02*
G01*
X42112000Y-32000000D01*
X42612000Y-32000000D01*
X42612000Y-32500000D01*
X42112000Y-32500000D01*
G37*
G36*
X41612000Y-32500000D02*
G01*
X41612000Y-32000000D01*
X42112000Y-32000000D01*
X42112000Y-32500000D01*
X41612000Y-32500000D01*
G37*
G36*
X39612000Y-32500000D02*
G01*
X39612000Y-32000000D01*
X40112000Y-32000000D01*
X40112000Y-32500000D01*
X39612000Y-32500000D01*
G37*
G36*
X39112000Y-32500000D02*
G01*
X39112000Y-32000000D01*
X39612000Y-32000000D01*
X39612000Y-32500000D01*
X39112000Y-32500000D01*
G37*
G36*
X38112000Y-32500000D02*
G01*
X38112000Y-32000000D01*
X38612000Y-32000000D01*
X38612000Y-32500000D01*
X38112000Y-32500000D01*
G37*
G36*
X37112000Y-32500000D02*
G01*
X37112000Y-32000000D01*
X37612000Y-32000000D01*
X37612000Y-32500000D01*
X37112000Y-32500000D01*
G37*
G36*
X36612000Y-32500000D02*
G01*
X36612000Y-32000000D01*
X37112000Y-32000000D01*
X37112000Y-32500000D01*
X36612000Y-32500000D01*
G37*
G36*
X36112000Y-32500000D02*
G01*
X36112000Y-32000000D01*
X36612000Y-32000000D01*
X36612000Y-32500000D01*
X36112000Y-32500000D01*
G37*
G36*
X35612000Y-32500000D02*
G01*
X35612000Y-32000000D01*
X36112000Y-32000000D01*
X36112000Y-32500000D01*
X35612000Y-32500000D01*
G37*
G36*
X35112000Y-32500000D02*
G01*
X35112000Y-32000000D01*
X35612000Y-32000000D01*
X35612000Y-32500000D01*
X35112000Y-32500000D01*
G37*
G36*
X34612000Y-32500000D02*
G01*
X34612000Y-32000000D01*
X35112000Y-32000000D01*
X35112000Y-32500000D01*
X34612000Y-32500000D01*
G37*
G36*
X34112000Y-32500000D02*
G01*
X34112000Y-32000000D01*
X34612000Y-32000000D01*
X34612000Y-32500000D01*
X34112000Y-32500000D01*
G37*
G36*
X33612000Y-32500000D02*
G01*
X33612000Y-32000000D01*
X34112000Y-32000000D01*
X34112000Y-32500000D01*
X33612000Y-32500000D01*
G37*
G36*
X32612000Y-32500000D02*
G01*
X32612000Y-32000000D01*
X33112000Y-32000000D01*
X33112000Y-32500000D01*
X32612000Y-32500000D01*
G37*
G36*
X32112000Y-32500000D02*
G01*
X32112000Y-32000000D01*
X32612000Y-32000000D01*
X32612000Y-32500000D01*
X32112000Y-32500000D01*
G37*
G36*
X30612000Y-32500000D02*
G01*
X30612000Y-32000000D01*
X31112000Y-32000000D01*
X31112000Y-32500000D01*
X30612000Y-32500000D01*
G37*
G36*
X46612000Y-33000000D02*
G01*
X46612000Y-32500000D01*
X47112000Y-32500000D01*
X47112000Y-33000000D01*
X46612000Y-33000000D01*
G37*
G36*
X46112000Y-33000000D02*
G01*
X46112000Y-32500000D01*
X46612000Y-32500000D01*
X46612000Y-33000000D01*
X46112000Y-33000000D01*
G37*
G36*
X45612000Y-33000000D02*
G01*
X45612000Y-32500000D01*
X46112000Y-32500000D01*
X46112000Y-33000000D01*
X45612000Y-33000000D01*
G37*
G36*
X45112000Y-33000000D02*
G01*
X45112000Y-32500000D01*
X45612000Y-32500000D01*
X45612000Y-33000000D01*
X45112000Y-33000000D01*
G37*
G36*
X44112000Y-33000000D02*
G01*
X44112000Y-32500000D01*
X44612000Y-32500000D01*
X44612000Y-33000000D01*
X44112000Y-33000000D01*
G37*
G36*
X43612000Y-33000000D02*
G01*
X43612000Y-32500000D01*
X44112000Y-32500000D01*
X44112000Y-33000000D01*
X43612000Y-33000000D01*
G37*
G36*
X40612000Y-33000000D02*
G01*
X40612000Y-32500000D01*
X41112000Y-32500000D01*
X41112000Y-33000000D01*
X40612000Y-33000000D01*
G37*
G36*
X40112000Y-33000000D02*
G01*
X40112000Y-32500000D01*
X40612000Y-32500000D01*
X40612000Y-33000000D01*
X40112000Y-33000000D01*
G37*
G36*
X39612000Y-33000000D02*
G01*
X39612000Y-32500000D01*
X40112000Y-32500000D01*
X40112000Y-33000000D01*
X39612000Y-33000000D01*
G37*
G36*
X39112000Y-33000000D02*
G01*
X39112000Y-32500000D01*
X39612000Y-32500000D01*
X39612000Y-33000000D01*
X39112000Y-33000000D01*
G37*
G36*
X38112000Y-33000000D02*
G01*
X38112000Y-32500000D01*
X38612000Y-32500000D01*
X38612000Y-33000000D01*
X38112000Y-33000000D01*
G37*
G36*
X36612000Y-33000000D02*
G01*
X36612000Y-32500000D01*
X37112000Y-32500000D01*
X37112000Y-33000000D01*
X36612000Y-33000000D01*
G37*
G36*
X35612000Y-33000000D02*
G01*
X35612000Y-32500000D01*
X36112000Y-32500000D01*
X36112000Y-33000000D01*
X35612000Y-33000000D01*
G37*
G36*
X34612000Y-33000000D02*
G01*
X34612000Y-32500000D01*
X35112000Y-32500000D01*
X35112000Y-33000000D01*
X34612000Y-33000000D01*
G37*
G36*
X33112000Y-33000000D02*
G01*
X33112000Y-32500000D01*
X33612000Y-32500000D01*
X33612000Y-33000000D01*
X33112000Y-33000000D01*
G37*
G36*
X32612000Y-33000000D02*
G01*
X32612000Y-32500000D01*
X33112000Y-32500000D01*
X33112000Y-33000000D01*
X32612000Y-33000000D01*
G37*
G36*
X31612000Y-33000000D02*
G01*
X31612000Y-32500000D01*
X32112000Y-32500000D01*
X32112000Y-33000000D01*
X31612000Y-33000000D01*
G37*
G36*
X31112000Y-33000000D02*
G01*
X31112000Y-32500000D01*
X31612000Y-32500000D01*
X31612000Y-33000000D01*
X31112000Y-33000000D01*
G37*
G36*
X46612000Y-33500000D02*
G01*
X46612000Y-33000000D01*
X47112000Y-33000000D01*
X47112000Y-33500000D01*
X46612000Y-33500000D01*
G37*
G36*
X45112000Y-33500000D02*
G01*
X45112000Y-33000000D01*
X45612000Y-33000000D01*
X45612000Y-33500000D01*
X45112000Y-33500000D01*
G37*
G36*
X44612000Y-33500000D02*
G01*
X44612000Y-33000000D01*
X45112000Y-33000000D01*
X45112000Y-33500000D01*
X44612000Y-33500000D01*
G37*
G36*
X43112000Y-33500000D02*
G01*
X43112000Y-33000000D01*
X43612000Y-33000000D01*
X43612000Y-33500000D01*
X43112000Y-33500000D01*
G37*
G36*
X42612000Y-33500000D02*
G01*
X42612000Y-33000000D01*
X43112000Y-33000000D01*
X43112000Y-33500000D01*
X42612000Y-33500000D01*
G37*
G36*
X41612000Y-33500000D02*
G01*
X41612000Y-33000000D01*
X42112000Y-33000000D01*
X42112000Y-33500000D01*
X41612000Y-33500000D01*
G37*
G36*
X38612000Y-33500000D02*
G01*
X38612000Y-33000000D01*
X39112000Y-33000000D01*
X39112000Y-33500000D01*
X38612000Y-33500000D01*
G37*
G36*
X37112000Y-33500000D02*
G01*
X37112000Y-33000000D01*
X37612000Y-33000000D01*
X37612000Y-33500000D01*
X37112000Y-33500000D01*
G37*
G36*
X36112000Y-33500000D02*
G01*
X36112000Y-33000000D01*
X36612000Y-33000000D01*
X36612000Y-33500000D01*
X36112000Y-33500000D01*
G37*
G36*
X35112000Y-33500000D02*
G01*
X35112000Y-33000000D01*
X35612000Y-33000000D01*
X35612000Y-33500000D01*
X35112000Y-33500000D01*
G37*
G36*
X34612000Y-33500000D02*
G01*
X34612000Y-33000000D01*
X35112000Y-33000000D01*
X35112000Y-33500000D01*
X34612000Y-33500000D01*
G37*
G36*
X34112000Y-33500000D02*
G01*
X34112000Y-33000000D01*
X34612000Y-33000000D01*
X34612000Y-33500000D01*
X34112000Y-33500000D01*
G37*
G36*
X33612000Y-33500000D02*
G01*
X33612000Y-33000000D01*
X34112000Y-33000000D01*
X34112000Y-33500000D01*
X33612000Y-33500000D01*
G37*
G36*
X32612000Y-33500000D02*
G01*
X32612000Y-33000000D01*
X33112000Y-33000000D01*
X33112000Y-33500000D01*
X32612000Y-33500000D01*
G37*
G36*
X46112000Y-34000000D02*
G01*
X46112000Y-33500000D01*
X46612000Y-33500000D01*
X46612000Y-34000000D01*
X46112000Y-34000000D01*
G37*
G36*
X45612000Y-34000000D02*
G01*
X45612000Y-33500000D01*
X46112000Y-33500000D01*
X46112000Y-34000000D01*
X45612000Y-34000000D01*
G37*
G36*
X45112000Y-34000000D02*
G01*
X45112000Y-33500000D01*
X45612000Y-33500000D01*
X45612000Y-34000000D01*
X45112000Y-34000000D01*
G37*
G36*
X43612000Y-34000000D02*
G01*
X43612000Y-33500000D01*
X44112000Y-33500000D01*
X44112000Y-34000000D01*
X43612000Y-34000000D01*
G37*
G36*
X43112000Y-34000000D02*
G01*
X43112000Y-33500000D01*
X43612000Y-33500000D01*
X43612000Y-34000000D01*
X43112000Y-34000000D01*
G37*
G36*
X42612000Y-34000000D02*
G01*
X42612000Y-33500000D01*
X43112000Y-33500000D01*
X43112000Y-34000000D01*
X42612000Y-34000000D01*
G37*
G36*
X41112000Y-34000000D02*
G01*
X41112000Y-33500000D01*
X41612000Y-33500000D01*
X41612000Y-34000000D01*
X41112000Y-34000000D01*
G37*
G36*
X40612000Y-34000000D02*
G01*
X40612000Y-33500000D01*
X41112000Y-33500000D01*
X41112000Y-34000000D01*
X40612000Y-34000000D01*
G37*
G36*
X40112000Y-34000000D02*
G01*
X40112000Y-33500000D01*
X40612000Y-33500000D01*
X40612000Y-34000000D01*
X40112000Y-34000000D01*
G37*
G36*
X39112000Y-34000000D02*
G01*
X39112000Y-33500000D01*
X39612000Y-33500000D01*
X39612000Y-34000000D01*
X39112000Y-34000000D01*
G37*
G36*
X37612000Y-34000000D02*
G01*
X37612000Y-33500000D01*
X38112000Y-33500000D01*
X38112000Y-34000000D01*
X37612000Y-34000000D01*
G37*
G36*
X36612000Y-34000000D02*
G01*
X36612000Y-33500000D01*
X37112000Y-33500000D01*
X37112000Y-34000000D01*
X36612000Y-34000000D01*
G37*
G36*
X34612000Y-34000000D02*
G01*
X34612000Y-33500000D01*
X35112000Y-33500000D01*
X35112000Y-34000000D01*
X34612000Y-34000000D01*
G37*
G36*
X34112000Y-34000000D02*
G01*
X34112000Y-33500000D01*
X34612000Y-33500000D01*
X34612000Y-34000000D01*
X34112000Y-34000000D01*
G37*
G36*
X32612000Y-34000000D02*
G01*
X32612000Y-33500000D01*
X33112000Y-33500000D01*
X33112000Y-34000000D01*
X32612000Y-34000000D01*
G37*
G36*
X32112000Y-34000000D02*
G01*
X32112000Y-33500000D01*
X32612000Y-33500000D01*
X32612000Y-34000000D01*
X32112000Y-34000000D01*
G37*
G36*
X31612000Y-34000000D02*
G01*
X31612000Y-33500000D01*
X32112000Y-33500000D01*
X32112000Y-34000000D01*
X31612000Y-34000000D01*
G37*
G36*
X30612000Y-34000000D02*
G01*
X30612000Y-33500000D01*
X31112000Y-33500000D01*
X31112000Y-34000000D01*
X30612000Y-34000000D01*
G37*
G36*
X46612000Y-34500000D02*
G01*
X46612000Y-34000000D01*
X47112000Y-34000000D01*
X47112000Y-34500000D01*
X46612000Y-34500000D01*
G37*
G36*
X45612000Y-34500000D02*
G01*
X45612000Y-34000000D01*
X46112000Y-34000000D01*
X46112000Y-34500000D01*
X45612000Y-34500000D01*
G37*
G36*
X44612000Y-34500000D02*
G01*
X44612000Y-34000000D01*
X45112000Y-34000000D01*
X45112000Y-34500000D01*
X44612000Y-34500000D01*
G37*
G36*
X41112000Y-34500000D02*
G01*
X41112000Y-34000000D01*
X41612000Y-34000000D01*
X41612000Y-34500000D01*
X41112000Y-34500000D01*
G37*
G36*
X40112000Y-34500000D02*
G01*
X40112000Y-34000000D01*
X40612000Y-34000000D01*
X40612000Y-34500000D01*
X40112000Y-34500000D01*
G37*
G36*
X39612000Y-34500000D02*
G01*
X39612000Y-34000000D01*
X40112000Y-34000000D01*
X40112000Y-34500000D01*
X39612000Y-34500000D01*
G37*
G36*
X39112000Y-34500000D02*
G01*
X39112000Y-34000000D01*
X39612000Y-34000000D01*
X39612000Y-34500000D01*
X39112000Y-34500000D01*
G37*
G36*
X37612000Y-34500000D02*
G01*
X37612000Y-34000000D01*
X38112000Y-34000000D01*
X38112000Y-34500000D01*
X37612000Y-34500000D01*
G37*
G36*
X36112000Y-34500000D02*
G01*
X36112000Y-34000000D01*
X36612000Y-34000000D01*
X36612000Y-34500000D01*
X36112000Y-34500000D01*
G37*
G36*
X34612000Y-34500000D02*
G01*
X34612000Y-34000000D01*
X35112000Y-34000000D01*
X35112000Y-34500000D01*
X34612000Y-34500000D01*
G37*
G36*
X34112000Y-34500000D02*
G01*
X34112000Y-34000000D01*
X34612000Y-34000000D01*
X34612000Y-34500000D01*
X34112000Y-34500000D01*
G37*
G36*
X32612000Y-34500000D02*
G01*
X32612000Y-34000000D01*
X33112000Y-34000000D01*
X33112000Y-34500000D01*
X32612000Y-34500000D01*
G37*
G36*
X31612000Y-34500000D02*
G01*
X31612000Y-34000000D01*
X32112000Y-34000000D01*
X32112000Y-34500000D01*
X31612000Y-34500000D01*
G37*
G36*
X30612000Y-34500000D02*
G01*
X30612000Y-34000000D01*
X31112000Y-34000000D01*
X31112000Y-34500000D01*
X30612000Y-34500000D01*
G37*
G36*
X45612000Y-35000000D02*
G01*
X45612000Y-34500000D01*
X46112000Y-34500000D01*
X46112000Y-35000000D01*
X45612000Y-35000000D01*
G37*
G36*
X43612000Y-35000000D02*
G01*
X43612000Y-34500000D01*
X44112000Y-34500000D01*
X44112000Y-35000000D01*
X43612000Y-35000000D01*
G37*
G36*
X40612000Y-35000000D02*
G01*
X40612000Y-34500000D01*
X41112000Y-34500000D01*
X41112000Y-35000000D01*
X40612000Y-35000000D01*
G37*
G36*
X39612000Y-35000000D02*
G01*
X39612000Y-34500000D01*
X40112000Y-34500000D01*
X40112000Y-35000000D01*
X39612000Y-35000000D01*
G37*
G36*
X38612000Y-35000000D02*
G01*
X38612000Y-34500000D01*
X39112000Y-34500000D01*
X39112000Y-35000000D01*
X38612000Y-35000000D01*
G37*
G36*
X38112000Y-35000000D02*
G01*
X38112000Y-34500000D01*
X38612000Y-34500000D01*
X38612000Y-35000000D01*
X38112000Y-35000000D01*
G37*
G36*
X36112000Y-35000000D02*
G01*
X36112000Y-34500000D01*
X36612000Y-34500000D01*
X36612000Y-35000000D01*
X36112000Y-35000000D01*
G37*
G36*
X35112000Y-35000000D02*
G01*
X35112000Y-34500000D01*
X35612000Y-34500000D01*
X35612000Y-35000000D01*
X35112000Y-35000000D01*
G37*
G36*
X34612000Y-35000000D02*
G01*
X34612000Y-34500000D01*
X35112000Y-34500000D01*
X35112000Y-35000000D01*
X34612000Y-35000000D01*
G37*
G36*
X34112000Y-35000000D02*
G01*
X34112000Y-34500000D01*
X34612000Y-34500000D01*
X34612000Y-35000000D01*
X34112000Y-35000000D01*
G37*
G36*
X33612000Y-35000000D02*
G01*
X33612000Y-34500000D01*
X34112000Y-34500000D01*
X34112000Y-35000000D01*
X33612000Y-35000000D01*
G37*
G36*
X32612000Y-35000000D02*
G01*
X32612000Y-34500000D01*
X33112000Y-34500000D01*
X33112000Y-35000000D01*
X32612000Y-35000000D01*
G37*
G36*
X31612000Y-35000000D02*
G01*
X31612000Y-34500000D01*
X32112000Y-34500000D01*
X32112000Y-35000000D01*
X31612000Y-35000000D01*
G37*
G36*
X31112000Y-35000000D02*
G01*
X31112000Y-34500000D01*
X31612000Y-34500000D01*
X31612000Y-35000000D01*
X31112000Y-35000000D01*
G37*
G36*
X30612000Y-35000000D02*
G01*
X30612000Y-34500000D01*
X31112000Y-34500000D01*
X31112000Y-35000000D01*
X30612000Y-35000000D01*
G37*
G36*
X46112000Y-35500000D02*
G01*
X46112000Y-35000000D01*
X46612000Y-35000000D01*
X46612000Y-35500000D01*
X46112000Y-35500000D01*
G37*
G36*
X45112000Y-35500000D02*
G01*
X45112000Y-35000000D01*
X45612000Y-35000000D01*
X45612000Y-35500000D01*
X45112000Y-35500000D01*
G37*
G36*
X44612000Y-35500000D02*
G01*
X44612000Y-35000000D01*
X45112000Y-35000000D01*
X45112000Y-35500000D01*
X44612000Y-35500000D01*
G37*
G36*
X44112000Y-35500000D02*
G01*
X44112000Y-35000000D01*
X44612000Y-35000000D01*
X44612000Y-35500000D01*
X44112000Y-35500000D01*
G37*
G36*
X43112000Y-35500000D02*
G01*
X43112000Y-35000000D01*
X43612000Y-35000000D01*
X43612000Y-35500000D01*
X43112000Y-35500000D01*
G37*
G36*
X42612000Y-35500000D02*
G01*
X42612000Y-35000000D01*
X43112000Y-35000000D01*
X43112000Y-35500000D01*
X42612000Y-35500000D01*
G37*
G36*
X42112000Y-35500000D02*
G01*
X42112000Y-35000000D01*
X42612000Y-35000000D01*
X42612000Y-35500000D01*
X42112000Y-35500000D01*
G37*
G36*
X41112000Y-35500000D02*
G01*
X41112000Y-35000000D01*
X41612000Y-35000000D01*
X41612000Y-35500000D01*
X41112000Y-35500000D01*
G37*
G36*
X39612000Y-35500000D02*
G01*
X39612000Y-35000000D01*
X40112000Y-35000000D01*
X40112000Y-35500000D01*
X39612000Y-35500000D01*
G37*
G36*
X38612000Y-35500000D02*
G01*
X38612000Y-35000000D01*
X39112000Y-35000000D01*
X39112000Y-35500000D01*
X38612000Y-35500000D01*
G37*
G36*
X37612000Y-35500000D02*
G01*
X37612000Y-35000000D01*
X38112000Y-35000000D01*
X38112000Y-35500000D01*
X37612000Y-35500000D01*
G37*
G36*
X37112000Y-35500000D02*
G01*
X37112000Y-35000000D01*
X37612000Y-35000000D01*
X37612000Y-35500000D01*
X37112000Y-35500000D01*
G37*
G36*
X33612000Y-35500000D02*
G01*
X33612000Y-35000000D01*
X34112000Y-35000000D01*
X34112000Y-35500000D01*
X33612000Y-35500000D01*
G37*
G36*
X33112000Y-35500000D02*
G01*
X33112000Y-35000000D01*
X33612000Y-35000000D01*
X33612000Y-35500000D01*
X33112000Y-35500000D01*
G37*
G36*
X32112000Y-35500000D02*
G01*
X32112000Y-35000000D01*
X32612000Y-35000000D01*
X32612000Y-35500000D01*
X32112000Y-35500000D01*
G37*
G36*
X31112000Y-35500000D02*
G01*
X31112000Y-35000000D01*
X31612000Y-35000000D01*
X31612000Y-35500000D01*
X31112000Y-35500000D01*
G37*
G36*
X46612000Y-36000000D02*
G01*
X46612000Y-35500000D01*
X47112000Y-35500000D01*
X47112000Y-36000000D01*
X46612000Y-36000000D01*
G37*
G36*
X44612000Y-36000000D02*
G01*
X44612000Y-35500000D01*
X45112000Y-35500000D01*
X45112000Y-36000000D01*
X44612000Y-36000000D01*
G37*
G36*
X43612000Y-36000000D02*
G01*
X43612000Y-35500000D01*
X44112000Y-35500000D01*
X44112000Y-36000000D01*
X43612000Y-36000000D01*
G37*
G36*
X42112000Y-36000000D02*
G01*
X42112000Y-35500000D01*
X42612000Y-35500000D01*
X42612000Y-36000000D01*
X42112000Y-36000000D01*
G37*
G36*
X41112000Y-36000000D02*
G01*
X41112000Y-35500000D01*
X41612000Y-35500000D01*
X41612000Y-36000000D01*
X41112000Y-36000000D01*
G37*
G36*
X40112000Y-36000000D02*
G01*
X40112000Y-35500000D01*
X40612000Y-35500000D01*
X40612000Y-36000000D01*
X40112000Y-36000000D01*
G37*
G36*
X39112000Y-36000000D02*
G01*
X39112000Y-35500000D01*
X39612000Y-35500000D01*
X39612000Y-36000000D01*
X39112000Y-36000000D01*
G37*
G36*
X38112000Y-36000000D02*
G01*
X38112000Y-35500000D01*
X38612000Y-35500000D01*
X38612000Y-36000000D01*
X38112000Y-36000000D01*
G37*
G36*
X35612000Y-36000000D02*
G01*
X35612000Y-35500000D01*
X36112000Y-35500000D01*
X36112000Y-36000000D01*
X35612000Y-36000000D01*
G37*
G36*
X34612000Y-36000000D02*
G01*
X34612000Y-35500000D01*
X35112000Y-35500000D01*
X35112000Y-36000000D01*
X34612000Y-36000000D01*
G37*
G36*
X34112000Y-36000000D02*
G01*
X34112000Y-35500000D01*
X34612000Y-35500000D01*
X34612000Y-36000000D01*
X34112000Y-36000000D01*
G37*
G36*
X33612000Y-36000000D02*
G01*
X33612000Y-35500000D01*
X34112000Y-35500000D01*
X34112000Y-36000000D01*
X33612000Y-36000000D01*
G37*
G36*
X33112000Y-36000000D02*
G01*
X33112000Y-35500000D01*
X33612000Y-35500000D01*
X33612000Y-36000000D01*
X33112000Y-36000000D01*
G37*
G36*
X32612000Y-36000000D02*
G01*
X32612000Y-35500000D01*
X33112000Y-35500000D01*
X33112000Y-36000000D01*
X32612000Y-36000000D01*
G37*
G36*
X32112000Y-36000000D02*
G01*
X32112000Y-35500000D01*
X32612000Y-35500000D01*
X32612000Y-36000000D01*
X32112000Y-36000000D01*
G37*
G36*
X31112000Y-36000000D02*
G01*
X31112000Y-35500000D01*
X31612000Y-35500000D01*
X31612000Y-36000000D01*
X31112000Y-36000000D01*
G37*
G36*
X42612000Y-36500000D02*
G01*
X42612000Y-36000000D01*
X43112000Y-36000000D01*
X43112000Y-36500000D01*
X42612000Y-36500000D01*
G37*
G36*
X42112000Y-36500000D02*
G01*
X42112000Y-36000000D01*
X42612000Y-36000000D01*
X42612000Y-36500000D01*
X42112000Y-36500000D01*
G37*
G36*
X41612000Y-36500000D02*
G01*
X41612000Y-36000000D01*
X42112000Y-36000000D01*
X42112000Y-36500000D01*
X41612000Y-36500000D01*
G37*
G36*
X41112000Y-36500000D02*
G01*
X41112000Y-36000000D01*
X41612000Y-36000000D01*
X41612000Y-36500000D01*
X41112000Y-36500000D01*
G37*
G36*
X39612000Y-36500000D02*
G01*
X39612000Y-36000000D01*
X40112000Y-36000000D01*
X40112000Y-36500000D01*
X39612000Y-36500000D01*
G37*
G36*
X39112000Y-36500000D02*
G01*
X39112000Y-36000000D01*
X39612000Y-36000000D01*
X39612000Y-36500000D01*
X39112000Y-36500000D01*
G37*
G36*
X38612000Y-36500000D02*
G01*
X38612000Y-36000000D01*
X39112000Y-36000000D01*
X39112000Y-36500000D01*
X38612000Y-36500000D01*
G37*
G36*
X38112000Y-36500000D02*
G01*
X38112000Y-36000000D01*
X38612000Y-36000000D01*
X38612000Y-36500000D01*
X38112000Y-36500000D01*
G37*
G36*
X37612000Y-36500000D02*
G01*
X37612000Y-36000000D01*
X38112000Y-36000000D01*
X38112000Y-36500000D01*
X37612000Y-36500000D01*
G37*
G36*
X37112000Y-36500000D02*
G01*
X37112000Y-36000000D01*
X37612000Y-36000000D01*
X37612000Y-36500000D01*
X37112000Y-36500000D01*
G37*
G36*
X36612000Y-36500000D02*
G01*
X36612000Y-36000000D01*
X37112000Y-36000000D01*
X37112000Y-36500000D01*
X36612000Y-36500000D01*
G37*
G36*
X34612000Y-36500000D02*
G01*
X34612000Y-36000000D01*
X35112000Y-36000000D01*
X35112000Y-36500000D01*
X34612000Y-36500000D01*
G37*
G36*
X32612000Y-36500000D02*
G01*
X32612000Y-36000000D01*
X33112000Y-36000000D01*
X33112000Y-36500000D01*
X32612000Y-36500000D01*
G37*
G36*
X32112000Y-36500000D02*
G01*
X32112000Y-36000000D01*
X32612000Y-36000000D01*
X32612000Y-36500000D01*
X32112000Y-36500000D01*
G37*
G36*
X30612000Y-36500000D02*
G01*
X30612000Y-36000000D01*
X31112000Y-36000000D01*
X31112000Y-36500000D01*
X30612000Y-36500000D01*
G37*
G36*
X46612000Y-37000000D02*
G01*
X46612000Y-36500000D01*
X47112000Y-36500000D01*
X47112000Y-37000000D01*
X46612000Y-37000000D01*
G37*
G36*
X46112000Y-37000000D02*
G01*
X46112000Y-36500000D01*
X46612000Y-36500000D01*
X46612000Y-37000000D01*
X46112000Y-37000000D01*
G37*
G36*
X45612000Y-37000000D02*
G01*
X45612000Y-36500000D01*
X46112000Y-36500000D01*
X46112000Y-37000000D01*
X45612000Y-37000000D01*
G37*
G36*
X45112000Y-37000000D02*
G01*
X45112000Y-36500000D01*
X45612000Y-36500000D01*
X45612000Y-37000000D01*
X45112000Y-37000000D01*
G37*
G36*
X44612000Y-37000000D02*
G01*
X44612000Y-36500000D01*
X45112000Y-36500000D01*
X45112000Y-37000000D01*
X44612000Y-37000000D01*
G37*
G36*
X44112000Y-37000000D02*
G01*
X44112000Y-36500000D01*
X44612000Y-36500000D01*
X44612000Y-37000000D01*
X44112000Y-37000000D01*
G37*
G36*
X43612000Y-37000000D02*
G01*
X43612000Y-36500000D01*
X44112000Y-36500000D01*
X44112000Y-37000000D01*
X43612000Y-37000000D01*
G37*
G36*
X42612000Y-37000000D02*
G01*
X42612000Y-36500000D01*
X43112000Y-36500000D01*
X43112000Y-37000000D01*
X42612000Y-37000000D01*
G37*
G36*
X42112000Y-37000000D02*
G01*
X42112000Y-36500000D01*
X42612000Y-36500000D01*
X42612000Y-37000000D01*
X42112000Y-37000000D01*
G37*
G36*
X40612000Y-37000000D02*
G01*
X40612000Y-36500000D01*
X41112000Y-36500000D01*
X41112000Y-37000000D01*
X40612000Y-37000000D01*
G37*
G36*
X39612000Y-37000000D02*
G01*
X39612000Y-36500000D01*
X40112000Y-36500000D01*
X40112000Y-37000000D01*
X39612000Y-37000000D01*
G37*
G36*
X37112000Y-37000000D02*
G01*
X37112000Y-36500000D01*
X37612000Y-36500000D01*
X37612000Y-37000000D01*
X37112000Y-37000000D01*
G37*
G36*
X36612000Y-37000000D02*
G01*
X36612000Y-36500000D01*
X37112000Y-36500000D01*
X37112000Y-37000000D01*
X36612000Y-37000000D01*
G37*
G36*
X35612000Y-37000000D02*
G01*
X35612000Y-36500000D01*
X36112000Y-36500000D01*
X36112000Y-37000000D01*
X35612000Y-37000000D01*
G37*
G36*
X35112000Y-37000000D02*
G01*
X35112000Y-36500000D01*
X35612000Y-36500000D01*
X35612000Y-37000000D01*
X35112000Y-37000000D01*
G37*
G36*
X34612000Y-37000000D02*
G01*
X34612000Y-36500000D01*
X35112000Y-36500000D01*
X35112000Y-37000000D01*
X34612000Y-37000000D01*
G37*
G36*
X33612000Y-37000000D02*
G01*
X33612000Y-36500000D01*
X34112000Y-36500000D01*
X34112000Y-37000000D01*
X33612000Y-37000000D01*
G37*
G36*
X32612000Y-37000000D02*
G01*
X32612000Y-36500000D01*
X33112000Y-36500000D01*
X33112000Y-37000000D01*
X32612000Y-37000000D01*
G37*
G36*
X46612000Y-37500000D02*
G01*
X46612000Y-37000000D01*
X47112000Y-37000000D01*
X47112000Y-37500000D01*
X46612000Y-37500000D01*
G37*
G36*
X43612000Y-37500000D02*
G01*
X43612000Y-37000000D01*
X44112000Y-37000000D01*
X44112000Y-37500000D01*
X43612000Y-37500000D01*
G37*
G36*
X42612000Y-37500000D02*
G01*
X42612000Y-37000000D01*
X43112000Y-37000000D01*
X43112000Y-37500000D01*
X42612000Y-37500000D01*
G37*
G36*
X42112000Y-37500000D02*
G01*
X42112000Y-37000000D01*
X42612000Y-37000000D01*
X42612000Y-37500000D01*
X42112000Y-37500000D01*
G37*
G36*
X41612000Y-37500000D02*
G01*
X41612000Y-37000000D01*
X42112000Y-37000000D01*
X42112000Y-37500000D01*
X41612000Y-37500000D01*
G37*
G36*
X39112000Y-37500000D02*
G01*
X39112000Y-37000000D01*
X39612000Y-37000000D01*
X39612000Y-37500000D01*
X39112000Y-37500000D01*
G37*
G36*
X36612000Y-37500000D02*
G01*
X36612000Y-37000000D01*
X37112000Y-37000000D01*
X37112000Y-37500000D01*
X36612000Y-37500000D01*
G37*
G36*
X36112000Y-37500000D02*
G01*
X36112000Y-37000000D01*
X36612000Y-37000000D01*
X36612000Y-37500000D01*
X36112000Y-37500000D01*
G37*
G36*
X35612000Y-37500000D02*
G01*
X35612000Y-37000000D01*
X36112000Y-37000000D01*
X36112000Y-37500000D01*
X35612000Y-37500000D01*
G37*
G36*
X35112000Y-37500000D02*
G01*
X35112000Y-37000000D01*
X35612000Y-37000000D01*
X35612000Y-37500000D01*
X35112000Y-37500000D01*
G37*
G36*
X34612000Y-37500000D02*
G01*
X34612000Y-37000000D01*
X35112000Y-37000000D01*
X35112000Y-37500000D01*
X34612000Y-37500000D01*
G37*
G36*
X32612000Y-37500000D02*
G01*
X32612000Y-37000000D01*
X33112000Y-37000000D01*
X33112000Y-37500000D01*
X32612000Y-37500000D01*
G37*
G36*
X32112000Y-37500000D02*
G01*
X32112000Y-37000000D01*
X32612000Y-37000000D01*
X32612000Y-37500000D01*
X32112000Y-37500000D01*
G37*
G36*
X31612000Y-37500000D02*
G01*
X31612000Y-37000000D01*
X32112000Y-37000000D01*
X32112000Y-37500000D01*
X31612000Y-37500000D01*
G37*
G36*
X31112000Y-37500000D02*
G01*
X31112000Y-37000000D01*
X31612000Y-37000000D01*
X31612000Y-37500000D01*
X31112000Y-37500000D01*
G37*
G36*
X46612000Y-38000000D02*
G01*
X46612000Y-37500000D01*
X47112000Y-37500000D01*
X47112000Y-38000000D01*
X46612000Y-38000000D01*
G37*
G36*
X45612000Y-38000000D02*
G01*
X45612000Y-37500000D01*
X46112000Y-37500000D01*
X46112000Y-38000000D01*
X45612000Y-38000000D01*
G37*
G36*
X45112000Y-38000000D02*
G01*
X45112000Y-37500000D01*
X45612000Y-37500000D01*
X45612000Y-38000000D01*
X45112000Y-38000000D01*
G37*
G36*
X44612000Y-38000000D02*
G01*
X44612000Y-37500000D01*
X45112000Y-37500000D01*
X45112000Y-38000000D01*
X44612000Y-38000000D01*
G37*
G36*
X43612000Y-38000000D02*
G01*
X43612000Y-37500000D01*
X44112000Y-37500000D01*
X44112000Y-38000000D01*
X43612000Y-38000000D01*
G37*
G36*
X42112000Y-38000000D02*
G01*
X42112000Y-37500000D01*
X42612000Y-37500000D01*
X42612000Y-38000000D01*
X42112000Y-38000000D01*
G37*
G36*
X41612000Y-38000000D02*
G01*
X41612000Y-37500000D01*
X42112000Y-37500000D01*
X42112000Y-38000000D01*
X41612000Y-38000000D01*
G37*
G36*
X40612000Y-38000000D02*
G01*
X40612000Y-37500000D01*
X41112000Y-37500000D01*
X41112000Y-38000000D01*
X40612000Y-38000000D01*
G37*
G36*
X40112000Y-38000000D02*
G01*
X40112000Y-37500000D01*
X40612000Y-37500000D01*
X40612000Y-38000000D01*
X40112000Y-38000000D01*
G37*
G36*
X39112000Y-38000000D02*
G01*
X39112000Y-37500000D01*
X39612000Y-37500000D01*
X39612000Y-38000000D01*
X39112000Y-38000000D01*
G37*
G36*
X38112000Y-38000000D02*
G01*
X38112000Y-37500000D01*
X38612000Y-37500000D01*
X38612000Y-38000000D01*
X38112000Y-38000000D01*
G37*
G36*
X37112000Y-38000000D02*
G01*
X37112000Y-37500000D01*
X37612000Y-37500000D01*
X37612000Y-38000000D01*
X37112000Y-38000000D01*
G37*
G36*
X36612000Y-38000000D02*
G01*
X36612000Y-37500000D01*
X37112000Y-37500000D01*
X37112000Y-38000000D01*
X36612000Y-38000000D01*
G37*
G36*
X35112000Y-38000000D02*
G01*
X35112000Y-37500000D01*
X35612000Y-37500000D01*
X35612000Y-38000000D01*
X35112000Y-38000000D01*
G37*
G36*
X34612000Y-38000000D02*
G01*
X34612000Y-37500000D01*
X35112000Y-37500000D01*
X35112000Y-38000000D01*
X34612000Y-38000000D01*
G37*
G36*
X34112000Y-38000000D02*
G01*
X34112000Y-37500000D01*
X34612000Y-37500000D01*
X34612000Y-38000000D01*
X34112000Y-38000000D01*
G37*
G36*
X33612000Y-38000000D02*
G01*
X33612000Y-37500000D01*
X34112000Y-37500000D01*
X34112000Y-38000000D01*
X33612000Y-38000000D01*
G37*
G36*
X33112000Y-38000000D02*
G01*
X33112000Y-37500000D01*
X33612000Y-37500000D01*
X33612000Y-38000000D01*
X33112000Y-38000000D01*
G37*
G36*
X32612000Y-38000000D02*
G01*
X32612000Y-37500000D01*
X33112000Y-37500000D01*
X33112000Y-38000000D01*
X32612000Y-38000000D01*
G37*
G36*
X31612000Y-38000000D02*
G01*
X31612000Y-37500000D01*
X32112000Y-37500000D01*
X32112000Y-38000000D01*
X31612000Y-38000000D01*
G37*
G36*
X30612000Y-38000000D02*
G01*
X30612000Y-37500000D01*
X31112000Y-37500000D01*
X31112000Y-38000000D01*
X30612000Y-38000000D01*
G37*
G36*
X46612000Y-38500000D02*
G01*
X46612000Y-38000000D01*
X47112000Y-38000000D01*
X47112000Y-38500000D01*
X46612000Y-38500000D01*
G37*
G36*
X45612000Y-38500000D02*
G01*
X45612000Y-38000000D01*
X46112000Y-38000000D01*
X46112000Y-38500000D01*
X45612000Y-38500000D01*
G37*
G36*
X45112000Y-38500000D02*
G01*
X45112000Y-38000000D01*
X45612000Y-38000000D01*
X45612000Y-38500000D01*
X45112000Y-38500000D01*
G37*
G36*
X44612000Y-38500000D02*
G01*
X44612000Y-38000000D01*
X45112000Y-38000000D01*
X45112000Y-38500000D01*
X44612000Y-38500000D01*
G37*
G36*
X43612000Y-38500000D02*
G01*
X43612000Y-38000000D01*
X44112000Y-38000000D01*
X44112000Y-38500000D01*
X43612000Y-38500000D01*
G37*
G36*
X42612000Y-38500000D02*
G01*
X42612000Y-38000000D01*
X43112000Y-38000000D01*
X43112000Y-38500000D01*
X42612000Y-38500000D01*
G37*
G36*
X42112000Y-38500000D02*
G01*
X42112000Y-38000000D01*
X42612000Y-38000000D01*
X42612000Y-38500000D01*
X42112000Y-38500000D01*
G37*
G36*
X40612000Y-38500000D02*
G01*
X40612000Y-38000000D01*
X41112000Y-38000000D01*
X41112000Y-38500000D01*
X40612000Y-38500000D01*
G37*
G36*
X37612000Y-38500000D02*
G01*
X37612000Y-38000000D01*
X38112000Y-38000000D01*
X38112000Y-38500000D01*
X37612000Y-38500000D01*
G37*
G36*
X37112000Y-38500000D02*
G01*
X37112000Y-38000000D01*
X37612000Y-38000000D01*
X37612000Y-38500000D01*
X37112000Y-38500000D01*
G37*
G36*
X36612000Y-38500000D02*
G01*
X36612000Y-38000000D01*
X37112000Y-38000000D01*
X37112000Y-38500000D01*
X36612000Y-38500000D01*
G37*
G36*
X36112000Y-38500000D02*
G01*
X36112000Y-38000000D01*
X36612000Y-38000000D01*
X36612000Y-38500000D01*
X36112000Y-38500000D01*
G37*
G36*
X35112000Y-38500000D02*
G01*
X35112000Y-38000000D01*
X35612000Y-38000000D01*
X35612000Y-38500000D01*
X35112000Y-38500000D01*
G37*
G36*
X33112000Y-38500000D02*
G01*
X33112000Y-38000000D01*
X33612000Y-38000000D01*
X33612000Y-38500000D01*
X33112000Y-38500000D01*
G37*
G36*
X32112000Y-38500000D02*
G01*
X32112000Y-38000000D01*
X32612000Y-38000000D01*
X32612000Y-38500000D01*
X32112000Y-38500000D01*
G37*
G36*
X31112000Y-38500000D02*
G01*
X31112000Y-38000000D01*
X31612000Y-38000000D01*
X31612000Y-38500000D01*
X31112000Y-38500000D01*
G37*
G36*
X30612000Y-38500000D02*
G01*
X30612000Y-38000000D01*
X31112000Y-38000000D01*
X31112000Y-38500000D01*
X30612000Y-38500000D01*
G37*
G36*
X46612000Y-39000000D02*
G01*
X46612000Y-38500000D01*
X47112000Y-38500000D01*
X47112000Y-39000000D01*
X46612000Y-39000000D01*
G37*
G36*
X45612000Y-39000000D02*
G01*
X45612000Y-38500000D01*
X46112000Y-38500000D01*
X46112000Y-39000000D01*
X45612000Y-39000000D01*
G37*
G36*
X45112000Y-39000000D02*
G01*
X45112000Y-38500000D01*
X45612000Y-38500000D01*
X45612000Y-39000000D01*
X45112000Y-39000000D01*
G37*
G36*
X44612000Y-39000000D02*
G01*
X44612000Y-38500000D01*
X45112000Y-38500000D01*
X45112000Y-39000000D01*
X44612000Y-39000000D01*
G37*
G36*
X43612000Y-39000000D02*
G01*
X43612000Y-38500000D01*
X44112000Y-38500000D01*
X44112000Y-39000000D01*
X43612000Y-39000000D01*
G37*
G36*
X42612000Y-39000000D02*
G01*
X42612000Y-38500000D01*
X43112000Y-38500000D01*
X43112000Y-39000000D01*
X42612000Y-39000000D01*
G37*
G36*
X42112000Y-39000000D02*
G01*
X42112000Y-38500000D01*
X42612000Y-38500000D01*
X42612000Y-39000000D01*
X42112000Y-39000000D01*
G37*
G36*
X41112000Y-39000000D02*
G01*
X41112000Y-38500000D01*
X41612000Y-38500000D01*
X41612000Y-39000000D01*
X41112000Y-39000000D01*
G37*
G36*
X40612000Y-39000000D02*
G01*
X40612000Y-38500000D01*
X41112000Y-38500000D01*
X41112000Y-39000000D01*
X40612000Y-39000000D01*
G37*
G36*
X40112000Y-39000000D02*
G01*
X40112000Y-38500000D01*
X40612000Y-38500000D01*
X40612000Y-39000000D01*
X40112000Y-39000000D01*
G37*
G36*
X39612000Y-39000000D02*
G01*
X39612000Y-38500000D01*
X40112000Y-38500000D01*
X40112000Y-39000000D01*
X39612000Y-39000000D01*
G37*
G36*
X38112000Y-39000000D02*
G01*
X38112000Y-38500000D01*
X38612000Y-38500000D01*
X38612000Y-39000000D01*
X38112000Y-39000000D01*
G37*
G36*
X37612000Y-39000000D02*
G01*
X37612000Y-38500000D01*
X38112000Y-38500000D01*
X38112000Y-39000000D01*
X37612000Y-39000000D01*
G37*
G36*
X37112000Y-39000000D02*
G01*
X37112000Y-38500000D01*
X37612000Y-38500000D01*
X37612000Y-39000000D01*
X37112000Y-39000000D01*
G37*
G36*
X35612000Y-39000000D02*
G01*
X35612000Y-38500000D01*
X36112000Y-38500000D01*
X36112000Y-39000000D01*
X35612000Y-39000000D01*
G37*
G36*
X33612000Y-39000000D02*
G01*
X33612000Y-38500000D01*
X34112000Y-38500000D01*
X34112000Y-39000000D01*
X33612000Y-39000000D01*
G37*
G36*
X33112000Y-39000000D02*
G01*
X33112000Y-38500000D01*
X33612000Y-38500000D01*
X33612000Y-39000000D01*
X33112000Y-39000000D01*
G37*
G36*
X31612000Y-39000000D02*
G01*
X31612000Y-38500000D01*
X32112000Y-38500000D01*
X32112000Y-39000000D01*
X31612000Y-39000000D01*
G37*
G36*
X46612000Y-39500000D02*
G01*
X46612000Y-39000000D01*
X47112000Y-39000000D01*
X47112000Y-39500000D01*
X46612000Y-39500000D01*
G37*
G36*
X43612000Y-39500000D02*
G01*
X43612000Y-39000000D01*
X44112000Y-39000000D01*
X44112000Y-39500000D01*
X43612000Y-39500000D01*
G37*
G36*
X42112000Y-39500000D02*
G01*
X42112000Y-39000000D01*
X42612000Y-39000000D01*
X42612000Y-39500000D01*
X42112000Y-39500000D01*
G37*
G36*
X41612000Y-39500000D02*
G01*
X41612000Y-39000000D01*
X42112000Y-39000000D01*
X42112000Y-39500000D01*
X41612000Y-39500000D01*
G37*
G36*
X39112000Y-39500000D02*
G01*
X39112000Y-39000000D01*
X39612000Y-39000000D01*
X39612000Y-39500000D01*
X39112000Y-39500000D01*
G37*
G36*
X38612000Y-39500000D02*
G01*
X38612000Y-39000000D01*
X39112000Y-39000000D01*
X39112000Y-39500000D01*
X38612000Y-39500000D01*
G37*
G36*
X38112000Y-39500000D02*
G01*
X38112000Y-39000000D01*
X38612000Y-39000000D01*
X38612000Y-39500000D01*
X38112000Y-39500000D01*
G37*
G36*
X37112000Y-39500000D02*
G01*
X37112000Y-39000000D01*
X37612000Y-39000000D01*
X37612000Y-39500000D01*
X37112000Y-39500000D01*
G37*
G36*
X35612000Y-39500000D02*
G01*
X35612000Y-39000000D01*
X36112000Y-39000000D01*
X36112000Y-39500000D01*
X35612000Y-39500000D01*
G37*
G36*
X35112000Y-39500000D02*
G01*
X35112000Y-39000000D01*
X35612000Y-39000000D01*
X35612000Y-39500000D01*
X35112000Y-39500000D01*
G37*
G36*
X34112000Y-39500000D02*
G01*
X34112000Y-39000000D01*
X34612000Y-39000000D01*
X34612000Y-39500000D01*
X34112000Y-39500000D01*
G37*
G36*
X33112000Y-39500000D02*
G01*
X33112000Y-39000000D01*
X33612000Y-39000000D01*
X33612000Y-39500000D01*
X33112000Y-39500000D01*
G37*
G36*
X32612000Y-39500000D02*
G01*
X32612000Y-39000000D01*
X33112000Y-39000000D01*
X33112000Y-39500000D01*
X32612000Y-39500000D01*
G37*
G36*
X32112000Y-39500000D02*
G01*
X32112000Y-39000000D01*
X32612000Y-39000000D01*
X32612000Y-39500000D01*
X32112000Y-39500000D01*
G37*
G36*
X30612000Y-39500000D02*
G01*
X30612000Y-39000000D01*
X31112000Y-39000000D01*
X31112000Y-39500000D01*
X30612000Y-39500000D01*
G37*
G36*
X46612000Y-40000000D02*
G01*
X46612000Y-39500000D01*
X47112000Y-39500000D01*
X47112000Y-40000000D01*
X46612000Y-40000000D01*
G37*
G36*
X46112000Y-40000000D02*
G01*
X46112000Y-39500000D01*
X46612000Y-39500000D01*
X46612000Y-40000000D01*
X46112000Y-40000000D01*
G37*
G36*
X45612000Y-40000000D02*
G01*
X45612000Y-39500000D01*
X46112000Y-39500000D01*
X46112000Y-40000000D01*
X45612000Y-40000000D01*
G37*
G36*
X45112000Y-40000000D02*
G01*
X45112000Y-39500000D01*
X45612000Y-39500000D01*
X45612000Y-40000000D01*
X45112000Y-40000000D01*
G37*
G36*
X44612000Y-40000000D02*
G01*
X44612000Y-39500000D01*
X45112000Y-39500000D01*
X45112000Y-40000000D01*
X44612000Y-40000000D01*
G37*
G36*
X44112000Y-40000000D02*
G01*
X44112000Y-39500000D01*
X44612000Y-39500000D01*
X44612000Y-40000000D01*
X44112000Y-40000000D01*
G37*
G36*
X43612000Y-40000000D02*
G01*
X43612000Y-39500000D01*
X44112000Y-39500000D01*
X44112000Y-40000000D01*
X43612000Y-40000000D01*
G37*
G36*
X42612000Y-40000000D02*
G01*
X42612000Y-39500000D01*
X43112000Y-39500000D01*
X43112000Y-40000000D01*
X42612000Y-40000000D01*
G37*
G36*
X42112000Y-40000000D02*
G01*
X42112000Y-39500000D01*
X42612000Y-39500000D01*
X42612000Y-40000000D01*
X42112000Y-40000000D01*
G37*
G36*
X41612000Y-40000000D02*
G01*
X41612000Y-39500000D01*
X42112000Y-39500000D01*
X42112000Y-40000000D01*
X41612000Y-40000000D01*
G37*
G36*
X41112000Y-40000000D02*
G01*
X41112000Y-39500000D01*
X41612000Y-39500000D01*
X41612000Y-40000000D01*
X41112000Y-40000000D01*
G37*
G36*
X40612000Y-40000000D02*
G01*
X40612000Y-39500000D01*
X41112000Y-39500000D01*
X41112000Y-40000000D01*
X40612000Y-40000000D01*
G37*
G36*
X39112000Y-40000000D02*
G01*
X39112000Y-39500000D01*
X39612000Y-39500000D01*
X39612000Y-40000000D01*
X39112000Y-40000000D01*
G37*
G36*
X38612000Y-40000000D02*
G01*
X38612000Y-39500000D01*
X39112000Y-39500000D01*
X39112000Y-40000000D01*
X38612000Y-40000000D01*
G37*
G36*
X38112000Y-40000000D02*
G01*
X38112000Y-39500000D01*
X38612000Y-39500000D01*
X38612000Y-40000000D01*
X38112000Y-40000000D01*
G37*
G36*
X37612000Y-40000000D02*
G01*
X37612000Y-39500000D01*
X38112000Y-39500000D01*
X38112000Y-40000000D01*
X37612000Y-40000000D01*
G37*
G36*
X36112000Y-40000000D02*
G01*
X36112000Y-39500000D01*
X36612000Y-39500000D01*
X36612000Y-40000000D01*
X36112000Y-40000000D01*
G37*
G36*
X35112000Y-40000000D02*
G01*
X35112000Y-39500000D01*
X35612000Y-39500000D01*
X35612000Y-40000000D01*
X35112000Y-40000000D01*
G37*
G36*
X34612000Y-40000000D02*
G01*
X34612000Y-39500000D01*
X35112000Y-39500000D01*
X35112000Y-40000000D01*
X34612000Y-40000000D01*
G37*
G36*
X34112000Y-40000000D02*
G01*
X34112000Y-39500000D01*
X34612000Y-39500000D01*
X34612000Y-40000000D01*
X34112000Y-40000000D01*
G37*
G36*
X33612000Y-40000000D02*
G01*
X33612000Y-39500000D01*
X34112000Y-39500000D01*
X34112000Y-40000000D01*
X33612000Y-40000000D01*
G37*
G36*
X32612000Y-40000000D02*
G01*
X32612000Y-39500000D01*
X33112000Y-39500000D01*
X33112000Y-40000000D01*
X32612000Y-40000000D01*
G37*
M02*
