M48
; DRILL file {KiCad (5.1.2)-1} date 16.06.2019 12:12:32
; FORMAT={-:-/ absolute / inch / decimal}
; #@! TF.CreationDate,2019-06-16T12:12:32+02:00
; #@! TF.GenerationSoftware,Kicad,Pcbnew,(5.1.2)-1
; #@! TF.FileFunction,Plated,1,2,PTH
FMAT,2
INCH
T1C0.0157
T2C0.1122
T3C0.1260
%
G90
G05
T1
X0.69Y-2.9
X0.747Y-2.89
X0.9894Y-2.9034
X0.9964Y-2.9456
X1.0503Y-3.0734
X1.0533Y-2.8452
X1.0553Y-3.0124
X1.0712Y-2.9498
X1.0984Y-2.7936
X1.1025Y-3.0747
X1.1109Y-2.9474
X1.1117Y-2.7047
X1.1856Y-3.2646
X1.1983Y-3.3529
X1.1986Y-3.1126
X1.219Y-2.9938
X1.2209Y-2.8444
X1.2292Y-2.9078
X1.3053Y-3.1826
X1.3112Y-2.956
X1.49Y-3.38
X1.525Y-2.925
X1.53Y-3.32
X1.5485Y-3.38
X1.575Y-3.275
X1.61Y-3.11
X1.6102Y-3.1785
X1.6186Y-2.511
X1.625Y-3.35
X1.6636Y-2.8364
X1.6837Y-2.1906
X1.7Y-3.35
X1.7069Y-2.5141
X1.7407Y-2.226
X1.7611Y-2.5052
X1.7917Y-2.2157
X1.8441Y-2.3176
X1.85Y-2.2641
X1.9003Y-2.4447
X2.175Y-3.2
X2.275Y-3.2
T2
X0.75Y-0.75
X0.75Y-2.4272
X2.3091Y-0.75
X2.3091Y-2.4272
T3
X2.275Y-3.475
X0.775Y-3.475
T0
M30
